<?xml version="1.0" encoding="utf-8"?>
<!-- Generator: Adobe Illustrator 19.1.0, SVG Export Plug-In . SVG Version: 6.00 Build 0)  -->
<svg version="1.1" id="Layer_1" xmlns="http://www.w3.org/2000/svg" xmlns:xlink="http://www.w3.org/1999/xlink" x="0px" y="0px"
	 viewBox="0 0 310 66" style="enable-background:new 0 0 310 66;" xml:space="preserve">
<style type="text/css">
	.st0{fill:#00468A;}
	.st1{fill:#FCB912;}
	.st2{fill:#231F20;}
	.st3{filter:url(#Adobe_OpacityMaskFilter);}
	.st4{clip-path:url(#SVGID_2_);fill:url(#SVGID_4_);}
	.st5{clip-path:url(#SVGID_2_);mask:url(#SVGID_3_);fill:url(#SVGID_5_);}
</style>
<g>
	<rect x="0" y="14.7" class="st0" width="49.2" height="49.1"/>
	<g>
		<path class="st1" d="M86.6,0l-0.1,0c-2.9,0.5-5.7,1.2-8.4,2c-1.4,0.5-2.9,1-4.6,1.7c-1,0.4-2,0.8-3,1.2c-6,2.7-11.2,6.2-15.7,9.8
			c-7.1,5.9-13,12.9-17.5,19.4c-3.2,4.6-5.9,9.1-7.9,12.8c-6.3-11.6-17.8-17.7-17.8-17.7l-2.9,4.2l-1.3,1.8l-3.5,4.9
			c12.9,3.2,24.3,22.4,24.3,22.4l0.1,0.1c0.5,0.5,0.9,0.3,1.2-0.5c0.5-0.9,0.9-1.8,1.4-2.7c0.3-0.6,0.6-1.1,0.9-1.7
			c0.5-1,1-2,1.6-2.9c0.2-0.3,0.4-0.7,0.5-1c0.2-0.4,0.5-0.8,0.7-1.3c3.8-7.2,8.1-14,12.8-20.1C58,18.5,70.9,7.7,86.5,1.7
			C88.2,1,88.1-0.1,86.6,0"/>
		<path class="st0" d="M289.7,32.1c0.8-4.2,3.1-6.6,5.3-6.6c2.1,0,2.8,1.8,2.8,3.5c0,4.1-2.7,8.5-6.1,8.5c-1.2,0-2.2-0.3-2.9-0.9
			L289.7,32.1z M286.6,49.3l1.7-9.3h0.1c0.6,0.4,1.9,0.8,3.6,0.8c6.1,0,10.4-5.8,10.4-12.1c0-3.5-1.8-6.6-5.7-6.6
			c-2.3,0-4.5,1.3-6.1,3.4h-0.1l0.4-3h-3.9c-0.3,1.8-0.7,4.6-1,6.7l-3.8,20.2H286.6z M266.2,15.5l-2.7,14.1
			c-0.2,1.1-0.3,2.4-0.3,3.5c0,5.2,3.1,7.7,7.8,7.6c6.1,0,9.6-3.3,11-10.8l2.8-14.4h-4.3L277.7,30c-1,5.1-3.1,7.1-6.2,7.1
			c-2.5,0-4.1-1.6-4.1-4.1c0-1,0.1-2.1,0.3-3l2.8-14.5H266.2z M248.3,40.3l1.2-6.3l2.1-2l3.7,8.2h4.8l-5.2-10.6l7.7-7.4h-5.3
			l-5.4,5.8c-0.5,0.6-1.1,1.3-1.7,2h-0.1l3.1-16H249l-5,26.1H248.3z M241.7,36.4c-0.9,0.4-2.1,0.8-3.8,0.8c-2.4,0-3.9-1.5-3.9-4.2
			c0-3.8,2.6-7.5,6.8-7.5c1.2,0,2.1,0.3,2.7,0.6l1.1-3.3c-0.7-0.3-2.1-0.7-3.7-0.7c-6.6,0-11.4,5.3-11.4,11.5c0,4.3,2.8,7.1,7.3,7.1
			c2.3,0,4.1-0.5,5.2-1L241.7,36.4z M224.5,27c0,2.2-2.8,2.8-7.3,2.7c0.5-2.2,2.3-4.6,5-4.6C223.6,25.2,224.5,25.9,224.5,27
			 M225.9,36.2c-1.3,0.7-2.9,1.2-4.9,1.2c-1.7,0-3-0.6-3.7-1.8c-0.4-0.7-0.6-1.9-0.5-2.5c6.9,0.1,11.8-1.3,11.8-5.9c0-3-2.3-5-5.8-5
			c-6.2,0-10.2,5.9-10.2,11.3c0,4.4,2.4,7.4,7.4,7.4c2.2,0,4.6-0.5,6.3-1.4L225.9,36.2z M197.1,40.3l1.6-8.5
			c0.7-3.8,3.1-6.3,5.2-6.3c1.6,0,2.3,1.1,2.3,2.4c0,0.9-0.1,1.7-0.2,2.4l-1.9,10h4.3l2-10.4c0.2-1,0.3-2.2,0.3-3.1
			c0-3.3-2-4.8-4.5-4.8c-2.5,0-4.5,1.2-6,3.1H200l2.1-10.9h-4.3l-5,26.1H197.1z M190.4,36.1c-1.3,0.6-3.2,0.9-5,0.9
			c-4.9,0-7-3.1-7-7.3c0-3.6,1.4-6.7,3.6-8.6c1.7-1.5,4-2.3,6.3-2.3c2.2,0,3.9,0.4,4.7,0.9l1.3-3.5c-0.7-0.4-2.7-1.1-5.4-1.1
			c-3.6,0-6.7,1-9.3,2.9c-3.6,2.6-5.8,7-5.8,12.2c0,6.4,4.1,10.4,10.6,10.4c2.9,0,5.2-0.5,6.5-1.1L190.4,36.1z M158.3,39.4
			c1,0.7,2.9,1.3,5,1.3c4.3,0,7.6-2.2,7.6-6.1c0-2.3-1.7-3.8-3.7-4.8c-1.6-0.8-2.3-1.5-2.3-2.5c0-1.2,1.1-2.1,2.7-2.1
			c1.5,0,2.7,0.4,3.4,0.8l1.1-3.1c-0.8-0.5-2.3-0.9-4.2-0.9c-4.2,0-7.3,2.4-7.3,5.9c0,2.1,1.5,3.6,3.5,4.7c1.8,0.9,2.4,1.7,2.4,2.8
			c0,1.2-1,2.2-2.8,2.2c-1.6,0-3.4-0.7-4.3-1.2L158.3,39.4z M152.3,19.1l-0.7,3.4h-2.4l-0.6,3.3h2.4l-1.5,8
			c-0.3,1.3-0.4,2.3-0.4,3.3c0,2.1,1.3,3.7,4.2,3.7c1,0,2.2-0.1,2.8-0.4l0.4-3.3c-0.4,0.1-1,0.1-1.5,0.1c-1.1,0-1.6-0.6-1.6-1.6
			c0-0.8,0.1-1.7,0.3-2.5l1.4-7.2h4l0.7-3.3h-4l0.8-4.6L152.3,19.1z M133.6,40.3l2.8-14.6h5.7l-2.8,14.6h4.3l3.4-17.9h-10l0.1-0.8
			c0.4-2.3,1.6-4.3,4.8-4.3c1.6,0,3,0.4,3.8,0.8l1.2-3.3c-0.8-0.5-2.7-1-4.6-1c-5,0-8.5,2.8-9.4,7.8l-0.1,0.8h-2.4l-0.6,3.3h2.4
			l-2.8,14.6H133.6z M124.3,27c0,2.2-2.8,2.8-7.3,2.7c0.5-2.2,2.3-4.6,5-4.6C123.4,25.2,124.3,25.9,124.3,27 M125.7,36.2
			c-1.3,0.7-2.9,1.2-4.9,1.2c-1.7,0-3-0.6-3.7-1.8c-0.4-0.7-0.6-1.9-0.5-2.5c6.9,0.1,11.8-1.3,11.8-5.9c0-3-2.3-5-5.8-5
			c-6.2,0-10.2,5.9-10.2,11.3c0,4.4,2.4,7.4,7.4,7.4c2.2,0,4.6-0.5,6.3-1.4L125.7,36.2z M96.9,40.3l1.5-8.3c0.8-4.2,3.3-6.6,5.2-6.6
			c1.7,0,2.3,1.1,2.3,2.6c0,0.7-0.1,1.5-0.2,2.1l-1.9,10.1h4.3l2-10.5c0.2-0.9,0.3-2.1,0.3-2.9c0-3.4-2-4.9-4.6-4.9
			c-2.5,0-4.8,1.2-6.5,3.6h-0.1l0.4-3.2h-3.8c-0.2,1.5-0.5,3.4-0.9,5.6l-2.3,12.4H96.9z M88.2,27c0,2.2-2.8,2.8-7.3,2.7
			c0.5-2.2,2.3-4.6,5-4.6C87.3,25.2,88.2,25.9,88.2,27 M89.6,36.2c-1.3,0.7-2.9,1.2-4.9,1.2c-1.7,0-3-0.6-3.7-1.8
			c-0.4-0.7-0.6-1.9-0.5-2.5c6.9,0.1,11.8-1.3,11.8-5.9c0-3-2.3-5-5.8-5c-6.2,0-10.2,5.9-10.2,11.3c0,4.4,2.4,7.4,7.4,7.4
			c2.2,0,4.6-0.5,6.3-1.4L89.6,36.2z M62.8,28.8h2c2.6,0,4.9,1,4.9,3.6c0,3.3-3,4.6-6.2,4.6c-0.8,0-1.6,0-2.3-0.1L62.8,28.8z
			 M64.8,18.9c0.4-0.1,1.3-0.2,2.3-0.2c2.4,0,3.9,0.9,3.9,2.9c0,2.5-2.3,4-5.5,4h-2L64.8,18.9z M56.5,40.1c1.2,0.2,3.2,0.4,5.8,0.4
			c3.8,0,6.8-0.6,8.8-2c1.8-1.3,3.2-3.2,3.2-5.9c0-2.8-1.7-4.7-4-5.4v-0.1c2.7-0.7,5.2-2.9,5.2-6c0-1.9-1-3.4-2.4-4.2
			c-1.5-1.1-3.4-1.5-6-1.5c-2.3,0-4.3,0.2-6,0.6L56.5,40.1z"/>
		<path class="st0" d="M306.3,34.4c1.6,0,2.7,1.2,2.7,2.8c0,1.5-1.1,2.8-2.7,2.8c-1.6,0-2.7-1.2-2.7-2.8
			C303.6,35.6,304.8,34.4,306.3,34.4 M306.3,33.6c-2.1,0-3.7,1.6-3.7,3.6c0,2,1.6,3.6,3.7,3.6c2.1,0,3.7-1.6,3.7-3.6
			C310,35.2,308.4,33.6,306.3,33.6 M305.8,36.1c0.1,0,0.2,0,0.4,0c0.4,0,0.7,0.2,0.7,0.5c0,0.3-0.3,0.5-0.7,0.5h-0.3V36.1z
			 M305.8,37.6h0.4c0.4,0,0.6,0.1,0.6,0.5c0.1,0.4,0.1,0.7,0.3,0.8h1c-0.1-0.1-0.1-0.3-0.2-0.8c-0.1-0.5-0.3-0.7-0.7-0.9v0
			c0.4-0.1,0.7-0.4,0.7-0.8c0-0.3-0.1-0.6-0.4-0.7c-0.2-0.2-0.6-0.3-1.3-0.3c-0.7,0-1.2,0.1-1.4,0.1v3.4h1V37.6z"/>
		<polygon class="st2" points="56.3,63 58.8,51.7 60.6,51.7 63.6,60.4 63.7,60.4 65.6,51.7 66.7,51.7 64.2,63 63.2,63 59.7,52.9 
			59.7,52.9 57.5,63 		"/>
		<path class="st2" d="M68.2,56.4c0.7-0.9,1.9-1.7,3.4-1.7c1.4,0,2.7,0.7,2.3,2.4L73,61.2c-0.2,0.9-0.2,1.3-0.2,1.8h-1.2l0.1-1.1
			c-0.7,0.6-1.7,1.3-3,1.3c-1.2,0-2.2-0.8-1.8-2.2c0.4-1.8,1.9-2.7,5.7-3.3l0.1-0.4c0.2-1.1-0.4-1.5-1.3-1.5c-1.2,0-2,0.7-2.4,1.3
			L68.2,56.4z M72.5,58.6c-2.7,0.5-4.1,1.2-4.4,2.3c-0.2,0.8,0.5,1.3,1.1,1.3c0.8,0,2-0.6,2.8-1.4L72.5,58.6z"/>
		<path class="st2" d="M77.1,54.8l0.6-2.7h1.1l-0.6,2.7h1.9l-0.2,1H78l-1.3,5.8c-0.1,0.4,0.1,0.6,0.8,0.6c0.4,0,0.7,0,1-0.1L78.4,63
			c-0.2,0.1-0.7,0.1-1.3,0.1c-1.2,0-1.7-0.3-1.4-1.3l1.3-6h-1.3l0.2-1H77.1z"/>
		<path class="st2" d="M82.3,54.8h1.1L81.6,63h-1.1L82.3,54.8z M84.2,51.5l-0.3,1.4h-1.1l0.3-1.4H84.2z"/>
		<path class="st2" d="M87.1,63.1c-2.2,0-2.9-1.9-2.4-4.2c0.5-2.4,2-4.2,4.2-4.2c2.2,0,2.9,1.9,2.4,4.2
			C90.8,61.3,89.3,63.1,87.1,63.1 M88.8,55.6c-1.3,0-2.5,1.2-2.9,3.3c-0.5,2.1,0.1,3.3,1.5,3.3c1.3,0,2.4-1.2,2.9-3.3
			C90.7,56.8,90.1,55.6,88.8,55.6"/>
		<path class="st2" d="M95.4,54.8l-0.2,1.1h0c0.8-0.7,1.7-1.3,2.7-1.3c1.2,0,2.2,0.6,1.8,2.4L98.3,63h-1.1l1.3-5.9
			c0.3-1.1-0.2-1.4-1-1.4c-0.8,0-2,0.7-2.6,1.2L93.6,63h-1.1l1.8-8.2H95.4z"/>
		<path class="st2" d="M102.1,56.4c0.7-0.9,1.9-1.7,3.4-1.7c1.4,0,2.7,0.7,2.3,2.4l-0.9,4.1c-0.2,0.9-0.2,1.3-0.2,1.8h-1.2l0.1-1.1
			c-0.7,0.6-1.7,1.3-3,1.3c-1.2,0-2.2-0.8-1.8-2.2c0.4-1.8,1.9-2.7,5.7-3.3l0.1-0.4c0.2-1.1-0.4-1.5-1.3-1.5c-1.2,0-2,0.7-2.4,1.3
			L102.1,56.4z M106.3,58.6c-2.7,0.5-4.1,1.2-4.4,2.3c-0.2,0.8,0.5,1.3,1.1,1.3c0.8,0,2-0.6,2.8-1.4L106.3,58.6z"/>
		<polygon class="st2" points="112.7,51.7 110.3,63 109.1,63 111.6,51.7 		"/>
		<path class="st2" d="M126.3,59.6c-1,2.1-2.4,3.5-4.7,3.5c-2.5,0-3.9-1.9-3-5.8c0.8-3.7,2.9-5.8,5.6-5.8c2.1,0,3,1.2,3.1,3.3
			l-1.2,0.3c-0.1-1.6-0.6-2.6-2.2-2.6c-1.6,0-3.2,1.5-3.9,4.8c-0.7,3.3,0.2,4.8,2.1,4.8c1.7,0,2.7-1.3,3.3-2.7L126.3,59.6z"/>
		<path class="st2" d="M130,63.1c-2.2,0-2.9-1.9-2.4-4.2c0.5-2.4,2-4.2,4.2-4.2c2.2,0,2.9,1.9,2.4,4.2
			C133.7,61.3,132.2,63.1,130,63.1 M131.7,55.6c-1.3,0-2.5,1.2-2.9,3.3c-0.5,2.1,0.1,3.3,1.5,3.3c1.3,0,2.4-1.2,2.9-3.3
			C133.6,56.8,133,55.6,131.7,55.6"/>
		<path class="st2" d="M140.1,63l0.2-1.1h0c-0.8,0.7-1.8,1.3-2.7,1.3c-1.2,0-2.2-0.6-1.8-2.4l1.3-5.9h1.1l-1.3,5.9
			c-0.2,1.1,0.2,1.4,1,1.4c0.8,0,1.9-0.7,2.6-1.2l1.3-6.1h1.1l-1.8,8.2H140.1z"/>
		<path class="st2" d="M146.9,54.8l-0.2,1.1h0c0.8-0.7,1.7-1.3,2.7-1.3c1.2,0,2.2,0.6,1.8,2.4l-1.3,5.9h-1.1l1.3-5.9
			c0.2-1.1-0.2-1.4-1-1.4c-0.8,0-2,0.7-2.6,1.2l-1.3,6.1H144l1.8-8.2H146.9z"/>
		<path class="st2" d="M158.4,57.3c-0.1-1-0.6-1.6-1.6-1.6c-1.4,0-2.5,1.2-2.9,3.3c-0.5,2.1,0.1,3.3,1.5,3.3c1,0,1.7-0.3,2.6-1.5
			l0.8,0.4c-1.1,1.4-2,2.1-3.6,2.1c-2,0-3-1.6-2.4-4.2c0.6-2.6,2.2-4.2,4.2-4.2c1.7,0,2.2,0.9,2.5,2.2L158.4,57.3z"/>
		<path class="st2" d="M162.5,54.8h1.1l-1.8,8.2h-1.1L162.5,54.8z M164.4,51.5l-0.3,1.4h-1.1l0.3-1.4H164.4z"/>
		<polygon class="st2" points="168.7,51.7 166.2,63 165,63 167.5,51.7 		"/>
		<path class="st2" d="M176.4,63.1c-2.2,0-2.9-1.9-2.4-4.2c0.5-2.4,2-4.2,4.2-4.2c2.2,0,2.9,1.9,2.4,4.2
			C180.1,61.3,178.6,63.1,176.4,63.1 M178.1,55.6c-1.3,0-2.5,1.2-2.9,3.3c-0.5,2.1,0.1,3.3,1.5,3.3c1.3,0,2.4-1.2,2.9-3.3
			C180,56.8,179.4,55.6,178.1,55.6"/>
		<path class="st2" d="M184.6,54.8l-0.2,1.1h0c0.8-0.7,1.7-1.3,2.7-1.3c1.2,0,2.2,0.6,1.8,2.4l-1.3,5.9h-1.1l1.3-5.9
			c0.3-1.1-0.2-1.4-1-1.4c-0.8,0-2,0.7-2.6,1.2l-1.3,6.1h-1.1l1.8-8.2H184.6z"/>
		<path class="st2" d="M194.2,63l6-11.3h1.9l1,11.3h-1.3l-0.3-3.5h-4l-1.8,3.5H194.2z M197.8,58.4h3.4l-0.3-5.8h-0.2L197.8,58.4z"/>
		<path class="st2" d="M212.4,55.6c-0.5,0-1,0.1-1.3,0.2c0.2,0.3,0.4,0.9,0.2,1.7c-0.4,1.6-2,2.9-3.6,2.9c-0.7,0-1-0.1-1.4-0.2
			c-0.5,0.1-0.7,0.4-0.8,0.8c-0.1,0.4,0.1,0.6,0.5,0.6c3.8,0,4.9,0.7,4.6,2.3c-0.3,1.2-1.7,2.2-4.2,2.2c-2.3,0-3.4-0.6-3.1-2
			c0.2-0.8,0.8-1.2,1.7-1.7c-0.6-0.2-0.9-0.7-0.8-1.2c0.2-0.7,0.7-1,1.4-1.4c-0.6-0.6-0.8-1.4-0.6-2.3c0.4-1.7,2-2.9,3.7-2.9
			c0.9,0,1.4,0.2,1.9,0.6c0.5-0.3,1.3-0.7,1.9-0.7L212.4,55.6z M207,62.6c-1.8,0-2.4,0.8-2.6,1.4c-0.1,0.6,0.1,1,2.4,1
			c1.3,0,2.5-0.4,2.7-1.2C209.7,63,209,62.6,207,62.6 M208.6,55.6c-1.3,0-2.2,0.8-2.4,1.9c-0.2,1.1,0.4,1.9,1.7,1.9
			c1.3,0,2.1-0.8,2.3-1.8C210.5,56.4,210,55.6,208.6,55.6"/>
		<path class="st2" d="M214.5,54.8h1.1l-1.8,8.2h-1.1L214.5,54.8z M216.4,51.5l-0.3,1.4h-1.1l0.3-1.4H216.4z"/>
		<path class="st2" d="M219.8,54.8l-0.2,1.1h0c0.8-0.7,1.7-1.3,2.7-1.3c1.2,0,2.2,0.6,1.8,2.4l-1.3,5.9h-1.1l1.3-5.9
			c0.2-1.1-0.2-1.4-1-1.4c-0.8,0-2,0.7-2.6,1.2L218,63h-1.1l1.8-8.2H219.8z"/>
		<path class="st2" d="M233.2,55.6c-0.5,0-1,0.1-1.3,0.2c0.2,0.3,0.4,0.9,0.2,1.7c-0.4,1.6-2,2.9-3.6,2.9c-0.7,0-1-0.1-1.4-0.2
			c-0.5,0.1-0.7,0.4-0.8,0.8c-0.1,0.4,0.1,0.6,0.5,0.6c3.8,0,4.9,0.7,4.6,2.3c-0.3,1.2-1.7,2.2-4.2,2.2c-2.3,0-3.4-0.6-3.1-2
			c0.2-0.8,0.8-1.2,1.7-1.7c-0.6-0.2-0.9-0.7-0.8-1.2c0.2-0.7,0.7-1,1.4-1.4c-0.6-0.6-0.8-1.4-0.6-2.3c0.4-1.7,2-2.9,3.7-2.9
			c0.9,0,1.5,0.2,1.9,0.6c0.5-0.3,1.3-0.7,1.9-0.7L233.2,55.6z M227.8,62.6c-1.8,0-2.4,0.8-2.6,1.4c-0.1,0.6,0.1,1,2.4,1
			c1.3,0,2.5-0.4,2.7-1.2C230.5,63,229.8,62.6,227.8,62.6 M229.4,55.6c-1.3,0-2.2,0.8-2.4,1.9c-0.2,1.1,0.4,1.9,1.7,1.9
			c1.3,0,2.1-0.8,2.3-1.8C231.3,56.4,230.8,55.6,229.4,55.6"/>
	</g>
	<g>
		<defs>
			<rect id="SVGID_1_" x="56.6" y="46.8" width="211.6" height="0.8"/>
		</defs>
		<clipPath id="SVGID_2_">
			<use xlink:href="#SVGID_1_"  style="overflow:visible;"/>
		</clipPath>
		<defs>
			<filter id="Adobe_OpacityMaskFilter" filterUnits="userSpaceOnUse" x="56.6" y="46.8" width="211.6" height="0.8">
				<feColorMatrix  type="matrix" values="1 0 0 0 0  0 1 0 0 0  0 0 1 0 0  0 0 0 1 0"/>
			</filter>
		</defs>
		<mask maskUnits="userSpaceOnUse" x="56.6" y="46.8" width="211.6" height="0.8" id="SVGID_3_">
			<g class="st3">
				
					<linearGradient id="SVGID_4_" gradientUnits="userSpaceOnUse" x1="152.4297" y1="664.4716" x2="153.1304" y2="664.4716" gradientTransform="matrix(302.0489 0 0 -302.0489 -45984.6641 200750.1406)">
					<stop  offset="0" style="stop-color:#FFFFFF"/>
					<stop  offset="0.94" style="stop-color:#FFFFFF"/>
					<stop  offset="1" style="stop-color:#000000"/>
				</linearGradient>
				<rect x="56.6" y="46.8" class="st4" width="211.6" height="0.8"/>
			</g>
		</mask>
		
			<linearGradient id="SVGID_5_" gradientUnits="userSpaceOnUse" x1="152.4318" y1="664.4733" x2="153.1325" y2="664.4733" gradientTransform="matrix(302.0488 0 0 -302.0488 -45985.2891 200750.5781)">
			<stop  offset="0" style="stop-color:#7BC043"/>
			<stop  offset="0.94" style="stop-color:#7BC043"/>
			<stop  offset="1" style="stop-color:#FFFFFF"/>
		</linearGradient>
		<rect x="56.6" y="46.8" class="st5" width="211.6" height="0.8"/>
	</g>
</g>
</svg>
