<?xml version="1.0" encoding="UTF-8" standalone="no"?>
<svg width="62px" height="51px" viewBox="0 0 62 51" version="1.1" xmlns="http://www.w3.org/2000/svg" xmlns:xlink="http://www.w3.org/1999/xlink">
    <!-- Generator: Sketch 44.1 (41455) - http://www.bohemiancoding.com/sketch -->
    <title>Group 2</title>
    <desc>Created with Sketch.</desc>
    <defs></defs>
    <g id="Report-Printing" stroke="none" stroke-width="1" fill="none" fill-rule="evenodd">
        <g id="Full-Benefits-Results---Printing-Options-Advanced-Copy-3" transform="translate(-179.000000, -928.000000)" fill-rule="nonzero">
            <g id="checkbox-copy-6" transform="translate(181.000000, 928.000000)">
                <g id="Group-2">
                    <rect id="Rectangle-path" stroke="#BCBCBC" stroke-width="3" x="0" y="5.7" width="49.2" height="43.1725963"></rect>
                    <path d="M59.2991652,0.473952365 L59.238223,0.473952365 C57.4709004,0.79522623 55.76452,1.24500964 54.1190817,1.75904782 C53.2658915,2.08032169 52.3517591,2.40159555 51.3157424,2.85137896 C50.7063208,3.10839805 50.0968992,3.36541714 49.4874776,3.62243623 C45.8309481,5.3573151 42.6619559,7.60623215 39.9195587,9.91940397 C35.5926655,13.7104356 31.9970781,18.2082697 29.254681,22.3848299 C27.3045319,25.3405495 25.6590936,28.2320142 24.4402504,30.6094408 C20.6008945,23.1558872 13.5925462,19.236346 13.5925462,19.236346 L11.8252236,21.9350465 L11.0329756,23.0916324 L8.9,26.2401163 C16.7615385,28.296269 23.7089445,40.6331854 23.7089445,40.6331854 L23.7698867,40.6974402 C24.0745975,41.018714 24.3183661,40.8902045 24.5011926,40.3761663 C24.8059034,39.7978734 25.049672,39.2195804 25.3543828,38.6412874 C25.5372093,38.2557588 25.7200358,37.9344849 25.9028623,37.5489563 C26.207573,36.9064086 26.5122838,36.2638608 26.8779368,35.6855679 C26.9998211,35.4928036 27.1217054,35.2357845 27.1826476,35.0430202 C27.3045319,34.7860011 27.4873584,34.528982 27.6092427,34.2077081 C29.9250447,29.5813645 32.5455575,25.2120399 35.409839,21.2924988 C41.8697078,12.3610853 49.7312463,5.42156987 59.238223,1.5662835 C60.2742397,1.11650009 60.2132976,0.409697592 59.2991652,0.473952365" id="Shape" fill="#0C4380"></path>
                </g>
            </g>
        </g>
    </g>
</svg>