<?xml version="1.0" ?><svg height="24px" version="1.1" viewBox="0 0 24 24" width="24px" xmlns="http://www.w3.org/2000/svg" xmlns:sketch="http://www.bohemiancoding.com/sketch/ns" xmlns:xlink="http://www.w3.org/1999/xlink"><title/><desc/><defs/><g fill="none" fill-rule="evenodd" id="miu" stroke="none" stroke-width="1"><g id="Artboard-1" transform="translate(-827.000000, -515.000000)"><g id="slice" transform="translate(215.000000, 119.000000)"/><path d="M829.128205,528.920385 C829.718324,529.326871 830.451527,529.714286 831.102564,529.714286 C832.472055,529.714286 833.259571,528 834.769231,528 C836.278891,528 837.272681,529.714286 838.717949,529.714286 C840.163216,529.714286 841.268284,528 842.666667,528 C844.065049,528 845.24675,529.714286 846.615385,529.714286 C847.317002,529.714286 848.188741,529.263772 848.871795,528.824647 L848.871795,526.008664 C848.871795,525.004332 848.307692,525.004332 848.307692,525.004332 L829.692308,525.004332 C829.692308,525.004332 829.128205,525.004332 829.128205,526.008664 L829.128205,528.920385 Z M828,528.5 L828,533.714286 C828,536 830.25641,536 830.25641,536 L847.74359,536 C847.74359,536 850,536 850,533.714286 L850,528.5 L850,526.008664 C850,524 848.307692,524 848.307692,524 L829.692308,524 C829.692308,524 828,524 828,526.008664 L828,528.5 Z M833,519.5 L833,523.5 L834,523.5 L834,519.5 L833,519.5 L833,519.5 Z M838.5,519.5 L838.5,523.5 L839.5,523.5 L839.5,519.5 L838.5,519.5 L838.5,519.5 Z M844,519.5 L844,523.5 L845,523.5 L845,519.5 L844,519.5 L844,519.5 Z M833.494687,518.999959 C834.003165,519.005491 834.315811,518.451344 833.494687,517.5 C832.68856,518.451344 832.999757,518.994574 833.494687,518.999959 L833.494687,518.999959 Z M838.994687,518.999959 C839.503165,519.005491 839.815811,518.451344 838.994687,517.5 C838.18856,518.451344 838.499757,518.994574 838.994687,518.999959 L838.994687,518.999959 Z M844.494687,518.999959 C845.003165,519.005491 845.315811,518.451344 844.494687,517.5 C843.68856,518.451344 843.999757,518.994574 844.494687,518.999959 L844.494687,518.999959 Z" fill="#000000" id="food-birthday-cake-party-candle-glyph"/></g></g></svg>