<?xml version="1.0" encoding="UTF-8"?>
<svg width="150px" height="150px" viewBox="0 0 150 150" version="1.1" xmlns="http://www.w3.org/2000/svg" xmlns:xlink="http://www.w3.org/1999/xlink">
    <!-- Generator: Sketch 47.1 (45422) - http://www.bohemiancoding.com/sketch -->
    <title>Artboard 4</title>
    <desc>Created with Sketch.</desc>
    <defs></defs>
    <g id="Page-1" stroke="none" stroke-width="1" fill="none" fill-rule="evenodd">
        <g id="Artboard-4">
            <g id="Group-3" transform="translate(2.500000, 2.500000)">
                <path d="M117.671701,80.6333333 C118.205034,79.8333333 119.538367,79.5666667 120.338367,80.1 C122.471701,81.4333333 126.471701,83.8333333 129.671701,83.8333333 C131.538367,83.8333333 133.405034,83.0333333 133.405034,81.7 C133.405034,76.9 112.871701,77.7 112.871701,63.5666667 C112.871701,56.9 117.405034,51.8333333 124.071701,49.9666667 C124.871701,49.7 125.405034,48.9 125.405034,48.1 L125.405034,44.3666667 C125.405034,43.3 126.205034,42.5 127.271701,42.5 L131.805034,42.5 C132.871701,42.5 133.671701,43.3 133.671701,44.3666667 L133.671701,47.5666667 C133.671701,48.6333333 134.471701,49.1666667 135.271701,49.4333333 C140.071701,50.2333333 143.271701,52.3666667 144.871701,53.4333333 C145.671701,53.9666667 145.938367,55.0333333 145.405034,55.8333333 L141.671701,63.0333333 C141.138367,64.1 139.805034,64.3666667 139.005034,63.8333333 C137.138367,62.5 133.671701,60.9 130.205034,60.9 C128.605034,60.9 126.738367,61.4333333 126.738367,63.0333333 C126.738367,68.3666667 147.271701,66.7666667 147.271701,80.9 C147.271701,87.3 143.005034,93.4333333 135.271701,95.3 C134.471701,95.5666667 133.671701,96.3666667 133.671701,97.1666667 L133.671701,100.633333 C133.671701,101.7 132.871701,102.5 131.805034,102.5 L127.271701,102.5 C126.205034,102.5 125.405034,101.7 125.405034,100.633333 L125.405034,97.1666667 C125.405034,96.3666667 124.871701,95.5666667 123.805034,95.3 C118.471701,94.2333333 115.005034,91.5666667 113.138367,90.2333333 C112.338367,89.7 112.338367,88.3666667 112.871701,87.5666667 L117.671701,80.6333333 Z" id="Shape" fill="#FDB82A" fill-rule="nonzero"></path>
                <g id="Group-6" transform="translate(37.500000, 0.000000)" fill="#3D9B79">
                    <path d="M15.8828478,14.6467309 L64.0023661,18.4669058 L64.0023661,18.4669058 C64.5529186,18.5106137 64.9637973,18.992357 64.9200893,19.5429095 C64.9173451,19.5774757 64.9128049,19.6118757 64.9064871,19.6459702 L61.5420148,37.8026023 L61.5420148,37.8026023 C61.4541912,38.2765493 61.0407688,38.6204013 60.5587535,38.6204013 L20.5868563,38.6204013 L20.5868563,38.6204013 C20.116522,38.6204013 19.7097559,38.2926433 19.6097315,37.833068 L14.8265827,15.856261 L14.8265827,15.856261 C14.7091302,15.3166099 15.0513897,14.7839221 15.5910409,14.6664696 C15.6868168,14.6456244 15.7851371,14.6389737 15.8828478,14.6467309 Z" id="Rectangle-16"></path>
                    <circle id="Oval-3" cx="50.6605351" cy="55.4765886" r="4.81605351"></circle>
                    <circle id="Oval-3" cx="28.9882943" cy="55.4765886" r="4.81605351"></circle>
                    <path d="M10.7064383,8.15272451 L19.0214959,46.3759018 C19.2714611,47.5249578 20.2884311,48.3444816 21.4643615,48.3444816 L57.8846154,48.3444816 C59.2653273,48.3444816 60.3846154,47.2251935 60.3846154,45.8444816 C60.3846154,44.4637697 59.2653273,43.3444816 57.8846154,43.3444816 L23.4789829,43.3444816 L15.2994324,5.74421124 C15.1171851,4.90644545 14.5183492,4.220505 13.7128485,3.92684843 L3.35628173,0.151216998 C2.0590847,-0.321694346 0.624128341,0.346521233 0.151216998,1.64371827 C-0.321694346,2.9409153 0.346521233,4.37587166 1.64371827,4.848783 L10.7064383,8.15272451 Z" id="Path-2" fill-rule="nonzero"></path>
                </g>
                <g id="category_medicine" transform="translate(0.800000, 45.000000)" fill-rule="nonzero">
                    <g id="Group">
                        <path d="M33.55,9.13 L33.55,52.14 C33.55,53.68 32.23,55 30.69,55 L6.6,55 C5.06,55 3.74,53.68 3.74,52.14 L3.74,9.13 L33.55,9.13 Z" id="Shape" fill="#218ADB"></path>
                        <path d="M33.88,9.13 L3.52,9.13 C1.76,9.13 0.33,7.7 0.33,5.94 L0.33,3.19 C0.33,1.43 1.76,0 3.52,0 L33.88,0 C35.64,0 37.07,1.43 37.07,3.19 L37.07,6.05 C36.96,7.7 35.64,9.13 33.88,9.13 Z" id="Shape" fill="#20407A"></path>
                        <path d="M21.3520445,49.5799401 C19.400972,50.8481372 16.6694706,50.1652619 15.4988271,48.2141894 L9.15784156,37.971059 C7.88964446,36.0199865 8.57251982,33.288485 10.5235923,32.1178416 C12.4746648,30.8496445 15.2061662,31.5325198 16.3768097,33.4835923 L20.5716155,40.3123459 L22.7177952,43.7267227 C23.1080097,44.3120445 23.3031169,44.9949198 23.3031169,45.6777952 C23.4006706,47.1410995 22.7177952,48.7019575 21.3520445,49.5799401 Z" id="Shape" fill="#FFFFFF" transform="translate(15.913089, 40.848891) rotate(-17.000000) translate(-15.913089, -40.848891) "></path>
                        <path d="M20.4152006,33.5942987 L20.4152006,33.5942987 C18.1990777,33.0161797 16.7537801,30.8000568 17.3318992,28.4875808 L20.0297879,16.9252006 C20.6079069,14.7090777 22.8240298,13.2637801 25.1365058,13.8418992 L25.1365058,13.8418992 C27.3526287,14.4200182 28.7979262,16.636141 28.2198072,18.9486171 L26.389097,26.6568706 L25.4255653,30.5109973 C25.232859,31.1854695 24.9437995,31.7635885 24.4620336,32.3417075 C23.498502,33.4015924 21.9568513,33.9797114 20.4152006,33.5942987 Z" id="Shape" fill="#FFFFFF"></path>
                    </g>
                </g>
                <g id="category_health" transform="translate(42.500000, 77.500000)" fill-rule="nonzero">
                    <g id="Group">
                        <g transform="translate(14.083333, 0.000000)" id="Shape">
                            <path d="M21.125,17.225 L21.125,12.7833333 C23.5083333,11.7 25.1333333,9.425 25.1333333,6.71666667 C25.025,3.03333333 22.1,0 18.4166667,0 C14.7333333,0 11.7,3.03333333 11.7,6.71666667 C11.7,9.425 13.325,11.8083333 15.7083333,12.7833333 L15.7083333,17.3333333 L15.7083333,22.5333333 L15.7083333,62.2916667 C15.7083333,63.8083333 16.9,65 18.4166667,65 C19.9333333,65 21.125,63.8083333 21.125,62.2916667 L21.125,22.5333333" fill="#203E7A"></path>
                            <path d="M36.5083333,31.4166667 C36.5083333,26.65 30.9833333,25.675 26.2166667,25.5666667 C24.5916667,25.5666667 23.1833333,26.8666667 23.1833333,28.4916667 C23.1833333,30.1166667 24.4833333,30.7666667 26.1083333,30.7666667 C27.4083333,30.7666667 28.925,31.0916667 29.9,31.4166667 C27.625,32.7166667 21.8833333,34.3416667 16.1416667,35.1 L16.0333333,35.1 C15.925,35.1 15.8166667,35.1 15.7083333,35.2083333 L15.7083333,34.2333333 C11.9166667,33.3666667 8.45,32.2833333 6.93333333,31.4166667 C7.90833333,31.0916667 9.425,30.7666667 10.725,30.7666667 C12.35,30.7666667 13.65,30.1166667 13.65,28.4916667 C13.65,26.8666667 12.2416667,25.5666667 10.6166667,25.5666667 C10.6166667,25.5666667 10.6166667,25.5666667 10.5083333,25.5666667 C5.74166667,25.675 0.216666667,26.65 0.216666667,31.4166667 C0.216666667,34.775 3.68333333,35.9666667 7.58333333,37.375 C5.30833333,38.7833333 3.46666667,40.0833333 3.46666667,42.9 C3.46666667,46.3666667 6.39166667,47.775 9.53333333,48.9666667 C8.45,50.2666667 8.125,51.5666667 8.125,52.65 C8.125,56.4416667 11.8083333,58.6083333 15.0583333,59.6916667 C15.6,60.3416667 16.4666667,60.775 17.3333333,60.775 C17.4416667,60.775 17.6583333,60.775 17.7666667,60.775 C18.3083333,60.6666667 19.7166667,60.45 21.2333333,60.0166667 L21.2333333,60.0166667 L21.9916667,59.8 C25.2416667,58.7166667 28.925,56.6583333 28.925,52.7583333 C28.925,51.675 28.6,50.375 27.5166667,49.075 C30.6583333,47.775 33.5833333,46.475 33.5833333,43.0083333 C33.5833333,40.1916667 31.7416667,38.8916667 29.4666667,37.4833333 C33.15,35.9666667 36.5083333,34.775 36.5083333,31.4166667 Z M18.4166667,54.4916667 C18.4166667,54.4916667 18.4166667,54.4916667 18.4166667,54.4916667 L18.4166667,54.4916667 C18.3083333,54.4916667 18.3083333,54.4916667 18.2,54.4916667 L16.7916667,54.8166667 C16.7916667,54.8166667 16.1416667,54.925 15.8166667,55.1416667 C15.8166667,55.1416667 15.8166667,55.1416667 15.8166667,55.1416667 L15.8166667,53.5166667 C15.1666667,53.1916667 14.625,52.8666667 14.3,52.65 C14.95,52.1083333 16.6833333,51.4583333 18.525,51.025 C18.525,51.025 18.525,51.025 18.525,51.025 L18.525,51.025 C18.525,51.025 18.525,51.025 18.525,51.025 L21.2333333,50.5916667 L21.2333333,51.8916667 C21.8833333,52.1083333 22.425,52.4333333 22.75,52.65 C21.9916667,53.3 20.2583333,54.0583333 18.4166667,54.4916667 Z M19.825,44.7416667 C19.7166667,44.7416667 19.0666667,44.85 17.9833333,45.0666667 C17.225,45.175 16.1416667,45.5 15.7083333,45.6083333 L15.7083333,44.525 C12.35,43.875 9.85833333,43.55 9.425,42.7916667 C9.64166667,41.925 13,40.8416667 17.1166667,40.1916667 C17.4416667,40.1916667 19.0666667,39.8666667 21.2333333,39.4333333 L21.2333333,40.4083333 C24.7,41.275 27.4083333,42.0333333 27.5166667,42.7916667 C26.975,43.6583333 23.8333333,44.2 19.825,44.7416667 Z" fill="#3D9B79"></path>
                        </g>
                        <path d="M52.7583333,13.4333333 C47.8833333,9.31666667 39.8666667,7.36666667 38.35,13.4333333 C37.5916667,16.25 36.4,17.1166667 35.3166667,17.3333333 L35.3166667,21.6666667 C42.6833333,27.3 47.45,23.725 47.5583333,23.725 C54.0583333,26 61.2083333,21.6666667 64.2416667,19.175 C64.7833333,18.7416667 64.5666667,17.875 63.8083333,17.7666667 C60.9916667,17.4416667 56.55,16.575 52.7583333,13.4333333 Z" id="Shape" fill="#218ADB"></path>
                        <path d="M12.2416667,13.4333333 C17.1166667,9.31666667 25.1333333,7.36666667 26.65,13.4333333 C27.4083333,16.25 28.6,17.1166667 29.6833333,17.3333333 L29.6833333,21.6666667 C22.3166667,27.3 17.55,23.725 17.4416667,23.725 C10.9416667,26 3.79166667,21.6666667 0.758333333,19.175 C0.216666667,18.7416667 0.433333333,17.875 1.19166667,17.7666667 C4.00833333,17.4416667 8.45,16.575 12.2416667,13.4333333 Z" id="Shape" fill="#218ADB"></path>
                    </g>
                </g>
            </g>
        </g>
    </g>
</svg>