<?xml version="1.0" encoding="utf-8"?>
<!-- Generator: Adobe Illustrator 19.1.0, SVG Export Plug-In . SVG Version: 6.00 Build 0)  -->
<svg version="1.1" id="Layer_1" xmlns="http://www.w3.org/2000/svg" xmlns:xlink="http://www.w3.org/1999/xlink" x="0px" y="0px"
	 viewBox="0 0 139.4 191" style="enable-background:new 0 0 139.4 191;" xml:space="preserve">
<style type="text/css">
	.st0{fill:#FDB82A;}
	.st1{fill:#F7D26B;}
	.st2{fill:#FFFFFF;}
	.st3{opacity:5.000000e-02;fill:#999999;enable-background:new    ;}
	.st4{fill:#E2E2E2;}
	.st5{fill:#CCCCCC;}
	.st6{fill:#3D9B79;}
	.st7{fill:#228ADB;}
	.st8{fill:#2D67BA;}
</style>
<g id="clipboard">
	<path class="st0" d="M131.5,15.7H104H35.4H7.9c-4.3,0-7.9,3.5-7.9,7.8v159.6c0,4.3,3.5,7.8,7.9,7.8h123.6c6.1,0,7.9-4.6,7.9-7.6
		V82.7V23.6C139.3,19.2,135.8,15.7,131.5,15.7z"/>
	<g>
		<path class="st1" d="M131.3,15.7h-27.5H35.3H7.8c-4.3,0-7.8,3.5-7.8,7.8v159.5c0,4.3,3.5,7.8,7.8,7.8h123.5c6.1,0,7.8-4.5,7.8-7.6
			V79.3V23.5C139.2,19.2,135.6,15.7,131.3,15.7z"/>
		<path class="st0" d="M131.3,15.7h-27.5H70.1v175.1h61.2c6.1,0,7.8-4.5,7.8-7.6V79.3V23.5C139.2,19.2,135.6,15.7,131.3,15.7z"/>
	</g>
	<path class="st2" d="M128.3,29.7c0-1.5-1.2-2.7-2.7-2.7H13.7c-1.5,0-2.7,1.2-2.7,2.7V177c0,1.5,1.2,2.7,2.7,2.7h111.8
		c1.5,0,2.7-1.2,2.7-2.7V29.7z"/>
	<g>
		<path class="st3" d="M70,27l0.1,152.8h55.4c1.5,0,2.7-1.2,2.7-2.7V29.7c0-1.5-1.2-2.7-2.7-2.7H70"/>
		<path class="st4" d="M103.7,31V19.9c0-4.5-3.7-8.2-8.2-8.2H81.8C81.8,5.3,76.5,0,70,0S58.3,5.3,58.3,11.7H43.5
			c-4.5,0-8.2,3.7-8.2,8.2V31H103.7z M70,15.3c-2,0-3.6-1.6-3.6-3.6s1.6-3.6,3.6-3.6c2,0,3.6,1.6,3.6,3.6S72,15.3,70,15.3z"/>
		<path class="st5" d="M95.5,11.7H81.8C81.8,5.3,76.5,0,70,0v8.1c2,0,3.6,1.6,3.6,3.6S72,15.3,70,15.3V31h33.7V19.9
			C103.7,15.4,100,11.7,95.5,11.7z"/>
	</g>
</g>
<g id="box_3">
	<g>
		<path class="st2" d="M23.3,166.4c-1,0-1.8-0.8-1.8-1.8v-20.7c0-1,0.8-1.8,1.8-1.8h20.7c1,0,1.8,0.8,1.8,1.8v20.7
			c0,1-0.8,1.8-1.8,1.8H23.3z"/>
		<g>
			<path class="st5" d="M43.9,143c0.5,0,0.9,0.4,0.9,0.9v20.7c0,0.5-0.4,0.9-0.9,0.9H23.3c-0.5,0-0.9-0.4-0.9-0.9v-20.7
				c0-0.5,0.4-0.9,0.9-0.9H43.9 M43.9,141.2H23.3c-1.5,0-2.7,1.2-2.7,2.7v20.7c0,1.5,1.2,2.7,2.7,2.7h20.7c1.5,0,2.7-1.2,2.7-2.7
				v-20.7C46.6,142.4,45.4,141.2,43.9,141.2L43.9,141.2z"/>
		</g>
	</g>
</g>
<g id="box_2">
	<g>
		<path class="st2" d="M23.3,131.1c-1,0-1.8-0.8-1.8-1.8v-20.7c0-1,0.8-1.8,1.8-1.8h20.7c1,0,1.8,0.8,1.8,1.8v20.7
			c0,1-0.8,1.8-1.8,1.8H23.3z"/>
		<g>
			<path class="st5" d="M43.9,107.7c0.5,0,0.9,0.4,0.9,0.9v20.7c0,0.5-0.4,0.9-0.9,0.9H23.3c-0.5,0-0.9-0.4-0.9-0.9v-20.7
				c0-0.5,0.4-0.9,0.9-0.9H43.9 M43.9,105.9H23.3c-1.5,0-2.7,1.2-2.7,2.7v20.7c0,1.5,1.2,2.7,2.7,2.7h20.7c1.5,0,2.7-1.2,2.7-2.7
				v-20.7C46.6,107.2,45.4,105.9,43.9,105.9L43.9,105.9z"/>
		</g>
	</g>
</g>
<g id="box_1">
	<g>
		<path class="st2" d="M23.3,95.4c-1,0-1.8-0.8-1.8-1.8V72.9c0-1,0.8-1.8,1.8-1.8h20.7c1,0,1.8,0.8,1.8,1.8v20.7
			c0,1-0.8,1.8-1.8,1.8H23.3z"/>
		<g>
			<path class="st5" d="M43.9,72c0.5,0,0.9,0.4,0.9,0.9v20.7c0,0.5-0.4,0.9-0.9,0.9H23.3c-0.5,0-0.9-0.4-0.9-0.9V72.9
				c0-0.5,0.4-0.9,0.9-0.9H43.9 M43.9,70.2H23.3c-1.5,0-2.7,1.2-2.7,2.7v20.7c0,1.5,1.2,2.7,2.7,2.7h20.7c1.5,0,2.7-1.2,2.7-2.7
				V72.9C46.6,71.4,45.4,70.2,43.9,70.2L43.9,70.2z"/>
		</g>
	</g>
</g>
<g id="check_3">
	<g>
		<path class="st6" d="M51.4,144.7c0,0.4-0.2,0.9-0.5,1.2l-12.6,12.6l-2.4,2.4c-0.3,0.3-0.7,0.5-1.2,0.5s-0.9-0.2-1.2-0.5l-2.4-2.4
			l-6.3-6.3c-0.3-0.3-0.5-0.7-0.5-1.2s0.2-0.9,0.5-1.2l2.4-2.4c0.3-0.3,0.7-0.5,1.2-0.5c0.4,0,0.9,0.2,1.2,0.5l5.1,5.2l11.4-11.5
			c0.3-0.3,0.7-0.5,1.2-0.5s0.9,0.2,1.2,0.5l2.4,2.4C51.2,143.9,51.4,144.3,51.4,144.7z"/>
	</g>
</g>
<g id="check_2">
	<g>
		<path class="st6" d="M51.4,111.1c0,0.4-0.2,0.9-0.5,1.2l-12.6,12.6l-2.4,2.4c-0.3,0.3-0.7,0.5-1.2,0.5s-0.9-0.2-1.2-0.5l-2.4-2.4
			l-6.3-6.3c-0.3-0.3-0.5-0.7-0.5-1.2c0-0.4,0.2-0.9,0.5-1.2l2.4-2.4c0.3-0.3,0.7-0.5,1.2-0.5c0.4,0,0.9,0.2,1.2,0.5l5.1,5.2
			l11.4-11.5c0.3-0.3,0.7-0.5,1.2-0.5s0.9,0.2,1.2,0.5l2.4,2.4C51.2,110.2,51.4,110.6,51.4,111.1z"/>
	</g>
</g>
<g id="check_1">
	<g>
		<path class="st6" d="M51.4,73.8c0,0.4-0.2,0.9-0.5,1.2L38.3,87.6L35.9,90c-0.3,0.3-0.7,0.5-1.2,0.5s-0.9-0.2-1.2-0.5l-2.4-2.4
			l-6.3-6.3c-0.3-0.3-0.5-0.7-0.5-1.2c0-0.4,0.2-0.9,0.5-1.2l2.4-2.4c0.3-0.3,0.7-0.5,1.2-0.5c0.4,0,0.9,0.2,1.2,0.5l5.1,5.2
			l11.4-11.5c0.3-0.3,0.7-0.5,1.2-0.5s0.9,0.2,1.2,0.5l2.4,2.4C51.2,72.9,51.4,73.3,51.4,73.8z"/>
	</g>
</g>
<g id="text_3">
	<rect x="54.4" y="148.6" class="st4" width="60.7" height="11.2"/>
	<rect x="70.1" y="148.6" class="st5" width="44.9" height="11.2"/>
</g>
<g id="text_2">
	<rect x="54.4" y="113.4" class="st4" width="60.7" height="11.2"/>
	<rect x="70.1" y="113.4" class="st5" width="44.9" height="11.2"/>
</g>
<g id="Text_1">
	<rect x="54.4" y="77.6" class="st4" width="60.7" height="11.2"/>
	<rect x="70.1" y="77.6" class="st5" width="44.9" height="11.2"/>
</g>
<g id="User">
	<g>
		<path class="st7" d="M70.5,36.4c-7.9-0.1-14.4,6.2-14.5,14.1c-0.1,5,2.4,9.5,6.3,12.1C62.1,61.8,62,61,62,60.1
			c0-3.4,2.2-6.3,5.2-7.5c-1.4-1-2.3-2.6-2.2-4.4c0-3.2,2.8-5.7,6.1-5.3c2.4,0.3,4.4,2.3,4.7,4.7c0.2,2.1-0.8,4-2.4,5.1
			c3,1.3,5,4.2,4.9,7.6c0,0.9-0.2,1.8-0.5,2.7c4-2.5,6.8-6.9,6.9-12C84.7,43.1,78.4,36.6,70.5,36.4z"/>
		<path class="st8" d="M70.1,36.4v6.4c0.3,0,0.6,0,0.9,0c2.4,0.3,4.4,2.3,4.7,4.7c0.2,2.1-0.8,4-2.4,5.1c3,1.3,5,4.2,4.9,7.6
			c0,0.9-0.2,1.8-0.5,2.7c4-2.5,6.8-6.9,6.9-12C84.7,43.1,78,36.6,70.1,36.4z"/>
	</g>
</g>
</svg>
