<?xml version="1.0" encoding="utf-8"?>
<!-- Generator: Adobe Illustrator 19.1.0, SVG Export Plug-In . SVG Version: 6.00 Build 0)  -->
<svg version="1.1" id="Layer_1" xmlns="http://www.w3.org/2000/svg" xmlns:xlink="http://www.w3.org/1999/xlink" x="0px" y="0px"
	 viewBox="0 0 150 87" style="enable-background:new 0 0 150 87;" xml:space="preserve">
<style type="text/css">
	.st0{fill-rule:evenodd;clip-rule:evenodd;fill:#F4640A;}
	.st1{fill-rule:evenodd;clip-rule:evenodd;fill:#F6833B;}
	.st2{opacity:0.5;fill:#6D2404;}
</style>
<path class="st0" d="M10,0h130c5.5,0,10,4.5,10,10v67c0,5.5-4.5,10-10,10H10C4.5,87,0,82.5,0,77V10C0,4.5,4.5,0,10,0L10,0z"/>
<path class="st1" d="M150,44V10c0-5.5-4.5-10-10-10H10C4.5,0,0,4.5,0,10v34H150L150,44z"/>
<rect x="100" y="0" class="st2" width="1" height="87"/>
<rect x="49" y="0" class="st2" width="1" height="87"/>
</svg>
