<svg id="Layer_1" xmlns="http://www.w3.org/2000/svg" width="274.2" height="94.9" viewBox="0 0 274.2 94.9"><style>.st0{fill:#00468A;} .st1{fill:#FCB913;}</style><path class="st0" d="M17.6 17.7h11.1v4.2h.1c1.2-1.9 3.7-5.6 10.8-5.6 3.8 0 8 1.6 10.2 3.4 2.1 1.9 4.6 5 4.6 12.8v24.8H42.5V35.7c0-2.8 0-8.2-6.2-8.2-6.8 0-6.8 5.9-6.8 8.3v21.6H17.6V17.7z"/><path class="st0" d="M93.1 42.3C91 51.3 83 58.6 72.3 58.6c-12 0-21.2-9.4-21.2-21.2 0-11.7 9.1-21.1 20.9-21.1 10.5 0 19 6.9 21 16.7H81c-1.3-2.7-3.6-5.6-8.6-5.6-5.6-.3-9.4 4.4-9.4 10.1 0 5.8 3.8 10.1 9.4 10.1 4.9 0 7.3-2.9 8.6-5.3h12.1z"/><path class="st0" d="M109.8 16.4c14.4 0 21.4 11.4 21.4 21.1 0 9.7-6.9 21.1-21.4 21.1-14.4 0-21.4-11.4-21.4-21.1.1-9.7 7-21.1 21.4-21.1m0 31.1c5.1 0 9.5-4.2 9.5-10s-4.4-10-9.5-10-9.5 4.2-9.5 10 4.4 10 9.5 10"/><path class="st1" d="M169.7 57.3h-11.9V53h-.1c-2 3.9-6.9 5.6-11.6 5.6-12.6 0-19.9-9.9-19.9-21.2 0-13 9.4-21.2 19.9-21.2 6.5 0 10.1 3.1 11.6 5.6h.1v-4.2h11.9v39.7zm-21.8-9.7c7.4 0 9.9-6.3 9.9-10.2 0-4.8-3.3-10.1-10-10.1-6.8 0-9.8 5.7-9.8 10.2.1 3.8 2.8 10.1 9.9 10.1"/><path class="st0" d="M17.6 64.9h2l8.3 12.3V64.9h1.5v14.8h-1.5l-8.8-13v13h-1.5zM37.2 78.7c2.4 0 4.4-1.9 4.4-4.5 0-2.4-1.9-4.5-4.4-4.5-2.4 0-4.5 1.7-4.5 4.5 0 2.5 1.8 4.5 4.5 4.5m5.7 1h-1.4v-1.9c-1.2 1.8-3.1 2.2-4.3 2.2-3.4 0-5.9-2.6-5.9-5.8 0-2.9 2.3-5.7 5.9-5.7 1.2 0 3.1.4 4.3 2.2v-1.9h1.4v10.9zM46.2 70h-2.3v-1.2h2.3v-3.9h1.4v3.9h2.6V70h-2.6v9.7h-1.4zM51.2 68.8h1.4v10.9h-1.4V68.8zm0-3.9h1.4v2.5h-1.4v-2.5zM60 78.7c2.1 0 4.3-1.7 4.3-4.5 0-2.9-2.4-4.4-4.3-4.4-2 0-4.3 1.6-4.3 4.5 0 2.5 2 4.4 4.3 4.4m0-10.2c3.2 0 5.7 2.7 5.7 5.7s-2.5 5.7-5.7 5.7-5.7-2.7-5.7-5.7c0-3.4 2.8-5.7 5.7-5.7M67.4 68.8h1.4v1.4c.4-.7 1.5-1.7 3.4-1.7 1.3 0 2.5.3 3.5 1.3.8.8 1.4 2.1 1.4 3.9v6h-1.4v-6c0-1.4-.4-2.4-1-3-.8-.7-1.8-.9-2.4-.9-.6 0-1.6.2-2.4.9-.6.6-1 1.6-1 3v6h-1.4V68.8zM84.5 78.7c2.4 0 4.4-1.9 4.4-4.5 0-2.4-1.9-4.5-4.4-4.5-2.4 0-4.5 1.7-4.5 4.5 0 2.5 1.8 4.5 4.5 4.5m5.7 1h-1.4v-1.9c-1.2 1.8-3.1 2.2-4.3 2.2-3.4 0-5.9-2.6-5.9-5.8 0-2.9 2.3-5.7 5.9-5.7 1.2 0 3.1.4 4.3 2.2v-1.9h1.4v10.9zM92.3 64.9h1.4v14.8h-1.4zM114.9 75.8c-1.6 2.9-4.4 4.1-6.8 4.1-4.1 0-7.7-3.3-7.7-7.6 0-4.4 3.5-7.7 7.7-7.7 3.8 0 6.2 2.7 6.8 4h-1.7c-1.6-2.4-4.2-2.7-5.1-2.7-3.5 0-6.2 3-6.2 6.3 0 3.5 3 6.3 6.2 6.3.7 0 3.2-.1 5.2-2.8h1.6zM121.9 78.7c2.1 0 4.3-1.7 4.3-4.5 0-2.9-2.4-4.4-4.3-4.4-2 0-4.3 1.6-4.3 4.5 0 2.5 2 4.4 4.3 4.4m0-10.2c3.2 0 5.7 2.7 5.7 5.7s-2.5 5.7-5.7 5.7-5.7-2.7-5.7-5.7c0-3.4 2.8-5.7 5.7-5.7M138.7 79.7h-1.3V78c-.4.8-1.5 2-3.5 2-2.2 0-3.3-1-3.8-1.6-.8-1-1-2.4-1-3.5v-6h1.4v6c0 1.4.3 2.3.8 2.9.8.9 1.8 1 2.5 1 .8 0 1.6-.2 2.3-.9.6-.6 1.1-1.4 1.1-3.3v-5.8h1.4v10.9zM140.9 68.8h1.4v1.4c.4-.7 1.5-1.7 3.4-1.7 1.3 0 2.5.3 3.5 1.3.8.8 1.4 2.1 1.4 3.9v6h-1.4v-6c0-1.4-.4-2.4-1-3-.8-.7-1.8-.9-2.4-.9-.6 0-1.6.2-2.4.9-.6.6-1 1.6-1 3v6H141V68.8zM163.5 76.5c-.7 1.4-2.2 3.5-5.4 3.5-3.4 0-5.9-2.7-5.9-5.7 0-3.2 2.6-5.8 5.9-5.8 1.9 0 4.4 1 5.4 3.6H162c-.9-1.7-2.5-2.3-3.9-2.3-2.1 0-4.5 1.6-4.5 4.5 0 2.5 1.9 4.5 4.5 4.5 2.3 0 3.4-1.4 3.9-2.2h1.5zM165.1 68.8h1.4v10.9h-1.4V68.8zm0-3.9h1.4v2.5h-1.4v-2.5zM168.6 64.9h1.4v14.8h-1.4z"/><g><path class="st0" d="M182.4 78.7c2.1 0 4.3-1.7 4.3-4.5 0-2.9-2.4-4.4-4.3-4.4-2 0-4.3 1.6-4.3 4.5 0 2.5 2.1 4.4 4.3 4.4m0-10.2c3.2 0 5.7 2.7 5.7 5.7s-2.5 5.7-5.7 5.7-5.7-2.7-5.7-5.7c0-3.4 2.8-5.7 5.7-5.7M189.8 68.8h1.4v1.4c.4-.7 1.5-1.7 3.4-1.7 1.3 0 2.5.3 3.5 1.3.8.8 1.4 2.1 1.4 3.9v6H198v-6c0-1.4-.4-2.4-1-3-.8-.7-1.8-.9-2.4-.9-.6 0-1.6.2-2.4.9-.6.6-1 1.6-1 3v6h-1.4V68.8z"/></g><path class="st0" d="M209.3 73.4h5.7l-2.8-6.8-2.9 6.8zm2.1-8.5h1.7l6.4 14.8h-1.6l-2.1-5h-6.9l-2.2 5h-1.5l6.2-14.8z"/><g><path class="st0" d="M225.6 78.7c2.9 0 4.3-2.6 4.3-4.5 0-2.4-1.9-4.5-4.3-4.5-2.5 0-4.3 2.1-4.3 4.5s1.9 4.5 4.3 4.5m5.7-.7c0 1.2 0 2.7-1 4-1.4 1.9-3.9 2-4.3 2-1.6 0-4.6-.6-5.6-4h1.5c.4.9 1.4 2.8 4.1 2.8 1.8 0 4-1.1 4-4.1v-1c-.8 1.6-2.6 2.3-4.2 2.3-2.9 0-5.7-2.2-5.7-5.7s2.8-5.8 5.7-5.8c1 0 3 .3 4.2 2.2v-2h1.4V78z"/></g><path class="st0" d="M233.5 68.8h1.4v10.9h-1.4V68.8zm0-3.9h1.4v2.5h-1.4v-2.5z"/><g><path class="st0" d="M237 68.8h1.4v1.4c.4-.7 1.5-1.7 3.4-1.7 1.3 0 2.5.3 3.5 1.3.8.8 1.4 2.1 1.4 3.9v6h-1.4v-6c0-1.4-.4-2.4-1-3-.8-.7-1.8-.9-2.4-.9-.6 0-1.6.2-2.4.9-.6.6-1 1.6-1 3v6H237V68.8zM253.9 78.7c2.9 0 4.3-2.6 4.3-4.5 0-2.4-1.9-4.5-4.3-4.5-2.5 0-4.3 2.1-4.3 4.5-.1 2.4 1.8 4.5 4.3 4.5m5.6-.7c0 1.2 0 2.7-1 4-1.4 1.9-3.9 2-4.3 2-1.6 0-4.6-.6-5.6-4h1.5c.4.9 1.4 2.8 4.1 2.8 1.8 0 4-1.1 4-4.1v-1c-.8 1.6-2.6 2.3-4.2 2.3-2.9 0-5.7-2.2-5.7-5.7s2.8-5.8 5.7-5.8c1 0 3 .3 4.2 2.2v-2h1.4V78z"/></g></svg>