<?xml version="1.0" encoding="UTF-8" standalone="no"?>
<svg width="171px" height="47px" viewBox="0 0 171 47" version="1.1" xmlns="http://www.w3.org/2000/svg" xmlns:xlink="http://www.w3.org/1999/xlink">
    <!-- Generator: Sketch 46.1 (44463) - http://www.bohemiancoding.com/sketch -->
    <title>National Center Logo_Master_rgb-01 (1)</title>
    <desc>Created with Sketch.</desc>
    <defs></defs>
    <g id="Consumer-Site" stroke="none" stroke-width="1" fill="none" fill-rule="evenodd">
        <g id="Medicare-RX-Extra-Help-pg6" transform="translate(-486.000000, -38.000000)" fill-rule="nonzero">
            <g id="National-Center-Logo_Master_rgb-01-(1)" transform="translate(486.000000, 38.000000)">
                <path d="M1.00588235,0.960556632 L8.89070836,0.960556632 L8.89070836,3.96356 L8.99186072,3.96356 C9.85671334,2.58844734 11.6369948,0 16.674382,0 C19.3700923,0 22.3743172,1.11727903 23.9017177,2.44183607 C25.4291183,3.76639311 27.1588235,5.98072892 27.1588235,11.5418463 L27.1588235,29.1705882 L18.712602,29.1705882 L18.712602,13.7612376 C18.712602,11.7794576 18.712602,7.91195331 14.2871865,7.91195331 C9.45210393,7.91195331 9.45210393,12.0827913 9.45210393,13.8117933 L9.45210393,29.1705882 L1.00588235,29.1705882 L1.00588235,0.960556632 Z" id="Shape" fill="#223E7C"></path>
                <path d="M55.3235294,18.5523707 C53.4902789,26.0184587 46.362624,30.9575997 38.6959432,30.0745324 C31.0292625,29.1914651 25.2218506,22.762431 25.1482558,15.0767078 C25.0975107,11.080552 26.6621049,7.23186118 29.4900881,4.39638585 C32.3180712,1.56091051 36.1719725,-0.0232493465 40.1848691,0.000257931652 C47.7312387,0.000257931652 53.8387468,4.9596833 55.272506,11.911009 L46.6495414,11.911009 C45.7260168,9.96992246 44.0320379,7.92212694 40.4910099,7.92212694 C36.4346449,7.7188718 33.7150945,11.0420933 33.7150945,15.1275216 C33.7150945,19.2129499 36.4346449,22.3278349 40.4910099,22.3278349 C44.0320379,22.3278349 45.7260168,20.2952835 46.6495414,18.5472893 L55.3235294,18.5523707 Z" id="Shape" fill="#223E7C"></path>
                <path d="M67.3916092,22.2534943 C71.0238228,22.2534943 74.1041807,19.2327961 74.1041807,15.0933206 C74.1041807,10.9538452 71.0238228,7.93314697 67.3916092,7.93314697 C63.7593956,7.93314697 60.6790377,10.9487599 60.6790377,15.0933206 C60.6790377,19.2378814 63.7343113,22.2534943 67.3916092,22.2534943 M67.3916092,1.80667947e-15 C77.5858882,1.80667947e-15 82.4823529,8.13656099 82.4823529,15.0882353 C82.4823529,22.0399096 77.5858882,30.1764706 67.3916092,30.1764706 C57.1973302,30.1764706 52.3058824,22.0399096 52.3058824,15.0882353 C52.3058824,8.13656099 57.2123808,0 67.3916092,0" id="Shape" fill="#223E7C"></path>
                <path d="M94.5266694,22.2693753 C100.022734,22.2693753 101.882779,17.7922292 101.882779,15.0452345 C101.882779,11.6355209 99.4500086,7.87168286 94.4846344,7.87168286 C89.5192602,7.87168286 87.2231031,11.9390563 87.2231031,15.1261772 C87.2231031,17.7719935 89.2302702,22.2491396 94.5161606,22.2491396 L94.5266694,22.2693753 Z M110.647059,29.1899808 L101.872271,29.1899808 L101.872271,26.1546275 L101.767183,26.1546275 C100.290707,28.9016222 96.6389238,30.1764706 93.2078239,30.1764706 C83.9023449,30.1764706 78.4588235,23.1546867 78.4588235,15.0604112 C78.4588235,5.79752478 85.3840756,0 93.2078239,0 C98.0155672,0 100.711056,2.24110251 101.767183,3.96619496 L101.872271,3.96619496 L101.872271,0.961195207 L110.647059,0.961195207 L110.647059,29.1899808 Z" id="Shape" fill="#F7BF17"></path>
                <path d="M10.0588235,43.269239 C8.94666939,45.5379924 6.45321969,46.71786 4.04796891,46.1134963 C1.64271813,45.5091326 -0.0362178266,43.2808761 0.000628395333,40.7419317 C-0.021311022,39.2778082 0.532027575,37.8661734 1.5360545,36.8248711 C2.54008142,35.7835688 3.91039772,35.2001312 5.33846305,35.2059251 C7.31054828,35.2009942 9.11939222,36.3283736 10.0231019,38.1256715 L8.87490609,38.1256715 C8.07631758,36.9047608 6.73645509,36.1726977 5.30274141,36.1739414 C2.90515457,36.257229 1.00351574,38.2742764 1.00351574,40.7340829 C1.00351574,43.1938894 2.90515457,45.2109368 5.30274141,45.2942244 C6.74815545,45.2717351 8.08765632,44.5124001 8.87490609,43.269239 L10.0588235,43.269239 Z" id="Shape" fill="#223E7C"></path>
                <path d="M12.0966298,41.6120442 C12.2199099,43.1338219 13.4979795,44.3237405 15.0676397,44.3781376 C16.2847347,44.3966315 17.3858677,43.6791565 17.8305229,42.5779013 L18.8711568,42.5779013 C18.2558904,44.4171701 16.3433639,45.5374749 14.3826077,45.2071683 C12.4218515,44.8768617 11.0088491,43.1963425 11.0664022,41.263122 C11.0399663,39.0790816 12.8211111,37.2782446 15.0676397,37.2176471 C16.4911547,37.2271355 17.8016902,37.9728452 18.5069349,39.1746455 C18.9577522,39.9011063 19.1650382,40.7458099 19.1000963,41.5918168 L12.0966298,41.6120442 Z M18.111494,40.7422671 C17.9317961,39.2603512 16.6394112,38.1436438 15.1040619,38.1436438 C13.5687127,38.1436438 12.2763278,39.2603512 12.0966298,40.7422671 L18.111494,40.7422671 Z" id="Shape" fill="#223E7C"></path>
                <path d="M20.1176471,37.4240306 L21.1392604,37.4240306 L21.1392604,38.4261831 L21.1662872,38.4261831 C21.7152432,37.6443513 22.6445942,37.1891451 23.6257267,37.2215231 C24.5736936,37.1764256 25.4957921,37.5265762 26.1554359,38.1821356 C26.8621376,38.9379575 27.2208297,39.9360778 27.1500224,40.9497382 L27.1500224,45.2647059 L26.128409,45.2647059 L26.128409,40.9497382 C26.182022,40.1643274 25.907757,39.3907509 25.3662531,38.8000432 C24.3936649,37.9032728 22.8577884,37.9032728 21.8852003,38.8000432 C21.3430809,39.3896243 21.0738152,40.1656108 21.1392604,40.9497382 L21.1392604,45.2647059 L20.1176471,45.2647059 L20.1176471,37.4240306 Z" id="Shape" fill="#223E7C"></path>
                <polygon id="Shape" fill="#223E7C" points="29.997856 38.685133 28.1647059 38.685133 28.1647059 37.8288535 29.9919805 37.8288535 29.9919805 35.2058824 31.1083219 35.2058824 31.1083219 37.8288535 33.1941176 37.8288535 33.1941176 38.685133 31.1083219 38.685133 31.1083219 45.2647059 29.997856 45.2647059"></polygon>
                <path d="M35.2190244,41.6120442 C35.3433533,43.1394038 36.6337028,44.3312984 38.2136074,44.3781376 C39.4339477,44.3966315 40.5380168,43.6791565 40.9838576,42.5779013 L42.0272663,42.5779013 C41.4103594,44.4171701 39.4927333,45.5374749 37.5267488,45.2071683 C35.5607644,44.8768617 34.1439943,43.1963425 34.2017008,41.263122 C34.1751944,39.0790816 35.9610885,37.2782446 38.2136074,37.2176471 C39.6409181,37.2271355 40.954948,37.9728452 41.6620733,39.1746455 C42.1092577,39.9097367 42.3080893,40.7619748 42.230731,41.6120442 L35.2190244,41.6120442 Z M41.2499268,40.7422671 C41.0697497,39.2603512 39.7739187,38.1436438 38.2344756,38.1436438 C36.6950324,38.1436438 35.3992015,39.2603512 35.2190244,40.7422671 L41.2499268,40.7422671 Z" id="Shape" fill="#223E7C"></path>
                <path d="M43.2529412,37.4207767 L44.1863868,37.4207767 L44.1863868,38.5562193 L44.2110812,38.5562193 C44.6506402,37.446819 45.4803697,37.27494 46.2705882,37.2176471 L46.2705882,38.2593375 C45.6675453,38.282823 45.0992068,38.5627754 44.69509,39.0353969 C44.3620708,39.5032061 44.1880973,40.0756318 44.2012034,40.660434 L44.2012034,45.2647059 L43.2529412,45.2647059 L43.2529412,37.4207767 Z" id="Shape" fill="#223E7C"></path>
                <path d="M51.7418832,38.7990102 L50.2941176,38.7990102 L50.2941176,37.9575509 L51.7418832,37.9575509 C51.7733564,36.9419966 51.8803652,35.2348982 55.3235294,35.2058824 L55.3235294,36.0763575 C52.9063903,36.0763575 52.9378635,37.2805147 52.9378635,37.9575509 L55.3235294,37.9575509 L55.3235294,38.7990102 L52.9378635,38.7990102 L52.9378635,45.2647059 L51.7481779,45.2647059 L51.7418832,38.7990102 Z" id="Shape" fill="#223E7C"></path>
                <path d="M58.2296539,37.2192008 C59.8631537,37.1739354 61.3617803,38.1211397 62.0218097,39.6160262 C62.681839,41.1109128 62.3721532,42.8565153 61.2381743,44.0331349 C60.1041954,45.2097546 58.3711935,45.5836505 56.8529506,44.9792487 C55.3347077,44.374847 54.3328297,42.9122149 54.3177778,41.2781742 C54.3002956,39.0862579 56.038563,37.2826269 58.2296539,37.2192008 L58.2296539,37.2192008 Z M58.2296539,44.3782152 C59.8781296,44.2633385 61.1567031,42.8925779 61.1567031,41.2401214 C61.1567031,39.5876648 59.8781296,38.2169042 58.2296539,38.1020275 C56.5811782,38.2169042 55.3026046,39.5876648 55.3026046,41.2401214 C55.3026046,42.8925779 56.5811782,44.2633385 58.2296539,44.3782152 L58.2296539,44.3782152 Z" id="Shape" fill="#223E7C"></path>
                <path d="M63.3705882,37.4207767 L64.3025087,37.4207767 L64.3025087,38.5562193 L64.3320934,38.5562193 C64.7709343,37.446819 65.599308,37.27494 66.3882353,37.2176471 L66.3882353,38.2593375 C65.7844451,38.2814297 65.2150144,38.5615011 64.8103806,39.0353969 C64.4779055,39.5032061 64.3042163,40.0756318 64.317301,40.660434 L64.317301,45.2647059 L63.3853806,45.2647059 L63.3705882,37.4207767 Z" id="Shape" fill="#223E7C"></path>
                <path d="M71.4176471,35.2058824 L74.1850634,35.2058824 C77.6775428,35.2058824 77.8103788,37.4775 77.8103788,37.8864897 C77.811263,38.6970985 77.3642257,39.45623 76.6148549,39.9166556 C77.7431786,40.3187129 78.4761814,41.2985665 78.4579542,42.3804491 C78.4819622,43.2935598 78.0074962,44.16042 77.1849427,44.7062702 C76.2384863,45.1990289 75.5244929,45.2778703 74.2016679,45.2630876 L71.4342516,45.2630876 L71.4176471,35.2058824 Z M72.5246136,39.5470866 L73.9193914,39.5470866 C74.5710724,39.5985865 75.2266872,39.5001745 75.8233739,39.2612865 C76.3850314,38.9667403 76.7270001,38.4273749 76.7200167,37.847069 C76.7234385,37.4406559 76.5578313,37.0474881 76.2550908,36.7432895 C75.8233739,36.2948791 75.1481243,36.117486 74.0079487,36.117486 L72.5246136,36.117486 L72.5246136,39.5470866 Z M72.5246136,44.3662667 L74.0854364,44.3662667 C74.7974108,44.4087596 75.5115688,44.3198475 76.183138,44.1051046 C76.9227167,43.777122 77.3790078,43.0948203 77.3504101,42.359658 C77.3218124,41.6244957 76.8135952,40.9719321 76.050302,40.6902868 C75.3571241,40.4786066 74.6215363,40.3996847 73.8917173,40.4586902 L72.5301484,40.4586902 L72.5246136,44.3662667 Z" id="Shape" fill="#223E7C"></path>
                <path d="M80.4862373,41.6120442 C80.6102372,43.1394038 81.8971727,44.3312984 83.472897,44.3781376 C84.6881174,44.394509 85.7866238,43.6774046 86.2306142,42.5779013 L87.2712622,42.5779013 C86.6559875,44.4171701 84.7434352,45.5374749 82.7826525,45.2071683 C80.8218699,44.8768617 79.4088483,43.1963425 79.4664022,41.263122 C79.4399659,39.0790816 81.2211348,37.2782446 83.4676938,37.2176471 C84.8909348,37.2281713 86.2009952,37.9736007 86.9070354,39.1746455 C87.3575371,39.9012342 87.564801,40.7458369 87.5002048,41.5918168 L80.4862373,41.6120442 Z M86.5011827,40.7422671 C86.3214823,39.2603512 85.02908,38.1436438 83.49371,38.1436438 C81.95834,38.1436438 80.6659377,39.2603512 80.4862373,40.7422671 L86.5011827,40.7422671 Z" id="Shape" fill="#223E7C"></path>
                <path d="M88.5176471,37.4240306 L89.5376942,37.4240306 L89.5376942,38.4261831 L89.5646796,38.4261831 C90.1148507,37.6411438 91.0477348,37.1855083 92.0311429,37.2215231 C92.9776566,37.1764256 93.8983415,37.5265762 94.5569741,38.1821356 C95.2625925,38.9379575 95.6207346,39.9360778 95.5500359,40.9497382 L95.5500359,45.2647059 L94.5299887,45.2647059 L94.5299887,40.9497382 C94.5841234,40.1642507 94.310202,39.390457 93.7690011,38.8000432 C92.7990273,37.9005901 91.2632586,37.9005901 90.2932848,38.8000432 C89.7519965,39.3896243 89.4831435,40.1656108 89.5484884,40.9497382 L89.5484884,45.2647059 L88.5284412,45.2647059 L88.5176471,37.4240306 Z" id="Shape" fill="#223E7C"></path>
                <path d="M97.5810065,41.6120442 C97.7050031,43.1394038 98.9919037,44.3312984 100.567585,44.3781376 C101.784218,44.3951663 102.884557,43.6781988 103.330431,42.5779013 L104.371051,42.5779013 C103.755793,44.4171701 101.843292,45.5374749 99.8825627,45.2071683 C97.9218331,44.8768617 96.5088498,43.1963425 96.5664022,41.263122 C96.5399666,39.0790816 98.3210872,37.2782446 100.567585,37.2176471 C101.991081,37.2271355 103.301599,37.9728452 104.006834,39.1746455 C104.457968,39.900978 104.665276,40.745783 104.599987,41.5918168 L97.5810065,41.6120442 Z M103.595789,40.7422671 C103.416093,39.2603512 102.123726,38.1436438 100.588398,38.1436438 C99.0530694,38.1436438 97.760702,39.2603512 97.5810065,40.7422671 L103.595789,40.7422671 Z" id="Shape" fill="#223E7C"></path>
                <path d="M107.065413,38.7990102 L105.617647,38.7990102 L105.617647,37.9575509 L107.065413,37.9575509 C107.096886,36.9419966 107.203895,35.2348982 110.647059,35.2058824 L110.647059,36.0763575 C108.22992,36.0763575 108.261393,37.2805147 108.261393,37.9575509 L110.647059,37.9575509 L110.647059,38.7990102 L108.261393,38.7990102 L108.261393,45.2647059 L107.071707,45.2647059 L107.065413,38.7990102 Z" id="Shape" fill="#223E7C"></path>
                <path d="M109.641176,35.2058824 L110.647059,35.2058824 L110.647059,36.9184413 L109.641176,36.9184413 L109.641176,35.2058824 Z M109.641176,37.8288535 L110.647059,37.8288535 L110.647059,45.2647059 L109.641176,45.2647059 L109.641176,37.8288535 Z" id="Shape" fill="#223E7C"></path>
                <polygon id="Shape" fill="#223E7C" points="113.484495 38.685133 111.652941 38.685133 111.652941 37.8288535 113.484495 37.8288535 113.484495 35.2058824 114.597562 35.2058824 114.597562 37.8288535 116.682353 37.8288535 116.682353 38.685133 114.597562 38.685133 114.597562 45.2647059 113.484495 45.2647059"></polygon>
                <path d="M117.713603,42.8026506 C117.740818,44.2581789 118.802214,44.3697525 119.156013,44.3697525 C119.56442,44.4169144 119.973885,44.2900334 120.270631,44.0243652 C120.567378,43.758697 120.719788,43.3825492 120.685512,43.0004402 C120.685512,41.9506341 119.683989,41.7122723 119.07981,41.4789821 C118.252466,41.2152627 116.940689,40.794326 116.940689,39.3489408 C116.92226,38.7771506 117.158709,38.2237642 117.59387,37.8202271 C118.029032,37.4166901 118.624075,37.1990126 119.237659,37.2188994 C119.826591,37.2186525 120.39051,37.4407143 120.800749,37.8344186 C121.210988,38.2281229 121.432549,38.7598821 121.414881,39.3083686 L120.386144,39.3083686 C120.402404,38.9983331 120.283009,38.6954101 120.05526,38.4688684 C119.82751,38.2423267 119.510885,38.1115406 119.177785,38.1064167 C118.853517,38.105028 118.542256,38.2251336 118.313987,38.4397291 C118.085718,38.6543246 117.959598,38.9453998 117.963984,39.2475102 C117.963984,40.0589545 118.818543,40.3378885 119.406394,40.5204635 C120.348042,40.8146121 121.703363,41.3065502 121.703363,42.8888666 C121.761766,43.531247 121.513556,44.1649894 121.024827,44.6213361 C120.536098,45.0776829 119.856463,45.3103092 119.166899,45.2572697 C118.478653,45.2708442 117.816448,45.0121308 117.344417,44.5452536 C116.872385,44.0783765 116.634713,43.4470385 116.690308,42.8077222 L117.713603,42.8026506 Z" id="Shape" fill="#223E7C"></path>
                <path d="M130.16325,35.2058824 L131.329867,35.2058824 L135.794118,45.2647059 L134.658611,45.2647059 L133.154973,41.8789571 L128.327774,41.8789571 L126.813766,45.2647059 L125.735294,45.2647059 L130.16325,35.2058824 Z M128.716646,40.968545 L132.745361,40.968545 L130.754336,36.3475884 L128.716646,40.968545 Z" id="Shape" fill="#223E7C"></path>
                <path d="M142.835294,42.7497639 C142.046384,44.628546 139.930043,45.6486055 137.896379,45.1302823 C135.862714,44.6119592 134.546767,42.7171074 134.825344,40.7082559 C135.103922,38.6994045 136.890035,37.2038463 138.993607,37.2180633 C140.676923,37.1945492 142.202546,38.1691149 142.835294,39.6721268 L141.7496,39.6721268 C141.230358,38.6824321 140.175951,38.0596881 139.024925,38.0629049 C137.292412,38.1300348 135.923778,39.5027189 135.923778,41.1732292 C135.923778,42.8437396 137.292412,44.2164237 139.024925,44.2835536 C140.165397,44.3206246 141.226059,43.7215934 141.7496,42.7447351 L142.835294,42.7497639 Z" id="Shape" fill="#223E7C"></path>
                <path d="M151.888235,42.7749954 C151.127231,44.5504494 149.16806,45.5608236 147.210037,45.1876123 C145.252013,44.8144011 143.841176,43.1616824 143.841176,41.2411765 C143.841176,39.3206705 145.252013,37.6679519 147.210037,37.2947406 C149.16806,36.9215294 151.127231,37.9319036 151.888235,39.7073575 L150.801062,39.7073575 C150.281112,38.7176439 149.225268,38.094888 148.072674,38.0981048 C146.3378,38.165236 144.967302,39.5379463 144.967302,41.2084885 C144.967302,42.8790307 146.3378,44.251741 148.072674,44.3188722 C149.2147,44.355944 150.276807,43.7569014 150.801062,42.7800243 L151.888235,42.7749954 Z" id="Shape" fill="#223E7C"></path>
                <path d="M153.910418,41.6120442 C154.034415,43.1394038 155.321315,44.3312984 156.896997,44.3781376 C158.113629,44.3951663 159.213968,43.6781988 159.659843,42.5779013 L160.700463,42.5779013 C160.085204,44.4171701 158.172704,45.5374749 156.211974,45.2071683 C154.251245,44.8768617 152.838262,43.1963425 152.895814,41.263122 C152.869378,39.0790816 154.650499,37.2782446 156.896997,37.2176471 C158.320493,37.2271355 159.63101,37.9728452 160.336246,39.1746455 C160.787379,39.900978 160.994687,40.745783 160.929399,41.5918168 L153.910418,41.6120442 Z M159.925201,40.7422671 C159.745505,39.2603512 158.453138,38.1436438 156.91781,38.1436438 C155.382481,38.1436438 154.090114,39.2603512 153.910418,40.7422671 L159.925201,40.7422671 Z" id="Shape" fill="#223E7C"></path>
                <path d="M163.000081,42.8077222 C163.027296,44.2632504 164.088692,44.374824 164.442491,44.374824 C164.847503,44.4139859 165.250154,44.2827824 165.540698,44.0169742 C165.831243,43.7511659 165.979395,43.3784597 165.944775,43.0004402 C165.944775,41.9506341 164.943252,41.7122723 164.339073,41.4789821 C163.511728,41.2152627 162.199952,40.794326 162.199952,39.3489408 C162.181523,38.7771506 162.417971,38.2237642 162.853133,37.8202271 C163.288295,37.4166901 163.883338,37.1990126 164.496922,37.2188994 C165.085854,37.2186525 165.649772,37.4407143 166.060012,37.8344186 C166.470251,38.2281229 166.691812,38.7598821 166.674144,39.3083686 L165.645407,39.3083686 C165.663146,39.0000574 165.546635,38.6981173 165.322255,38.4709147 C165.097875,38.2437122 164.784605,38.1104656 164.453377,38.1013451 C164.12627,38.0971761 163.811327,38.2167601 163.580519,38.4327693 C163.349711,38.6487785 163.222765,38.9427522 163.22869,39.2475102 C163.22869,40.0589545 164.083249,40.3378885 164.671099,40.5204635 C165.612748,40.8146121 166.968069,41.3065502 166.968069,42.8888666 C167.026472,43.531247 166.778262,44.1649894 166.289533,44.6213361 C165.800804,45.0776829 165.121168,45.3103092 164.431605,45.2572697 C163.743359,45.2708442 163.081154,45.0121308 162.609122,44.5452536 C162.137091,44.0783765 161.899419,43.4470385 161.955014,42.8077222 L163.000081,42.8077222 Z" id="Shape" fill="#223E7C"></path>
                <path d="M167.03994,42.8042013 C167.067155,44.2588128 168.128551,44.3703161 168.48235,44.3703161 C168.887361,44.4094534 169.290013,44.2783325 169.580557,44.0126917 C169.871101,43.7470509 170.019253,43.3745794 169.984633,42.996798 C169.984633,41.9476531 168.983111,41.7094415 168.378932,41.4762981 C167.551587,41.2127448 166.23981,40.7920732 166.23981,39.3475984 C166.221382,38.7761683 166.45783,38.2231305 166.892992,37.8198476 C167.328153,37.4165647 167.923196,37.1990243 168.53678,37.2188987 C169.125713,37.2186518 169.689631,37.4405738 170.09987,37.8340301 C170.510109,38.2274864 170.731671,38.7589108 170.714003,39.3070517 L169.685265,39.3070517 C169.701526,38.9972116 169.58213,38.6944794 169.354381,38.4680804 C169.126632,38.2416813 168.810006,38.1109776 168.476907,38.1058569 C168.1498,38.1016905 167.834856,38.2211992 167.604048,38.4370723 C167.373241,38.6529455 167.246294,38.946734 167.252219,39.2513001 C167.252219,40.0622333 168.106779,40.3409916 168.694629,40.5234516 C169.636278,40.8174149 170.991599,41.3090432 170.991599,42.890363 C171.050002,43.5323388 170.801791,44.165682 170.313062,44.6217413 C169.824333,45.0778007 169.144698,45.3102805 168.455134,45.2572744 C167.766889,45.2708404 167.104683,45.0122899 166.632652,44.5457068 C166.16062,44.0791237 165.922948,43.4481833 165.978544,42.8092697 L167.03994,42.8042013 Z" id="Shape" fill="#223E7C"></path>
            </g>
        </g>
    </g>
</svg>