<?xml version="1.0" encoding="UTF-8" standalone="no"?>
<svg width="45px" height="45px" viewBox="0 0 45 45" version="1.1" xmlns="http://www.w3.org/2000/svg" xmlns:xlink="http://www.w3.org/1999/xlink">
    <!-- Generator: Sketch 46.1 (44463) - http://www.bohemiancoding.com/sketch -->
    <title>Combined Shape</title>
    <desc>Created with Sketch.</desc>
    <defs></defs>
    <g id="Consumer-Site" stroke="none" stroke-width="1" fill="none" fill-rule="evenodd">
        <g id="homepage--pg-3-" transform="translate(-151.000000, -1028.000000)" fill="#FFFFFF">
            <g id="reminder" transform="translate(0.000000, 984.000000)">
                <g id="Group-2" transform="translate(151.000000, 44.000000)">
                    <path d="M22.8730469,45 C10.6526681,45 0.74609375,35.0934256 0.74609375,22.8730469 C0.74609375,10.6526681 10.6526681,0.74609375 22.8730469,0.74609375 C35.0934256,0.74609375 45,10.6526681 45,22.8730469 C45,35.0934256 35.0934256,45 22.8730469,45 Z M21.03,16.89 L21.66,26.07 L24.54,26.07 L25.17,16.89 L25.32,12.9 L20.88,12.9 L21.03,16.89 Z M20.43,30.6 C20.43,31.3800039 20.6849975,32.0349973 21.195,32.565 C21.7050026,33.0950026 22.3399962,33.36 23.1,33.36 C23.8600038,33.36 24.4949975,33.0950026 25.005,32.565 C25.5150026,32.0349973 25.77,31.3800039 25.77,30.6 C25.77,29.799996 25.5150026,29.1350026 25.005,28.605 C24.4949975,28.0749973 23.8600038,27.81 23.1,27.81 C22.3399962,27.81 21.7050026,28.0749973 21.195,28.605 C20.6849975,29.1350026 20.43,29.799996 20.43,30.6 Z" id="Combined-Shape"></path>
                </g>
            </g>
        </g>
    </g>
</svg>