<?xml version="1.0" encoding="UTF-8" standalone="no"?>
<svg width="96px" height="88px" viewBox="0 0 96 88" version="1.1" xmlns="http://www.w3.org/2000/svg" xmlns:xlink="http://www.w3.org/1999/xlink">
    <!-- Generator: Sketch 45.2 (43514) - http://www.bohemiancoding.com/sketch -->
    <title>Artboard</title>
    <desc>Created with Sketch.</desc>
    <defs></defs>
    <g id="Page-1" stroke="none" stroke-width="1" fill="none" fill-rule="evenodd">
        <g id="Artboard">
            <g id="noun_1030735_cc" transform="translate(3.000000, 4.000000)">
                <g id="Group">
                    <path d="M4.78,53.232 C4.78,56.695 7.051,59.636 10.181,60.647 L10.181,45.818 C7.051,46.829 4.78,49.77 4.78,53.232 Z" id="Shape"></path>
                    <circle id="Oval" cx="45" cy="9.662" r="4.553"></circle>
                    <path d="M64.986,29.801 L25.015,29.801 C19.471,29.801 14.961,34.311 14.961,39.854 L14.961,64.839 C14.961,70.382 19.471,74.892 25.015,74.892 L64.986,74.892 C70.529,74.892 75.039,70.382 75.039,64.839 L75.039,39.854 C75.039,34.311 70.529,29.801 64.986,29.801 Z M27.569,54.178 C23.682,54.178 20.519,51.015 20.519,47.128 C20.519,43.24 23.682,40.077 27.569,40.077 C31.457,40.077 34.619,43.24 34.619,47.128 C34.62,51.015 31.457,54.178 27.569,54.178 Z M51.513,66.388 L38.488,66.388 C37.168,66.388 36.098,65.318 36.098,63.997 C36.098,62.678 37.168,61.608 38.488,61.608 L51.513,61.608 C52.832,61.608 53.902,62.678 53.902,63.997 C53.902,65.318 52.832,66.388 51.513,66.388 Z M62.431,54.178 C58.544,54.178 55.381,51.015 55.381,47.128 C55.381,43.24 58.544,40.077 62.431,40.077 C66.318,40.077 69.481,43.24 69.481,47.128 C69.481,51.015 66.318,54.178 62.431,54.178 Z" id="Shape"></path>
                    <path d="M79.818,45.818 L79.818,60.647 C82.948,59.636 85.219,56.695 85.219,53.232 C85.22,49.77 82.949,46.829 79.818,45.818 Z" id="Shape"></path>
                    <path d="M79.818,40.891 L79.818,39.854 C79.818,31.675 73.164,25.021 64.985,25.021 L47.39,25.021 L47.39,18.683 C51.382,17.624 54.333,13.981 54.333,9.662 C54.333,4.515 50.146,0.329 45,0.329 C39.854,0.329 35.667,4.515 35.667,9.662 C35.667,13.982 38.618,17.624 42.61,18.683 L42.61,25.021 L25.015,25.021 C16.835,25.021 10.181,31.675 10.181,39.854 L10.181,40.891 C4.389,42.01 0,47.119 0,53.232 C0,59.354 4.398,64.466 10.2,65.579 C10.587,73.414 17.084,79.671 25.015,79.671 L64.986,79.671 C72.917,79.671 79.413,73.414 79.801,65.579 C85.602,64.466 90,59.354 90,53.232 C90,47.119 85.611,42.01 79.818,40.891 Z M10.182,60.647 C7.052,59.636 4.781,56.695 4.781,53.232 C4.781,49.77 7.052,46.829 10.182,45.818 L10.182,60.647 Z M40.447,9.662 C40.447,7.151 42.49,5.109 45,5.109 C47.51,5.109 49.553,7.151 49.553,9.662 C49.553,12.173 47.51,14.214 45,14.214 C42.49,14.214 40.447,12.172 40.447,9.662 Z M75.039,64.839 C75.039,70.382 70.529,74.892 64.986,74.892 L25.015,74.892 C19.471,74.892 14.961,70.382 14.961,64.839 L14.961,39.854 C14.961,34.311 19.471,29.801 25.015,29.801 L64.986,29.801 C70.529,29.801 75.039,34.311 75.039,39.854 L75.039,64.839 L75.039,64.839 Z M79.818,60.647 L79.818,45.818 C82.948,46.829 85.219,49.77 85.219,53.232 C85.22,56.696 82.949,59.636 79.818,60.647 Z" id="Shape" fill="#FFFFFF" fill-rule="nonzero"></path>
                    <path d="M62.431,40.077 C58.544,40.077 55.381,43.24 55.381,47.128 C55.381,51.015 58.544,54.178 62.431,54.178 C66.318,54.178 69.481,51.015 69.481,47.128 C69.481,43.24 66.318,40.077 62.431,40.077 Z M62.431,49.398 C61.179,49.398 60.161,48.381 60.161,47.129 C60.161,45.877 61.179,44.858 62.431,44.858 C63.683,44.858 64.702,45.877 64.702,47.129 C64.702,48.38 63.683,49.398 62.431,49.398 Z" id="Shape" fill="#FFFFFF" fill-rule="nonzero"></path>
                    <path d="M27.569,40.077 C23.682,40.077 20.519,43.24 20.519,47.128 C20.519,51.015 23.682,54.178 27.569,54.178 C31.457,54.178 34.619,51.015 34.619,47.128 C34.62,43.24 31.457,40.077 27.569,40.077 Z M27.569,49.398 C26.317,49.398 25.299,48.381 25.299,47.129 C25.299,45.877 26.317,44.858 27.569,44.858 C28.821,44.858 29.84,45.877 29.84,47.129 C29.84,48.38 28.821,49.398 27.569,49.398 Z" id="Shape" fill="#FFFFFF" fill-rule="nonzero"></path>
                    <g id="Group-2" transform="translate(36.000000, 63.000000)" stroke="#FFFFFF" stroke-width="4" stroke-linecap="round" stroke-linejoin="round">
                        <path d="M0,0 C1.33333333,4 4.33333333,6 9,6" id="Path-2"></path>
                        <path d="M9,0 C10.3333333,4 13.3333333,6 18,6" id="Path-2-Copy" transform="translate(13.500000, 3.000000) scale(-1, 1) translate(-13.500000, -3.000000) "></path>
                    </g>
                </g>
            </g>
        </g>
    </g>
</svg>