<?xml version="1.0" encoding="utf-8"?>
<!-- Generator: Adobe Illustrator 19.1.0, SVG Export Plug-In . SVG Version: 6.00 Build 0)  -->
<svg version="1.1" id="Layer_1" xmlns="http://www.w3.org/2000/svg" xmlns:xlink="http://www.w3.org/1999/xlink" x="0px" y="0px"
	 viewBox="-449 251 60 60" style="enable-background:new -449 251 60 60;" xml:space="preserve">
<style type="text/css">
	.st0{fill:#3D9B79;}
	.st1{fill:#F37734;}
	.st2{fill:#218ADB;}
	.st3{fill:#FDB82A;}
	.st4{fill:#203E7A;}
</style>
<g>
	<g>
		<path class="st0" d="M-405,267.5c-0.4,1.3-1.7,2-2.8,1.7l0,0c-1.2-0.4-1.8-1.7-1.5-3l1.1-3.8c0.4-1.3,1.7-2,2.8-1.7l0,0
			c1.2,0.4,1.8,1.7,1.5,3L-405,267.5z"/>
		<g>
			<g>
				<path class="st0" d="M-401.4,259.6L-401.4,259.6c-1.2,3.9-4.9,5.1-4.9,5.1s-2.5-3.2-1.3-6.9l0,0l0,0c1.1-3.7,4.9-5.1,4.9-5.1
					S-400.3,255.9-401.4,259.6L-401.4,259.6z"/>
			</g>
			<g>
				<path class="st0" d="M-398.8,264.5L-398.8,264.5c-3.8,1.8-7.4,0.2-7.4,0.2s0.6-3.6,4.2-5.4l0,0l0,0c3.6-1.7,7.4-0.2,7.4-0.2
					S-395.2,262.8-398.8,264.5L-398.8,264.5z"/>
				<path class="st0" d="M-398.8,264.5L-398.8,264.5c-3.8,1.8-7.4,0.2-7.4,0.2l11.7-5.6C-394.6,259.1-395.2,262.8-398.8,264.5
					L-398.8,264.5z"/>
			</g>
			<g>
				<path class="st0" d="M-407.1,257.8L-407.1,257.8c2.2,3.6,0.6,6.8,0.6,6.8s-4-0.7-6.1-4.2l0,0l0,0c-2.1-3.4-0.6-6.8-0.6-6.8
					S-409.2,254.4-407.1,257.8L-407.1,257.8z"/>
				<path class="st0" d="M-407.1,257.8L-407.1,257.8c2.2,3.6,0.6,6.8,0.6,6.8l-6.7-11C-413.2,253.6-409.2,254.4-407.1,257.8
					L-407.1,257.8z"/>
			</g>
		</g>
	</g>
	<path class="st1" d="M-410.1,281.6l-2.2-0.6c-2.1-0.6-4.3-2.4-3.9-4c0.2-0.6,0.2-1.2,0.9-1.3c0.2,0,0.5,0,0.7,0
		c0.4,0,0.7-0.1,1-0.2c0.3-0.1,0.5-0.4,0.6-0.7c0-0.3-0.4-0.5-0.3-0.8c0.3-1.2,0.8-2.1-1.2-3.6c-0.7-0.6,0.4-1.8,0.7-2.6
		c0.4-1.6,2.5-2.4,4.6-1.8l4.1,1.1c2.1,0.6,3.4,2.4,2.8,4.6l-2.4,8.1C-405.1,281.4-408,282.2-410.1,281.6z"/>
	<polygon class="st2" points="-423.5,279 -429.1,282.9 -434.5,278 -435.8,275.6 -435.9,275.5 -436.9,264.8 -427.3,263.8 	"/>
	<path class="st3" d="M-414,257.8c-0.6-4-4.3-6.7-8.3-6.1c-4,0.6-6.7,4.3-6.1,8.3l3.1,20.9l0.6,0.6l5.8,0.2l5.8,0.2l2.3-1.9
		L-414,257.8z M-424.2,262.9c-0.4,0-0.8-0.4-0.8-0.8s0.4-0.8,0.8-0.8c3,0.1,7.6,1.9,9.5,4.3c0.3,0.3,0.2,0.8-0.2,1.1
		c-0.1,0.1-0.3,0.2-0.5,0.2c-0.2,0-0.5-0.1-0.6-0.3C-417.3,264.8-421.3,263-424.2,262.9z M-414.2,273.2c-0.1,0.1-0.3,0.2-0.5,0.2
		c-0.2,0-0.5-0.1-0.6-0.3c-1.4-1.8-5.4-3.6-8.3-3.7c-0.4,0-0.8-0.4-0.8-0.8s0.4-0.8,0.8-0.8c3,0.1,7.6,1.9,9.5,4.3
		C-413.8,272.5-413.8,272.9-414.2,273.2z"/>
	<path class="st4" d="M-402,273.6v35.2c0,1.2-1,2.2-2.2,2.2h-30.5c-1.2,0-2.2-1-2.2-2.2v-35.2l0,0l2.9,2.6l2.9-2.6l2.9,2.6l2.9-2.6
		l2.9,2.6l2.9-2.6l2.9,2.6l2.9-2.6l2.9,2.6l2.9-2.6l2.9,2.6L-402,273.6L-402,273.6z"/>
</g>
</svg>
