<?xml version="1.0" encoding="utf-8"?>
<!-- Generator: Adobe Illustrator 19.1.0, SVG Export Plug-In . SVG Version: 6.00 Build 0)  -->
<svg version="1.1" id="Layer_1" xmlns="http://www.w3.org/2000/svg" xmlns:xlink="http://www.w3.org/1999/xlink" x="0px" y="0px"
	 viewBox="0 0 60 60" style="enable-background:new 0 0 60 60;" xml:space="preserve">
<style type="text/css">
	.st0{fill:#218ADB;}
	.st1{opacity:0.5;fill:#245C9B;}
	.st2{fill:#E2E2E2;}
	.st3{fill-rule:evenodd;clip-rule:evenodd;fill:#3D9B79;}
	.st4{fill:none;stroke:#203E7A;stroke-width:2;stroke-miterlimit:10;}
	.st5{fill:#FDB82A;}
	.st6{fill:#203E7A;}
	.st7{fill:#3D9B79;}
	.st8{fill:#228ADB;}
	.st9{opacity:0.4;fill:#FFFFFF;}
	.st10{fill:#E24447;}
	.st11{fill:#FFFFFF;}
	.st12{fill:#20407A;}
	.st13{opacity:0.5;fill:#218ADB;}
	.st14{fill:url(#);}
	.st15{fill:#F37734;}
	.st16{fill:#79C143;}
	.st17{fill:#734A9B;}
	.st18{fill:#323232;}
	.st19{fill:#ECECEC;}
	.st20{fill:#F4F4F4;}
	.st21{opacity:0.25;fill:#FFFFFF;}
	.st22{fill:#1888DE;}
	.st23{fill-rule:evenodd;clip-rule:evenodd;fill:#20407A;}
	.st24{clip-path:url(#SVGID_2_);}
	.st25{fill-rule:evenodd;clip-rule:evenodd;fill:#FFFFFF;}
	.st26{fill-rule:evenodd;clip-rule:evenodd;fill:#218ADB;}
	.st27{fill-rule:evenodd;clip-rule:evenodd;fill:#FDB82A;}
	.st28{fill:#D3D3D3;}
	.st29{fill-rule:evenodd;clip-rule:evenodd;fill:#D3D3D3;}
	.st30{fill:#F7D26B;}
	.st31{fill:#D8D8D8;}
	.st32{fill:#CCCCCC;}
	.st33{fill:#245C9B;}
	.st34{fill:#F7F7F7;}
	.st35{fill:#2D67BA;}
	.st36{fill:#EFEFEF;}
	.st37{opacity:0.1;}
	.st38{fill:#0098FF;}
	.st39{fill-rule:evenodd;clip-rule:evenodd;fill:#228ADB;}
	.st40{clip-path:url(#SVGID_6_);}
</style>
<g>
	<defs>
		<path id="SVGID_1_" d="M140.3-1006.5h-59c-0.6,0-1.1,0.2-1.5,0.6c-0.4,0.4-0.6,0.9-0.6,1.5v37.7c0,0.6,0.2,1.1,0.6,1.5
			c0.4,0.4,0.9,0.6,1.5,0.6h59c0.6,0,1.1-0.2,1.5-0.6c0.4-0.4,0.6-0.9,0.6-1.5v-37.7c0-0.6-0.2-1.1-0.6-1.5
			C141.3-1006.3,140.8-1006.5,140.3-1006.5z M91.8-968.8c0-2.3-0.8-4.3-2.5-5.9c-1.6-1.6-3.6-2.5-6-2.5v-16.8c2.3,0,4.3-0.8,6-2.5
			c1.6-1.6,2.5-3.6,2.5-5.9h37.9c0,2.3,0.8,4.3,2.5,5.9c1.6,1.6,3.6,2.5,6,2.5v16.8c-2.3,0-4.3,0.8-6,2.5c-1.6,1.6-2.5,3.6-2.5,5.9
			H91.8z"/>
	</defs>
	<use xlink:href="#SVGID_1_"  style="overflow:visible;fill-rule:evenodd;clip-rule:evenodd;fill:#FDB82A;"/>
	<clipPath id="SVGID_2_">
		<use xlink:href="#SVGID_1_"  style="overflow:visible;"/>
	</clipPath>
	<g class="st24">
		<defs>
			<rect id="SVGID_3_" x="-1377.5" y="-2964.9" width="2113.4" height="5648.2"/>
		</defs>
		<use xlink:href="#SVGID_3_"  style="overflow:visible;fill:#FDB82A;"/>
		<clipPath id="SVGID_4_">
			<use xlink:href="#SVGID_3_"  style="overflow:visible;"/>
		</clipPath>
	</g>
</g>
<g>
	<g>
		<g>
			<g>
				<g>
					<defs>
						<path id="SVGID_5_" d="M368.1-621.3h-66.4c-0.6,0-1.2,0.2-1.7,0.7c-0.5,0.5-0.7,1-0.7,1.7v42.5c0,0.6,0.2,1.2,0.7,1.7
							c0.5,0.5,1,0.7,1.7,0.7h66.4c0.6,0,1.2-0.2,1.7-0.7c0.5-0.5,0.7-1,0.7-1.7v-42.5c0-0.6-0.2-1.2-0.7-1.7
							C369.3-621.1,368.8-621.3,368.1-621.3z M313.6-578.8c0-2.6-0.9-4.8-2.8-6.7c-1.9-1.8-4.1-2.8-6.7-2.8v-18.9
							c2.6,0,4.9-0.9,6.7-2.8c1.9-1.8,2.8-4.1,2.8-6.7h42.7c0,2.6,0.9,4.8,2.8,6.7c1.9,1.8,4.1,2.8,6.7,2.8v18.9
							c-2.6,0-4.9,0.9-6.7,2.8c-1.9,1.8-2.8,4.1-2.8,6.7H313.6z"/>
					</defs>
					<use xlink:href="#SVGID_5_"  style="overflow:visible;fill-rule:evenodd;clip-rule:evenodd;fill:#FDB82A;"/>
					<clipPath id="SVGID_6_">
						<use xlink:href="#SVGID_5_"  style="overflow:visible;"/>
					</clipPath>
					<g class="st40">
						<defs>
							<rect id="SVGID_7_" x="-1153.4" y="-2577" width="2113.4" height="5648.2"/>
						</defs>
						<use xlink:href="#SVGID_7_"  style="overflow:visible;fill:#FDB82A;"/>
						<clipPath id="SVGID_8_">
							<use xlink:href="#SVGID_7_"  style="overflow:visible;"/>
						</clipPath>
					</g>
				</g>
			</g>
		</g>
	</g>
</g>
<g>
	<g>
		<g>
			<g>
				<g>
					<path class="st6" d="M32.5,15.9v-4.1c2.2-1,3.7-3.1,3.7-5.6C36.1,2.8,33.4,0,30,0c-3.4,0-6.2,2.8-6.2,6.2
						c0,2.5,1.5,4.7,3.7,5.6V16v4.8v36.7c0,1.4,1.1,2.5,2.5,2.5s2.5-1.1,2.5-2.5V20.8"/>
					<path class="st7" d="M46.7,29c0-4.4-5.1-5.3-9.5-5.4c-1.5,0-2.8,1.2-2.8,2.7c0,1.5,1.2,2.1,2.7,2.1c1.2,0,2.6,0.3,3.5,0.6
						c-2.1,1.2-7.4,2.7-12.7,3.4l-0.1,0c-0.1,0-0.2,0-0.3,0.1v-0.9c-3.5-0.8-6.7-1.8-8.1-2.6c0.9-0.3,2.3-0.6,3.5-0.6
						c1.5,0,2.7-0.6,2.7-2.1c0-1.5-1.3-2.7-2.8-2.7c0,0,0,0-0.1,0c-4.4,0.1-9.5,1-9.5,5.4c0,3.1,3.2,4.2,6.8,5.5
						c-2.1,1.3-3.8,2.5-3.8,5.1c0,3.2,2.7,4.5,5.6,5.6c-1,1.2-1.3,2.4-1.3,3.4c0,3.5,3.4,5.5,6.4,6.5c0.5,0.6,1.3,1,2.1,1
						c0.1,0,0.3,0,0.4,0c0.5-0.1,1.8-0.3,3.2-0.7l0,0l0.7-0.2c3-1,6.4-2.9,6.4-6.5c0-1-0.3-2.2-1.3-3.4c2.9-1.2,5.6-2.4,5.6-5.6
						c0-2.6-1.7-3.8-3.8-5.1C43.6,33.2,46.7,32.1,46.7,29z M30,50.3C30,50.3,30,50.3,30,50.3L30,50.3c-0.1,0-0.1,0-0.2,0l-1.3,0.3
						c0,0-0.6,0.1-0.9,0.3c0,0,0,0,0,0v-1.5c-0.6-0.3-1.1-0.6-1.4-0.8c0.6-0.5,2.2-1.1,3.9-1.5c0,0,0,0,0,0l0,0c0,0,0,0,0,0l2.5-0.4
						v1.2c0.6,0.2,1.1,0.5,1.4,0.7C33.3,49.2,31.7,49.9,30,50.3z M31.3,41.3c-0.1,0-0.7,0.1-1.7,0.3c-0.7,0.1-1.7,0.4-2.1,0.5v-1
						c-3.1-0.6-5.4-0.9-5.8-1.6c0.2-0.8,3.3-1.8,7.1-2.4c0.3,0,1.8-0.3,3.8-0.7v0.9c3.2,0.8,5.7,1.5,5.8,2.2
						C37.9,40.3,35,40.8,31.3,41.3z"/>
				</g>
				<path class="st0" d="M48.7,12.4c-4.5-3.8-11.9-5.6-13.3,0c-0.7,2.6-1.8,3.4-2.8,3.6V20c6.8,5.2,11.2,1.9,11.3,1.9
					c6,2.1,12.6-1.9,15.4-4.2c0.5-0.4,0.3-1.2-0.4-1.3C56.3,16.1,52.2,15.3,48.7,12.4z"/>
				<path class="st0" d="M11.3,12.4c4.5-3.8,11.9-5.6,13.3,0c0.7,2.6,1.8,3.4,2.8,3.6V20c-6.8,5.2-11.2,1.9-11.3,1.9
					c-6,2.1-12.6-1.9-15.4-4.2c-0.5-0.4-0.3-1.2,0.4-1.3C3.7,16.1,7.8,15.3,11.3,12.4z"/>
			</g>
		</g>
	</g>
</g>
</svg>
