<?xml version="1.0" encoding="utf-8"?>
<!-- Generator: Adobe Illustrator 19.1.0, SVG Export Plug-In . SVG Version: 6.00 Build 0)  -->
<svg version="1.1" id="Layer_1" xmlns="http://www.w3.org/2000/svg" xmlns:xlink="http://www.w3.org/1999/xlink" x="0px" y="0px"
	 viewBox="-607 609 80 80" style="enable-background:new -607 609 80 80;" xml:space="preserve">
<style type="text/css">
	.st0{filter:url(#Adobe_OpacityMaskFilter);}
	.st1{fill:#FFFFFF;}
	.st2{mask:url(#mask-2);fill:#F37734;}
	.st3{filter:url(#Adobe_OpacityMaskFilter_1_);}
	.st4{mask:url(#mask-4);fill:#F37734;}
	.st5{filter:url(#Adobe_OpacityMaskFilter_2_);}
	.st6{mask:url(#mask-6);fill:#F37734;}
</style>
<title>Page 1</title>
<desc>Created with Sketch.</desc>
<g id="Home">
	<g id="Benefits" transform="translate(-1040.000000, -1047.000000)">
		<g transform="translate(-37.000000, 885.000000)">
			<g id="icons" transform="translate(126.000000, 162.000000)">
				<g id="Group-22" transform="translate(945.000000, 0.000000)">
					<g id="Page-1" transform="translate(6.000000, 0.000000)">
						<g id="Group-3" transform="translate(17.000000, 36.000000)">
							<g id="Clip-2">
							</g>
							<defs>
								<filter id="Adobe_OpacityMaskFilter" filterUnits="userSpaceOnUse" x="-608.2" y="607.1" width="11.9" height="11.9">
									<feColorMatrix  type="matrix" values="1 0 0 0 0  0 1 0 0 0  0 0 1 0 0  0 0 0 1 0"/>
								</filter>
							</defs>
							<mask maskUnits="userSpaceOnUse" x="-608.2" y="607.1" width="11.9" height="11.9" id="mask-2">
								<g class="st0">
									<polygon id="path-1" class="st1" points="-608.2,618.9 -596.4,618.9 -596.4,607.1 -608.2,607.1 									"/>
								</g>
							</mask>
							<path id="Fill-1" class="st2" d="M-596.4,613c0,3.3-2.7,5.9-5.9,5.9c-3.3,0-5.9-2.7-5.9-5.9s2.7-5.9,5.9-5.9
								C-599,607.1-596.4,609.7-596.4,613"/>
						</g>
						<g id="Group-6" transform="translate(34.000000, 36.000000)">
							<g id="Clip-5">
							</g>
							<defs>
								<filter id="Adobe_OpacityMaskFilter_1_" filterUnits="userSpaceOnUse" x="-607.8" y="607.1" width="12.3" height="11.9">
									<feColorMatrix  type="matrix" values="1 0 0 0 0  0 1 0 0 0  0 0 1 0 0  0 0 0 1 0"/>
								</filter>
							</defs>
							<mask maskUnits="userSpaceOnUse" x="-607.8" y="607.1" width="12.3" height="11.9" id="mask-4">
								<g class="st3">
									<polygon id="path-3" class="st1" points="-607.8,618.9 -595.5,618.9 -595.5,607.1 -607.8,607.1 									"/>
								</g>
							</mask>
							<path id="Fill-4" class="st4" d="M-595.5,613c0,3.3-2.7,5.9-6.1,5.9s-6.1-2.7-6.1-5.9s2.7-5.9,6.1-5.9
								S-595.5,609.7-595.5,613"/>
						</g>
						<g id="Group-9" transform="translate(52.000000, 36.000000)">
							<g id="Clip-8">
							</g>
							<defs>
								<filter id="Adobe_OpacityMaskFilter_2_" filterUnits="userSpaceOnUse" x="-608" y="607.1" width="12.3" height="11.9">
									<feColorMatrix  type="matrix" values="1 0 0 0 0  0 1 0 0 0  0 0 1 0 0  0 0 0 1 0"/>
								</filter>
							</defs>
							<mask maskUnits="userSpaceOnUse" x="-608" y="607.1" width="12.3" height="11.9" id="mask-6">
								<g class="st5">
									<polygon id="path-5" class="st1" points="-608,618.9 -595.7,618.9 -595.7,607.1 -608,607.1 									"/>
								</g>
							</mask>
							<path id="Fill-7" class="st6" d="M-595.7,613c0,3.3-2.7,5.9-6.1,5.9c-3.4,0-6.1-2.7-6.1-5.9s2.7-5.9,6.1-5.9
								C-598.5,607.1-595.7,609.7-595.7,613"/>
						</g>
					</g>
				</g>
			</g>
		</g>
	</g>
</g>
</svg>
