<?xml version="1.0" encoding="utf-8"?>
<!-- Generator: Adobe Illustrator 19.1.0, SVG Export Plug-In . SVG Version: 6.00 Build 0)  -->
<svg version="1.1" id="Layer_1" xmlns="http://www.w3.org/2000/svg" xmlns:xlink="http://www.w3.org/1999/xlink" x="0px" y="0px"
	 viewBox="0 0 60 60" style="enable-background:new 0 0 60 60;" xml:space="preserve">
<style type="text/css">
	.st0{fill:#218ADB;}
	.st1{opacity:0.5;fill:#245C9B;}
	.st2{fill:#E2E2E2;}
	.st3{fill-rule:evenodd;clip-rule:evenodd;fill:#3D9B79;}
	.st4{fill:none;stroke:#203E7A;stroke-width:2;stroke-miterlimit:10;}
	.st5{fill:#FDB82A;}
	.st6{fill:#203E7A;}
	.st7{fill:#3D9B79;}
	.st8{fill:#228ADB;}
	.st9{opacity:0.4;fill:#FFFFFF;}
	.st10{fill:#E24447;}
	.st11{fill:#FFFFFF;}
	.st12{fill:#20407A;}
	.st13{opacity:0.5;fill:#218ADB;}
	.st14{fill:url(#);}
	.st15{fill:#F37734;}
	.st16{fill:#79C143;}
	.st17{fill:#734A9B;}
	.st18{fill:#323232;}
	.st19{fill:#ECECEC;}
	.st20{fill:#F4F4F4;}
	.st21{opacity:0.25;fill:#FFFFFF;}
	.st22{fill:#1888DE;}
	.st23{fill-rule:evenodd;clip-rule:evenodd;fill:#20407A;}
	.st24{clip-path:url(#SVGID_2_);}
	.st25{fill-rule:evenodd;clip-rule:evenodd;fill:#FFFFFF;}
	.st26{fill-rule:evenodd;clip-rule:evenodd;fill:#218ADB;}
	.st27{fill-rule:evenodd;clip-rule:evenodd;fill:#FDB82A;}
	.st28{fill:#D3D3D3;}
	.st29{fill-rule:evenodd;clip-rule:evenodd;fill:#D3D3D3;}
	.st30{fill:#F7D26B;}
	.st31{fill:#D8D8D8;}
	.st32{fill:#CCCCCC;}
	.st33{fill:#245C9B;}
	.st34{fill:#F7F7F7;}
	.st35{fill:#2D67BA;}
	.st36{fill:#EFEFEF;}
	.st37{opacity:0.1;}
	.st38{fill:#0098FF;}
	.st39{fill-rule:evenodd;clip-rule:evenodd;fill:#228ADB;}
	.st40{clip-path:url(#SVGID_6_);}
</style>
<g>
	<g>
		<g>
			<g>
				<g>
					<defs>
						<path id="SVGID_5_" d="M-371.6-621.3H-438c-0.6,0-1.2,0.2-1.7,0.7c-0.5,0.5-0.7,1-0.7,1.7v42.5c0,0.6,0.2,1.2,0.7,1.7
							c0.5,0.5,1,0.7,1.7,0.7h66.4c0.6,0,1.2-0.2,1.7-0.7c0.5-0.5,0.7-1,0.7-1.7v-42.5c0-0.6-0.2-1.2-0.7-1.7
							C-370.4-621.1-371-621.3-371.6-621.3z M-426.1-578.8c0-2.6-0.9-4.8-2.8-6.7c-1.9-1.8-4.1-2.8-6.7-2.8v-18.9
							c2.6,0,4.9-0.9,6.7-2.8c1.9-1.8,2.8-4.1,2.8-6.7h42.7c0,2.6,0.9,4.8,2.8,6.7c1.9,1.8,4.1,2.8,6.7,2.8v18.9
							c-2.6,0-4.9,0.9-6.7,2.8c-1.9,1.8-2.8,4.1-2.8,6.7H-426.1z"/>
					</defs>
					<use xlink:href="#SVGID_5_"  style="overflow:visible;fill-rule:evenodd;clip-rule:evenodd;fill:#FDB82A;"/>
					<clipPath id="SVGID_2_">
						<use xlink:href="#SVGID_5_"  style="overflow:visible;"/>
					</clipPath>
					<g class="st24">
						<defs>
							<rect id="SVGID_7_" x="-1893.1" y="-2577" width="2113.4" height="5648.2"/>
						</defs>
						<use xlink:href="#SVGID_7_"  style="overflow:visible;fill:#FDB82A;"/>
						<clipPath id="SVGID_4_">
							<use xlink:href="#SVGID_7_"  style="overflow:visible;"/>
						</clipPath>
					</g>
				</g>
			</g>
		</g>
	</g>
</g>
<g>
	<g>
		<g>
			<path class="st26" d="M56.8,54.8H5c-2.8,0-2.7-1-2.7-2.7v0.2c0-1.8-0.1-4.9,2.7-4.9h51.8c0.6,0,0.9,0.6,0.9,1v1
				c0,0.4-0.3,1-0.9,1H5c-1,0-1,0.4-1,1V51c0,0.6,0,0.8,1,0.8h51.8c0.6,0,0.9,0.6,0.9,0.9v1C57.7,54.2,57.4,54.8,56.8,54.8z"/>
			<path class="st15" d="M32,9.2c-0.5-2-1.6-4.4-3.8-6.8l-2.1,1.9c3.5,3.9,3.7,7.5,3.4,9.5c-1.2-0.3-3-0.6-4.8-0.6
				c-4.3,0-7.4,1.7-8.9,4.8c-3.4,7-0.1,17.1,7.5,23c1,0.8,2.1,1.2,3.2,1.2c1.6,0,3.1-0.8,4.1-1.5c1,0.7,2.4,1.5,4.1,1.5
				c1.2,0,2.2-0.4,3.2-1.2c7.6-5.9,10.9-16.1,7.5-23c-1.5-3.1-4.6-4.8-8.9-4.8c-1.5,0-2.9,0.2-4.1,0.4c0.1-0.8,0.1-1.7-0.1-2.8"/>
			<g>
				<path class="st7" d="M49,1.3C48.9,1.2,45.7,0,42.2,0c-5.3,0-8.5,2.8-9.1,8c-0.4,0.4-0.8,0.8-1.1,1.2l0.3,1.6
					c0.3-0.4,0.7-0.9,1.3-1.5c0.6,0.8,2,2.2,4.3,2.2h0c3.3,0,7.2-2.9,11.6-8.7l0.8-1.1L49,1.3z"/>
			</g>
			<g>
				<path class="st6" d="M58.5,60h-53c-2.8,0-5.2-2.3-5.2-5.2v-7.6c0-2.8,2.3-5.2,5.2-5.2h53c0.6,0,1.1,0.5,1.1,1.1v1.1
					c0,0.6-0.5,1.1-1.1,1.1H20.2c-1,0-1.9,0.8-1.9,1.9v7.6c0,1,0.8,1.9,1.9,1.9h38.3c0.6,0,1.1,0.5,1.1,1.1v1.1
					C59.6,59.5,59.1,60,58.5,60z"/>
			</g>
			<g>
				<path class="st7" d="M32.4,13.6c0.1-0.8,0.1-1.7-0.1-2.8L32,9.2c-0.5-2-1.6-4.4-3.8-6.8l-2.1,1.9c3.5,3.9,3.7,7.5,3.4,9.5
					C31.1,14.4,32.7,13.5,32.4,13.6z"/>
			</g>
		</g>
	</g>
</g>
</svg>
