<?xml version="1.0" encoding="utf-8"?>
<!-- Generator: Adobe Illustrator 19.1.0, SVG Export Plug-In . SVG Version: 6.00 Build 0)  -->
<svg version="1.1" id="Layer_1" xmlns="http://www.w3.org/2000/svg" xmlns:xlink="http://www.w3.org/1999/xlink" x="0px" y="0px"
	 viewBox="0 0 60 60" style="enable-background:new 0 0 60 60;" xml:space="preserve">
<style type="text/css">
	.st0{fill:#218ADB;}
	.st1{opacity:0.5;fill:#245C9B;}
	.st2{fill:#E2E2E2;}
	.st3{fill-rule:evenodd;clip-rule:evenodd;fill:#3D9B79;}
	.st4{fill:none;stroke:#203E7A;stroke-width:2;stroke-miterlimit:10;}
	.st5{fill:#FDB82A;}
	.st6{fill:#203E7A;}
	.st7{fill:#3D9B79;}
	.st8{fill:#228ADB;}
	.st9{opacity:0.4;fill:#FFFFFF;}
	.st10{fill:#E24447;}
	.st11{fill:#FFFFFF;}
	.st12{fill:#20407A;}
	.st13{opacity:0.5;fill:#218ADB;}
	.st14{fill:url(#);}
	.st15{fill:#F37734;}
	.st16{fill:#79C143;}
	.st17{fill:#734A9B;}
	.st18{fill:#323232;}
	.st19{fill:#ECECEC;}
	.st20{fill:#F4F4F4;}
	.st21{opacity:0.25;fill:#FFFFFF;}
	.st22{fill:#1888DE;}
	.st23{fill-rule:evenodd;clip-rule:evenodd;fill:#20407A;}
	.st24{clip-path:url(#SVGID_2_);}
	.st25{fill-rule:evenodd;clip-rule:evenodd;fill:#FFFFFF;}
	.st26{fill-rule:evenodd;clip-rule:evenodd;fill:#218ADB;}
	.st27{fill-rule:evenodd;clip-rule:evenodd;fill:#FDB82A;}
	.st28{fill:#D3D3D3;}
	.st29{fill-rule:evenodd;clip-rule:evenodd;fill:#D3D3D3;}
	.st30{fill:#F7D26B;}
	.st31{fill:#D8D8D8;}
	.st32{fill:#CCCCCC;}
	.st33{fill:#245C9B;}
	.st34{fill:#F7F7F7;}
	.st35{fill:#2D67BA;}
	.st36{fill:#EFEFEF;}
	.st37{opacity:0.1;}
	.st38{fill:#0098FF;}
	.st39{fill-rule:evenodd;clip-rule:evenodd;fill:#228ADB;}
	.st40{clip-path:url(#SVGID_6_);}
</style>
<g>
	<defs>
		<path id="SVGID_1_" d="M46.9-1006.5h-59c-0.6,0-1.1,0.2-1.5,0.6c-0.4,0.4-0.6,0.9-0.6,1.5v37.7c0,0.6,0.2,1.1,0.6,1.5
			c0.4,0.4,0.9,0.6,1.5,0.6h59c0.6,0,1.1-0.2,1.5-0.6c0.4-0.4,0.6-0.9,0.6-1.5v-37.7c0-0.6-0.2-1.1-0.6-1.5
			C48-1006.3,47.5-1006.5,46.9-1006.5z M-1.5-968.8c0-2.3-0.8-4.3-2.5-5.9c-1.6-1.6-3.6-2.5-6-2.5v-16.8c2.3,0,4.3-0.8,6-2.5
			c1.6-1.6,2.5-3.6,2.5-5.9h37.9c0,2.3,0.8,4.3,2.5,5.9c1.6,1.6,3.6,2.5,6,2.5v16.8c-2.3,0-4.3,0.8-6,2.5c-1.6,1.6-2.5,3.6-2.5,5.9
			H-1.5z"/>
	</defs>
	<use xlink:href="#SVGID_1_"  style="overflow:visible;fill-rule:evenodd;clip-rule:evenodd;fill:#FDB82A;"/>
	<clipPath id="SVGID_2_">
		<use xlink:href="#SVGID_1_"  style="overflow:visible;"/>
	</clipPath>
	<g class="st24">
		<defs>
			<rect id="SVGID_3_" x="-1470.9" y="-2964.9" width="2113.4" height="5648.2"/>
		</defs>
		<use xlink:href="#SVGID_3_"  style="overflow:visible;fill:#FDB82A;"/>
		<clipPath id="SVGID_4_">
			<use xlink:href="#SVGID_3_"  style="overflow:visible;"/>
		</clipPath>
	</g>
</g>
<g>
	<g>
		<g>
			<g>
				<g>
					<defs>
						<path id="SVGID_5_" d="M274.8-621.3h-66.4c-0.6,0-1.2,0.2-1.7,0.7c-0.5,0.5-0.7,1-0.7,1.7v42.5c0,0.6,0.2,1.2,0.7,1.7
							c0.5,0.5,1,0.7,1.7,0.7h66.4c0.6,0,1.2-0.2,1.7-0.7c0.5-0.5,0.7-1,0.7-1.7v-42.5c0-0.6-0.2-1.2-0.7-1.7
							C276-621.1,275.4-621.3,274.8-621.3z M220.3-578.8c0-2.6-0.9-4.8-2.8-6.7c-1.9-1.8-4.1-2.8-6.7-2.8v-18.9
							c2.6,0,4.9-0.9,6.7-2.8c1.9-1.8,2.8-4.1,2.8-6.7h42.7c0,2.6,0.9,4.8,2.8,6.7c1.9,1.8,4.1,2.8,6.7,2.8v18.9
							c-2.6,0-4.9,0.9-6.7,2.8c-1.9,1.8-2.8,4.1-2.8,6.7H220.3z"/>
					</defs>
					<use xlink:href="#SVGID_5_"  style="overflow:visible;fill-rule:evenodd;clip-rule:evenodd;fill:#FDB82A;"/>
					<clipPath id="SVGID_6_">
						<use xlink:href="#SVGID_5_"  style="overflow:visible;"/>
					</clipPath>
					<g class="st40">
						<defs>
							<rect id="SVGID_7_" x="-1246.7" y="-2577" width="2113.4" height="5648.2"/>
						</defs>
						<use xlink:href="#SVGID_7_"  style="overflow:visible;fill:#FDB82A;"/>
						<clipPath id="SVGID_8_">
							<use xlink:href="#SVGID_7_"  style="overflow:visible;"/>
						</clipPath>
					</g>
				</g>
			</g>
		</g>
	</g>
</g>
<g>
	<g>
		<rect x="3.3" y="14" class="st3" width="53.4" height="32.5"/>
		<rect x="3.3" y="15.1" class="st3" width="53.4" height="32.5"/>
		<path class="st23" d="M30,18.4c-1.7,0-3.4,0.4-4.8,1.1c-1.5,0.7-2.6,1.7-3.5,2.9c-0.9,1.2-1.6,2.4-2.1,3.8c-0.5,1.4-0.7,2.7-0.7,4
			s0.2,2.7,0.7,4c0.5,1.4,1.2,2.6,2.1,3.8c0.9,1.2,2.1,2.1,3.5,2.9c1.5,0.7,3.1,1.1,4.8,1.1c1.7,0,3.4-0.4,4.8-1.1
			c1.5-0.7,2.6-1.7,3.5-2.9c0.9-1.2,1.6-2.4,2.1-3.8c0.5-1.4,0.7-2.7,0.7-4s-0.2-2.7-0.7-4c-0.5-1.4-1.2-2.6-2.1-3.8
			c-0.9-1.2-2.1-2.1-3.5-2.9C33.4,18.8,31.7,18.4,30,18.4z"/>
		<path class="st27" d="M57,11.1H3c-0.5,0-1,0.2-1.4,0.6C1.2,12.1,1,12.6,1,13.1v33.8c0,0.5,0.2,1,0.6,1.4C2,48.7,2.5,48.9,3,48.9
			h54c0.5,0,1-0.2,1.4-0.6c0.4-0.4,0.6-0.9,0.6-1.4V13.1c0-0.5-0.2-1-0.6-1.4C58,11.3,57.5,11.1,57,11.1z M13,44.9
			c0-2.2-0.8-4.1-2.3-5.6C9.1,37.7,7.2,37,5,37V23c2.2,0,4.1-0.8,5.7-2.3c1.6-1.6,2.3-3.4,2.3-5.6h34c0,2.2,0.8,4.1,2.3,5.6
			c1.6,1.6,3.4,2.3,5.7,2.3V37c-2.2,0-4.1,0.8-5.7,2.3c-1.6,1.6-2.3,3.4-2.3,5.6H13z"/>
		<path class="st11" d="M26.4,32.5c0.2-0.3,0.5-0.3,0.8-0.2c0.6,0.4,1.8,1.1,2.7,1.1c0.6,0,1.1-0.2,1.1-0.6c0-1.4-6.1-1.2-6.1-5.4
			c0-2,1.4-3.5,3.3-4c0.3-0.1,0.5-0.3,0.5-0.6v-1c0-0.3,0.3-0.6,0.6-0.6h1.3c0.3,0,0.6,0.3,0.6,0.6v0.9c0,0.3,0.2,0.5,0.5,0.6
			c1.4,0.3,2.3,0.8,2.7,1.2c0.2,0.2,0.3,0.5,0.2,0.7l-1.1,2.1c-0.2,0.3-0.5,0.4-0.8,0.2c-0.6-0.4-1.6-0.9-2.6-0.9
			c-0.5,0-1.1,0.1-1.1,0.6c0,1.6,6.1,1.1,6.1,5.3c0,1.9-1.2,3.7-3.5,4.2c-0.3,0.1-0.5,0.3-0.5,0.6v1c0,0.3-0.3,0.6-0.6,0.6h-1.3
			c-0.3,0-0.6-0.3-0.6-0.6v-1c0-0.3-0.2-0.5-0.5-0.6c-1.5-0.3-2.6-1-3.1-1.5c-0.2-0.2-0.3-0.6-0.1-0.8L26.4,32.5z"/>
	</g>
</g>
</svg>
