<?xml version="1.0" encoding="utf-8"?>
<!-- Generator: Adobe Illustrator 19.1.0, SVG Export Plug-In . SVG Version: 6.00 Build 0)  -->
<svg version="1.1" id="Layer_1" xmlns="http://www.w3.org/2000/svg" xmlns:xlink="http://www.w3.org/1999/xlink" x="0px" y="0px"
	 viewBox="0 0 60 60" style="enable-background:new 0 0 60 60;" xml:space="preserve">
<style type="text/css">
	.st0{fill:#218ADB;}
	.st1{opacity:0.5;fill:#245C9B;}
	.st2{fill:#E2E2E2;}
	.st3{fill-rule:evenodd;clip-rule:evenodd;fill:#3D9B79;}
	.st4{fill:none;stroke:#203E7A;stroke-width:2;stroke-miterlimit:10;}
	.st5{fill:#FDB82A;}
	.st6{fill:#203E7A;}
	.st7{fill:#3D9B79;}
	.st8{fill:#228ADB;}
	.st9{opacity:0.4;fill:#FFFFFF;}
	.st10{fill:#E24447;}
	.st11{fill:#FFFFFF;}
	.st12{fill:#20407A;}
	.st13{opacity:0.5;fill:#218ADB;}
	.st14{fill:url(#);}
	.st15{fill:#F37734;}
	.st16{fill:#79C143;}
	.st17{fill:#734A9B;}
	.st18{fill:#323232;}
	.st19{fill:#ECECEC;}
	.st20{fill:#F4F4F4;}
	.st21{opacity:0.25;fill:#FFFFFF;}
	.st22{fill:#1888DE;}
	.st23{fill-rule:evenodd;clip-rule:evenodd;fill:#20407A;}
	.st24{clip-path:url(#SVGID_2_);}
	.st25{fill-rule:evenodd;clip-rule:evenodd;fill:#FFFFFF;}
	.st26{fill-rule:evenodd;clip-rule:evenodd;fill:#218ADB;}
	.st27{fill-rule:evenodd;clip-rule:evenodd;fill:#FDB82A;}
	.st28{fill:#D3D3D3;}
	.st29{fill-rule:evenodd;clip-rule:evenodd;fill:#D3D3D3;}
	.st30{fill:#F7D26B;}
	.st31{fill:#D8D8D8;}
	.st32{fill:#CCCCCC;}
	.st33{fill:#245C9B;}
	.st34{fill:#F7F7F7;}
	.st35{fill:#2D67BA;}
	.st36{fill:#EFEFEF;}
	.st37{opacity:0.1;}
	.st38{fill:#0098FF;}
	.st39{fill-rule:evenodd;clip-rule:evenodd;fill:#228ADB;}
	.st40{clip-path:url(#SVGID_6_);}
</style>
<g>
	<g>
		<g>
			<g>
				<g>
					<defs>
						<path id="SVGID_5_" d="M-561.7-621.3H-628c-0.6,0-1.2,0.2-1.7,0.7c-0.5,0.5-0.7,1-0.7,1.7v42.5c0,0.6,0.2,1.2,0.7,1.7
							c0.5,0.5,1,0.7,1.7,0.7h66.4c0.6,0,1.2-0.2,1.7-0.7c0.5-0.5,0.7-1,0.7-1.7v-42.5c0-0.6-0.2-1.2-0.7-1.7
							C-560.5-621.1-561-621.3-561.7-621.3z M-616.2-578.8c0-2.6-0.9-4.8-2.8-6.7c-1.9-1.8-4.1-2.8-6.7-2.8v-18.9
							c2.6,0,4.9-0.9,6.7-2.8c1.9-1.8,2.8-4.1,2.8-6.7h42.7c0,2.6,0.9,4.8,2.8,6.7c1.9,1.8,4.1,2.8,6.7,2.8v18.9
							c-2.6,0-4.9,0.9-6.7,2.8c-1.9,1.8-2.8,4.1-2.8,6.7H-616.2z"/>
					</defs>
					<use xlink:href="#SVGID_5_"  style="overflow:visible;fill-rule:evenodd;clip-rule:evenodd;fill:#FDB82A;"/>
					<clipPath id="SVGID_2_">
						<use xlink:href="#SVGID_5_"  style="overflow:visible;"/>
					</clipPath>
					<g class="st24">
						<defs>
							<rect id="SVGID_7_" x="-2083.1" y="-2577" width="2113.4" height="5648.2"/>
						</defs>
						<use xlink:href="#SVGID_7_"  style="overflow:visible;fill:#FDB82A;"/>
						<clipPath id="SVGID_4_">
							<use xlink:href="#SVGID_7_"  style="overflow:visible;"/>
						</clipPath>
					</g>
				</g>
			</g>
		</g>
	</g>
</g>
<g>
	<g>
		<path class="st6" d="M58.7,34l-5.8-23.2c-0.4-1.6-2-2.6-3.6-2.2c-1.8,0.4-2.3,1.8-2.1,3.6l1.4,13.5c0,0.3,0.3,0.5,0.7,0.4
			c0.1,0,0.2-0.1,0.3-0.1c1.5-0.4,3.1,0,4.3,1.2c0.7,0.7,1.2,1.6,1.3,2.6c0.2,1.4-0.3,2.8-1.3,3.8l-8.3,8c0,0,0,0,0,0l0,0
			c-0.3,0.3-0.8,0.2-1-0.1l0,0c-0.3-0.3-0.3-0.8,0-1.1l8.3-8c1.2-1.1,1.2-3,0.1-4.2c-1.1-1.2-3-1.2-4.2-0.1L36.5,40
			c-1.8,1.7-2.8,4.1-2.8,6.6v10.9c0,1.3,1,2.3,2.3,2.3h7.5c1.3,0,2.3-1,2.3-2.3v-3.1c0-0.8,0.3-1.5,0.8-2.2l10.1-12.5l0.9-1.1
			C58.7,37.3,59.1,35.6,58.7,34z"/>
		<path class="st6" d="M11.5,28.3c-1.2-1.2-3.1-1.1-4.2,0.1c-1.1,1.2-1.1,3,0.1,4.2l8.3,8c0.3,0.3,0.3,0.8,0,1.1l0,0
			c-0.3,0.3-0.7,0.3-1,0.1l0,0c0,0,0,0,0,0l-8.3-8c-1-1-1.5-2.4-1.3-3.8c0.1-1,0.6-1.9,1.3-2.6C7.4,26,9,25.7,10.5,26
			c0.1,0,0.2,0.1,0.3,0.1c0.3,0.1,0.6-0.1,0.7-0.4l1.4-13.5c0.2-1.8-0.4-3.2-2.1-3.6c-1.6-0.4-3.2,0.6-3.6,2.2L1.3,34
			c-0.4,1.6,0,3.2,1,4.5l0.9,1.1l10.1,12.5c0.5,0.6,0.8,1.4,0.8,2.2v3.1c0,1.3,1,2.3,2.3,2.3H24c1.3,0,2.3-1,2.3-2.3V46.5
			c0-2.5-1-4.8-2.8-6.6L11.5,28.3z"/>
		<g>
			<g>
				<path class="st7" d="M25.1,23.6L25.1,23.6c0.7,0,1.2-0.5,1.2-1.2v-6.9c0-0.7-0.5-1.2-1.2-1.2h-0.2c-0.7,0-1.2-0.5-1.2-1.2V9.3
					c0-0.7,0.5-1.2,1.2-1.2h8.1c0.7,0,1.2,0.5,1.2,1.2v13.1c0,0.7,0.5,1.2,1.2,1.2l0,0c0.7,0,1.2,0.5,1.2,1.2v3.8
					c0,0.7-0.5,1.2-1.2,1.2H25.1c-0.7,0-1.2-0.5-1.2-1.2v-3.8C23.9,24.1,24.4,23.6,25.1,23.6z M27.7-0.3h5.1c0.7,0,1.2,0.5,1.2,1.2
					v3.9c0,0.7-0.5,1.2-1.2,1.2h-5.1c-0.7,0-1.2-0.5-1.2-1.2V0.9C26.4,0.2,27-0.3,27.7-0.3z"/>
			</g>
		</g>
	</g>
</g>
</svg>
