<?xml version="1.0" encoding="utf-8"?>
<!-- Generator: Adobe Illustrator 19.1.0, SVG Export Plug-In . SVG Version: 6.00 Build 0)  -->
<svg version="1.1" id="Layer_1" xmlns="http://www.w3.org/2000/svg" xmlns:xlink="http://www.w3.org/1999/xlink" x="0px" y="0px"
	 viewBox="0 0 60 60" style="enable-background:new 0 0 60 60;" xml:space="preserve">
<style type="text/css">
	.st0{fill:#218ADB;}
	.st1{opacity:0.5;fill:#245C9B;}
	.st2{fill:#E2E2E2;}
	.st3{fill-rule:evenodd;clip-rule:evenodd;fill:#3D9B79;}
	.st4{fill:none;stroke:#203E7A;stroke-width:2;stroke-miterlimit:10;}
	.st5{fill:#FDB82A;}
	.st6{fill:#203E7A;}
	.st7{fill:#3D9B79;}
	.st8{fill:#228ADB;}
	.st9{opacity:0.4;fill:#FFFFFF;}
	.st10{fill:#E24447;}
	.st11{fill:#FFFFFF;}
	.st12{fill:#20407A;}
	.st13{opacity:0.5;fill:#218ADB;}
	.st14{fill:url(#);}
	.st15{fill:#F37734;}
	.st16{fill:#79C143;}
	.st17{fill:#734A9B;}
	.st18{fill:#323232;}
	.st19{fill:#ECECEC;}
	.st20{fill:#F4F4F4;}
	.st21{opacity:0.25;fill:#FFFFFF;}
	.st22{fill:#1888DE;}
	.st23{fill-rule:evenodd;clip-rule:evenodd;fill:#20407A;}
	.st24{clip-path:url(#SVGID_2_);}
	.st25{fill-rule:evenodd;clip-rule:evenodd;fill:#FFFFFF;}
	.st26{fill-rule:evenodd;clip-rule:evenodd;fill:#218ADB;}
	.st27{fill-rule:evenodd;clip-rule:evenodd;fill:#FDB82A;}
	.st28{fill:#D3D3D3;}
	.st29{fill-rule:evenodd;clip-rule:evenodd;fill:#D3D3D3;}
	.st30{fill:#F7D26B;}
	.st31{fill:#D8D8D8;}
	.st32{fill:#CCCCCC;}
	.st33{fill:#245C9B;}
	.st34{fill:#F7F7F7;}
	.st35{fill:#2D67BA;}
	.st36{fill:#EFEFEF;}
	.st37{opacity:0.1;}
	.st38{fill:#0098FF;}
	.st39{fill-rule:evenodd;clip-rule:evenodd;fill:#228ADB;}
	.st40{clip-path:url(#SVGID_6_);}
</style>
<g>
	<g>
		<g>
			<g>
				<g>
					<defs>
						<path id="SVGID_5_" d="M-474.3-621.3h-66.4c-0.6,0-1.2,0.2-1.7,0.7c-0.5,0.5-0.7,1-0.7,1.7v42.5c0,0.6,0.2,1.2,0.7,1.7
							c0.5,0.5,1,0.7,1.7,0.7h66.4c0.6,0,1.2-0.2,1.7-0.7c0.5-0.5,0.7-1,0.7-1.7v-42.5c0-0.6-0.2-1.2-0.7-1.7
							C-473.1-621.1-473.7-621.3-474.3-621.3z M-528.8-578.8c0-2.6-0.9-4.8-2.8-6.7c-1.9-1.8-4.1-2.8-6.7-2.8v-18.9
							c2.6,0,4.9-0.9,6.7-2.8c1.9-1.8,2.8-4.1,2.8-6.7h42.7c0,2.6,0.9,4.8,2.8,6.7c1.9,1.8,4.1,2.8,6.7,2.8v18.9
							c-2.6,0-4.9,0.9-6.7,2.8c-1.9,1.8-2.8,4.1-2.8,6.7H-528.8z"/>
					</defs>
					<use xlink:href="#SVGID_5_"  style="overflow:visible;fill-rule:evenodd;clip-rule:evenodd;fill:#FDB82A;"/>
					<clipPath id="SVGID_2_">
						<use xlink:href="#SVGID_5_"  style="overflow:visible;"/>
					</clipPath>
					<g class="st24">
						<defs>
							<rect id="SVGID_7_" x="-1995.8" y="-2577" width="2113.4" height="5648.2"/>
						</defs>
						<use xlink:href="#SVGID_7_"  style="overflow:visible;fill:#FDB82A;"/>
						<clipPath id="SVGID_4_">
							<use xlink:href="#SVGID_7_"  style="overflow:visible;"/>
						</clipPath>
					</g>
				</g>
			</g>
		</g>
	</g>
</g>
<g>
	<g>
		<g>
			<g>
				<path class="st26" d="M51.7,26.6v-2.7c0-2.4-2-4.4-4.4-4.4H9.9c-2.4,0-4.4,2-4.4,4.4v2.7C0.9,28.2,0,32.6,0,37.8
					c0,5.2,0.9,9.6,5.6,11.3v2.7c0,2.4,2,4.4,4.4,4.4h37.4c2.4,0,4.4-2,4.4-4.4v-2.7c4.7-1.6,5.6-6,5.6-11.3
					C57.2,32.6,56.3,28.2,51.7,26.6z"/>
				<path class="st6" d="M41.1,4.2L11,17.1h36.7c1.8,0,3.5,0.8,4.7,2l0,0c1.2,1.2,2,2.9,2,4.7V25c1.5,0.7,2.9,1.7,4,2.9
					c2.4-3.3,1.8-7.7,0.1-11.7c-2.1-4.8-5.6-7.5-10.6-7.2l-1.1-2.5C45.9,4.3,43.3,3.2,41.1,4.2L41.1,4.2z"/>
			</g>
			<path class="st26" d="M45.3,52.7H12c-1.4,0-2.6-1.2-2.6-2.6V25.6c0-1.4,1.2-2.6,2.6-2.6h33.3c1.4,0,2.6,1.2,2.6,2.6v24.5
				C47.9,51.5,46.7,52.7,45.3,52.7z"/>
			<g>
				<path class="st11" d="M18.1,32c0-2.6,2.1-4.7,4.9-4.7c2.7,0,4.9,2.1,4.9,4.7c0,2.6-2.2,4.7-4.9,4.7C20.2,36.7,18.1,34.6,18.1,32
					z M35,27.6h3.5L22.3,48.8h-3.5L35,27.6z M24.9,32c0-1.1-0.9-2-2-2c-1.1,0-2,0.9-2,2c0,1.1,0.9,2,2,2C24,33.9,24.9,33.1,24.9,32z
					 M34.5,39.7c2.7,0,4.9,2.1,4.9,4.7c0,2.6-2.2,4.7-4.9,4.7c-2.7,0-4.9-2.1-4.9-4.7C29.6,41.9,31.7,39.7,34.5,39.7z M34.5,46.4
					c1.1,0,2-0.9,2-2c0-1.1-0.9-2-2-2s-2,0.9-2,2C32.5,45.5,33.3,46.4,34.5,46.4z"/>
			</g>
		</g>
	</g>
</g>
</svg>
