<?xml version="1.0" encoding="utf-8"?>
<!-- Generator: Adobe Illustrator 19.1.0, SVG Export Plug-In . SVG Version: 6.00 Build 0)  -->
<svg version="1.1" id="Layer_1" xmlns="http://www.w3.org/2000/svg" xmlns:xlink="http://www.w3.org/1999/xlink" x="0px" y="0px"
	 viewBox="0 0 60 60" style="enable-background:new 0 0 60 60;" xml:space="preserve">
<style type="text/css">
	.st0{fill:#218ADB;}
	.st1{opacity:0.5;fill:#245C9B;}
	.st2{fill:#E2E2E2;}
	.st3{fill-rule:evenodd;clip-rule:evenodd;fill:#3D9B79;}
	.st4{fill:none;stroke:#203E7A;stroke-width:2;stroke-miterlimit:10;}
	.st5{fill:#FDB82A;}
	.st6{fill:#203E7A;}
	.st7{fill:#3D9B79;}
	.st8{fill:#228ADB;}
	.st9{opacity:0.4;fill:#FFFFFF;}
	.st10{fill:#E24447;}
	.st11{fill:#FFFFFF;}
	.st12{fill:#20407A;}
	.st13{opacity:0.5;fill:#218ADB;}
	.st14{fill:url(#);}
	.st15{fill:#F37734;}
	.st16{fill:#79C143;}
	.st17{fill:#734A9B;}
	.st18{fill:#323232;}
	.st19{fill:#ECECEC;}
	.st20{fill:#F4F4F4;}
	.st21{opacity:0.25;fill:#FFFFFF;}
	.st22{fill:#1888DE;}
	.st23{fill-rule:evenodd;clip-rule:evenodd;fill:#20407A;}
	.st24{clip-path:url(#SVGID_2_);}
	.st25{fill-rule:evenodd;clip-rule:evenodd;fill:#FFFFFF;}
	.st26{fill-rule:evenodd;clip-rule:evenodd;fill:#218ADB;}
	.st27{fill-rule:evenodd;clip-rule:evenodd;fill:#FDB82A;}
	.st28{fill:#D3D3D3;}
	.st29{fill-rule:evenodd;clip-rule:evenodd;fill:#D3D3D3;}
	.st30{fill:#F7D26B;}
	.st31{fill:#D8D8D8;}
	.st32{fill:#CCCCCC;}
	.st33{fill:#245C9B;}
	.st34{fill:#F7F7F7;}
	.st35{fill:#2D67BA;}
	.st36{fill:#EFEFEF;}
	.st37{opacity:0.1;}
	.st38{fill:#0098FF;}
	.st39{fill-rule:evenodd;clip-rule:evenodd;fill:#228ADB;}
	.st40{clip-path:url(#SVGID_6_);}
</style>
<g>
	<defs>
		<path id="SVGID_1_" d="M-413.7-1006.5h-59c-0.6,0-1.1,0.2-1.5,0.6c-0.4,0.4-0.6,0.9-0.6,1.5v37.7c0,0.6,0.2,1.1,0.6,1.5
			c0.4,0.4,0.9,0.6,1.5,0.6h59c0.6,0,1.1-0.2,1.5-0.6c0.4-0.4,0.6-0.9,0.6-1.5v-37.7c0-0.6-0.2-1.1-0.6-1.5
			C-412.7-1006.3-413.2-1006.5-413.7-1006.5z M-462.2-968.8c0-2.3-0.8-4.3-2.5-5.9c-1.6-1.6-3.6-2.5-6-2.5v-16.8
			c2.3,0,4.3-0.8,6-2.5c1.6-1.6,2.5-3.6,2.5-5.9h37.9c0,2.3,0.8,4.3,2.5,5.9c1.6,1.6,3.6,2.5,6,2.5v16.8c-2.3,0-4.3,0.8-6,2.5
			c-1.6,1.6-2.5,3.6-2.5,5.9H-462.2z"/>
	</defs>
	<use xlink:href="#SVGID_1_"  style="overflow:visible;fill-rule:evenodd;clip-rule:evenodd;fill:#FDB82A;"/>
	<clipPath id="SVGID_2_">
		<use xlink:href="#SVGID_1_"  style="overflow:visible;"/>
	</clipPath>
	<g class="st24">
		<defs>
			<rect id="SVGID_3_" x="-1931.5" y="-2964.9" width="2113.4" height="5648.2"/>
		</defs>
		<use xlink:href="#SVGID_3_"  style="overflow:visible;fill:#FDB82A;"/>
		<clipPath id="SVGID_4_">
			<use xlink:href="#SVGID_3_"  style="overflow:visible;"/>
		</clipPath>
	</g>
</g>
<g>
	<g>
		<g>
			<g>
				<g>
					<defs>
						<path id="SVGID_5_" d="M-185.9-621.3h-66.4c-0.6,0-1.2,0.2-1.7,0.7c-0.5,0.5-0.7,1-0.7,1.7v42.5c0,0.6,0.2,1.2,0.7,1.7
							c0.5,0.5,1,0.7,1.7,0.7h66.4c0.6,0,1.2-0.2,1.7-0.7c0.5-0.5,0.7-1,0.7-1.7v-42.5c0-0.6-0.2-1.2-0.7-1.7
							C-184.7-621.1-185.2-621.3-185.9-621.3z M-240.4-578.8c0-2.6-0.9-4.8-2.8-6.7c-1.9-1.8-4.1-2.8-6.7-2.8v-18.9
							c2.6,0,4.9-0.9,6.7-2.8c1.9-1.8,2.8-4.1,2.8-6.7h42.7c0,2.6,0.9,4.8,2.8,6.7c1.9,1.8,4.1,2.8,6.7,2.8v18.9
							c-2.6,0-4.9,0.9-6.7,2.8c-1.9,1.8-2.8,4.1-2.8,6.7H-240.4z"/>
					</defs>
					<use xlink:href="#SVGID_5_"  style="overflow:visible;fill-rule:evenodd;clip-rule:evenodd;fill:#FDB82A;"/>
					<clipPath id="SVGID_6_">
						<use xlink:href="#SVGID_5_"  style="overflow:visible;"/>
					</clipPath>
					<g class="st40">
						<defs>
							<rect id="SVGID_7_" x="-1707.3" y="-2577" width="2113.4" height="5648.2"/>
						</defs>
						<use xlink:href="#SVGID_7_"  style="overflow:visible;fill:#FDB82A;"/>
						<clipPath id="SVGID_8_">
							<use xlink:href="#SVGID_7_"  style="overflow:visible;"/>
						</clipPath>
					</g>
				</g>
			</g>
		</g>
	</g>
</g>
<g>
	<g>
		<g>
			<g>
				<path class="st26" d="M2,17.6v29.8c0,1.4,0.5,2.5,1.5,3.5c1,1,2.2,1.5,3.5,1.5h46c1.4,0,2.6-0.5,3.5-1.5c1-1,1.5-2.1,1.5-5.1
					V17.6H2z"/>
				<path class="st15" d="M22,8.3h16v4h4v-5c0-0.8-0.3-1.5-0.9-2.1c-0.6-0.6-1.3-0.9-2.1-0.9H21c-0.8,0-1.5,0.3-2.1,0.9
					C18.3,5.8,18,6.5,18,7.3v5h4V8.3z"/>
				<path class="st23" d="M56.7,13.9c-1-1.1-2.5-1.6-4-1.6l-10.7,0h-4H22h-4l-10.7,0c-1.5,0-3,0.5-4,1.6C2.4,14.9,2,16,2,17.3v16.8
					c0,2,1.6,3.6,3.6,3.6h49c1.9,0,3.5-1.5,3.5-3.5V17.3C58,16,57.6,14.9,56.7,13.9z"/>
			</g>
			<path class="st27" d="M16.6,41.7h-3.4c-0.7,0-1.4-0.6-1.4-1.4v-5.4c0-0.7,0.6-1.4,1.4-1.4h3.4c0.7,0,1.4,0.6,1.4,1.4v5.4
				C18,41.1,17.4,41.7,16.6,41.7z"/>
			<path class="st27" d="M46.8,41.7h-3.4c-0.7,0-1.4-0.6-1.4-1.4v-5.4c0-0.7,0.6-1.4,1.4-1.4h3.4c0.7,0,1.4,0.6,1.4,1.4v5.4
				C48.2,41.1,47.5,41.7,46.8,41.7z"/>
		</g>
	</g>
</g>
</svg>
