<?xml version="1.0" encoding="utf-8"?>
<!-- Generator: Adobe Illustrator 19.1.0, SVG Export Plug-In . SVG Version: 6.00 Build 0)  -->
<svg version="1.1" id="Layer_1" xmlns="http://www.w3.org/2000/svg" xmlns:xlink="http://www.w3.org/1999/xlink" x="0px" y="0px"
	 viewBox="0 0 60 60" style="enable-background:new 0 0 60 60;" xml:space="preserve">
<style type="text/css">
	.st0{fill:#218ADB;}
	.st1{opacity:0.5;fill:#245C9B;}
	.st2{fill:#E2E2E2;}
	.st3{fill-rule:evenodd;clip-rule:evenodd;fill:#3D9B79;}
	.st4{fill:none;stroke:#203E7A;stroke-width:2;stroke-miterlimit:10;}
	.st5{fill:#FDB82A;}
	.st6{fill:#203E7A;}
	.st7{fill:#3D9B79;}
	.st8{fill:#228ADB;}
	.st9{opacity:0.4;fill:#FFFFFF;}
	.st10{fill:#E24447;}
	.st11{fill:#FFFFFF;}
	.st12{fill:#20407A;}
	.st13{opacity:0.5;fill:#218ADB;}
	.st14{fill:url(#);}
	.st15{fill:#F37734;}
	.st16{fill:#79C143;}
	.st17{fill:#734A9B;}
	.st18{fill:#323232;}
	.st19{fill:#ECECEC;}
	.st20{fill:#F4F4F4;}
	.st21{opacity:0.25;fill:#FFFFFF;}
	.st22{fill:#1888DE;}
	.st23{fill-rule:evenodd;clip-rule:evenodd;fill:#20407A;}
	.st24{clip-path:url(#SVGID_2_);}
	.st25{fill-rule:evenodd;clip-rule:evenodd;fill:#FFFFFF;}
	.st26{fill-rule:evenodd;clip-rule:evenodd;fill:#218ADB;}
	.st27{fill-rule:evenodd;clip-rule:evenodd;fill:#FDB82A;}
	.st28{fill:#D3D3D3;}
	.st29{fill-rule:evenodd;clip-rule:evenodd;fill:#D3D3D3;}
	.st30{fill:#F7D26B;}
	.st31{fill:#D8D8D8;}
	.st32{fill:#CCCCCC;}
	.st33{fill:#245C9B;}
	.st34{fill:#F7F7F7;}
	.st35{fill:#2D67BA;}
	.st36{fill:#EFEFEF;}
	.st37{opacity:0.1;}
	.st38{fill:#0098FF;}
	.st39{fill-rule:evenodd;clip-rule:evenodd;fill:#228ADB;}
	.st40{clip-path:url(#SVGID_6_);}
</style>
<g>
	<defs>
		<path id="SVGID_1_" d="M-125.5-1006.5h-59c-0.6,0-1.1,0.2-1.5,0.6c-0.4,0.4-0.6,0.9-0.6,1.5v37.7c0,0.6,0.2,1.1,0.6,1.5
			c0.4,0.4,0.9,0.6,1.5,0.6h59c0.6,0,1.1-0.2,1.5-0.6c0.4-0.4,0.6-0.9,0.6-1.5v-37.7c0-0.6-0.2-1.1-0.6-1.5
			C-124.4-1006.3-124.9-1006.5-125.5-1006.5z M-173.9-968.8c0-2.3-0.8-4.3-2.5-5.9c-1.6-1.6-3.6-2.5-6-2.5v-16.8
			c2.3,0,4.3-0.8,6-2.5c1.6-1.6,2.5-3.6,2.5-5.9h37.9c0,2.3,0.8,4.3,2.5,5.9c1.6,1.6,3.6,2.5,6,2.5v16.8c-2.3,0-4.3,0.8-6,2.5
			c-1.6,1.6-2.5,3.6-2.5,5.9H-173.9z"/>
	</defs>
	<use xlink:href="#SVGID_1_"  style="overflow:visible;fill-rule:evenodd;clip-rule:evenodd;fill:#FDB82A;"/>
	<clipPath id="SVGID_2_">
		<use xlink:href="#SVGID_1_"  style="overflow:visible;"/>
	</clipPath>
	<g class="st24">
		<defs>
			<rect id="SVGID_3_" x="-1643.3" y="-2964.9" width="2113.4" height="5648.2"/>
		</defs>
		<use xlink:href="#SVGID_3_"  style="overflow:visible;fill:#FDB82A;"/>
		<clipPath id="SVGID_4_">
			<use xlink:href="#SVGID_3_"  style="overflow:visible;"/>
		</clipPath>
	</g>
</g>
<g>
	<g>
		<g>
			<g>
				<g>
					<defs>
						<path id="SVGID_5_" d="M102.4-621.3H36c-0.6,0-1.2,0.2-1.7,0.7c-0.5,0.5-0.7,1-0.7,1.7v42.5c0,0.6,0.2,1.2,0.7,1.7
							c0.5,0.5,1,0.7,1.7,0.7h66.4c0.6,0,1.2-0.2,1.7-0.7c0.5-0.5,0.7-1,0.7-1.7v-42.5c0-0.6-0.2-1.2-0.7-1.7
							C103.6-621.1,103-621.3,102.4-621.3z M47.9-578.8c0-2.6-0.9-4.8-2.8-6.7c-1.9-1.8-4.1-2.8-6.7-2.8v-18.9
							c2.6,0,4.9-0.9,6.7-2.8c1.9-1.8,2.8-4.1,2.8-6.7h42.7c0,2.6,0.9,4.8,2.8,6.7c1.9,1.8,4.1,2.8,6.7,2.8v18.9
							c-2.6,0-4.9,0.9-6.7,2.8c-1.9,1.8-2.8,4.1-2.8,6.7H47.9z"/>
					</defs>
					<use xlink:href="#SVGID_5_"  style="overflow:visible;fill-rule:evenodd;clip-rule:evenodd;fill:#FDB82A;"/>
					<clipPath id="SVGID_6_">
						<use xlink:href="#SVGID_5_"  style="overflow:visible;"/>
					</clipPath>
					<g class="st40">
						<defs>
							<rect id="SVGID_7_" x="-1419.1" y="-2577" width="2113.4" height="5648.2"/>
						</defs>
						<use xlink:href="#SVGID_7_"  style="overflow:visible;fill:#FDB82A;"/>
						<clipPath id="SVGID_8_">
							<use xlink:href="#SVGID_7_"  style="overflow:visible;"/>
						</clipPath>
					</g>
				</g>
			</g>
		</g>
	</g>
</g>
<g>
	<g>
		<g>
			<g>
				<path class="st15" d="M40.4,13.7V6.1c0-0.4,0.1-0.7,0.4-0.9s0.5-0.4,0.9-0.4h7.5c0.4,0,0.7,0.1,0.9,0.4s0.4,0.5,0.4,0.9v16"/>
				<g>
					<path class="st8" d="M51.7,30.4v22.3c0,0.7-0.2,1.3-0.7,1.8c-0.5,0.5-1.1,0.7-1.8,0.7H37.9V34.5c0-1.3-1.1-2.4-2.4-2.4H25.2
						c-1.3,0-2.4,1.1-2.4,2.4v20.7H11c-0.7,0-1.3-0.2-1.8-0.7c-0.5-0.5-0.7-1.1-0.7-1.8V30.4c0,0,0-0.1,0-0.1c0-0.1,0-0.1,0-0.1
						l21.6-19.6l21.6,19.6C51.7,30.2,51.7,30.3,51.7,30.4z"/>
				</g>
			</g>
			<g>
				<path class="st12" d="M51.7,22.2l6.9,5.8c0.3,0.2,0.4,0.5,0.4,0.8c0,0.4-0.1,0.7-0.3,0.9l-2.4,2.9c-0.2,0.2-0.5,0.4-0.8,0.4
					h-0.1c-0.3,0-0.6-0.1-0.8-0.3L30.1,11.5L5.5,32.8c-0.3,0.2-0.6,0.3-0.9,0.3c-0.3-0.1-0.6-0.2-0.8-0.4l-2.4-2.9
					C1.1,29.5,1,29.2,1,28.8c0-0.4,0.2-0.6,0.4-0.8L27.1,5.8c0.8-0.7,1.8-1,3-1c1.2,0,2.1,0.3,3,1l8.6,8L51.7,22.2z"/>
			</g>
		</g>
	</g>
</g>
</svg>
