<?xml version="1.0" encoding="utf-8"?>
<!-- Generator: Adobe Illustrator 19.1.0, SVG Export Plug-In . SVG Version: 6.00 Build 0)  -->
<svg version="1.1" id="Layer_1" xmlns="http://www.w3.org/2000/svg" xmlns:xlink="http://www.w3.org/1999/xlink" x="0px" y="0px"
	 viewBox="0 0 60 60" style="enable-background:new 0 0 60 60;" xml:space="preserve">
<style type="text/css">
	.st0{fill:#218ADB;}
	.st1{opacity:0.5;fill:#245C9B;}
	.st2{fill:#E2E2E2;}
	.st3{fill-rule:evenodd;clip-rule:evenodd;fill:#3D9B79;}
	.st4{fill:none;stroke:#203E7A;stroke-width:2;stroke-miterlimit:10;}
	.st5{fill:#FDB82A;}
	.st6{fill:#203E7A;}
	.st7{fill:#3D9B79;}
	.st8{fill:#228ADB;}
	.st9{opacity:0.4;fill:#FFFFFF;}
	.st10{fill:#E24447;}
	.st11{fill:#FFFFFF;}
	.st12{fill:#20407A;}
	.st13{opacity:0.5;fill:#218ADB;}
	.st14{fill:url(#);}
	.st15{fill:#F37734;}
	.st16{fill:#79C143;}
	.st17{fill:#734A9B;}
	.st18{fill:#323232;}
	.st19{fill:#ECECEC;}
	.st20{fill:#F4F4F4;}
	.st21{opacity:0.25;fill:#FFFFFF;}
	.st22{fill:#1888DE;}
	.st23{fill-rule:evenodd;clip-rule:evenodd;fill:#20407A;}
	.st24{clip-path:url(#SVGID_2_);}
	.st25{fill-rule:evenodd;clip-rule:evenodd;fill:#FFFFFF;}
	.st26{fill-rule:evenodd;clip-rule:evenodd;fill:#218ADB;}
	.st27{fill-rule:evenodd;clip-rule:evenodd;fill:#FDB82A;}
	.st28{fill:#D3D3D3;}
	.st29{fill-rule:evenodd;clip-rule:evenodd;fill:#D3D3D3;}
	.st30{fill:#F7D26B;}
	.st31{fill:#D8D8D8;}
	.st32{fill:#CCCCCC;}
	.st33{fill:#245C9B;}
	.st34{fill:#F7F7F7;}
	.st35{fill:#2D67BA;}
	.st36{fill:#EFEFEF;}
	.st37{opacity:0.1;}
	.st38{fill:#0098FF;}
	.st39{fill-rule:evenodd;clip-rule:evenodd;fill:#228ADB;}
	.st40{clip-path:url(#SVGID_6_);}
</style>
<g>
	<defs>
		<path id="SVGID_1_" d="M-220.8-1006.5h-59c-0.6,0-1.1,0.2-1.5,0.6c-0.4,0.4-0.6,0.9-0.6,1.5v37.7c0,0.6,0.2,1.1,0.6,1.5
			c0.4,0.4,0.9,0.6,1.5,0.6h59c0.6,0,1.1-0.2,1.5-0.6c0.4-0.4,0.6-0.9,0.6-1.5v-37.7c0-0.6-0.2-1.1-0.6-1.5
			C-219.8-1006.3-220.3-1006.5-220.8-1006.5z M-269.3-968.8c0-2.3-0.8-4.3-2.5-5.9c-1.6-1.6-3.6-2.5-6-2.5v-16.8
			c2.3,0,4.3-0.8,6-2.5c1.6-1.6,2.5-3.6,2.5-5.9h37.9c0,2.3,0.8,4.3,2.5,5.9c1.6,1.6,3.6,2.5,6,2.5v16.8c-2.3,0-4.3,0.8-6,2.5
			c-1.6,1.6-2.5,3.6-2.5,5.9H-269.3z"/>
	</defs>
	<use xlink:href="#SVGID_1_"  style="overflow:visible;fill-rule:evenodd;clip-rule:evenodd;fill:#FDB82A;"/>
	<clipPath id="SVGID_2_">
		<use xlink:href="#SVGID_1_"  style="overflow:visible;"/>
	</clipPath>
	<g class="st24">
		<defs>
			<rect id="SVGID_3_" x="-1738.6" y="-2964.9" width="2113.4" height="5648.2"/>
		</defs>
		<use xlink:href="#SVGID_3_"  style="overflow:visible;fill:#FDB82A;"/>
		<clipPath id="SVGID_4_">
			<use xlink:href="#SVGID_3_"  style="overflow:visible;"/>
		</clipPath>
	</g>
</g>
<g>
	<g>
		<g>
			<g>
				<g>
					<defs>
						<path id="SVGID_5_" d="M7-621.3h-66.4c-0.6,0-1.2,0.2-1.7,0.7c-0.5,0.5-0.7,1-0.7,1.7v42.5c0,0.6,0.2,1.2,0.7,1.7
							c0.5,0.5,1,0.7,1.7,0.7H7c0.6,0,1.2-0.2,1.7-0.7c0.5-0.5,0.7-1,0.7-1.7v-42.5c0-0.6-0.2-1.2-0.7-1.7
							C8.2-621.1,7.7-621.3,7-621.3z M-47.5-578.8c0-2.6-0.9-4.8-2.8-6.7c-1.9-1.8-4.1-2.8-6.7-2.8v-18.9c2.6,0,4.9-0.9,6.7-2.8
							c1.9-1.8,2.8-4.1,2.8-6.7h42.7c0,2.6,0.9,4.8,2.8,6.7c1.9,1.8,4.1,2.8,6.7,2.8v18.9c-2.6,0-4.9,0.9-6.7,2.8
							c-1.9,1.8-2.8,4.1-2.8,6.7H-47.5z"/>
					</defs>
					<use xlink:href="#SVGID_5_"  style="overflow:visible;fill-rule:evenodd;clip-rule:evenodd;fill:#FDB82A;"/>
					<clipPath id="SVGID_6_">
						<use xlink:href="#SVGID_5_"  style="overflow:visible;"/>
					</clipPath>
					<g class="st40">
						<defs>
							<rect id="SVGID_7_" x="-1514.4" y="-2577" width="2113.4" height="5648.2"/>
						</defs>
						<use xlink:href="#SVGID_7_"  style="overflow:visible;fill:#FDB82A;"/>
						<clipPath id="SVGID_8_">
							<use xlink:href="#SVGID_7_"  style="overflow:visible;"/>
						</clipPath>
					</g>
				</g>
			</g>
		</g>
	</g>
</g>
<g>
	<g>
		<g>
			<path class="st0" d="M58.5,23.9L57.9,23c-0.1-0.1-0.2-0.2-0.3-0.1c-6.1,2.8-7.1-0.2-9.4-2.3C42.9,16,33.6,14.5,27,16.1
				c-2.8-4.9-8.1-6.9-14.8-6.1c0,0,0,0,0,0c1.2,3,4.2,6.8,3.7,9c-4.5,2.9-7.4,8-8.6,10.8c-1.1,2.7-3.5,2.9-5.8,2.8l0,0l-0.1,9.4
				c0,0.6,0.5,1.1,1.1,1.1c1.7,0,3,0.7,4.4,2.2c1.6,1.9,4.4,6,8.3,7.2c0,0,0,0,0,0l1,6.5H25l0,0v-3.1c1.8,0.4,3.8,0.6,5.8,0.6
				c2.6,0,5.1-0.3,7.5-1V59h8.9l0,0l1-6.3c0,0,0,0,0,0c5.5-4.6,8.2-12.8,7-20c-0.5-3.2-1.5-5,3.2-7.7C58.6,24.8,58.7,24.3,58.5,23.9
				z M15.5,32.5c-2.3,1.4-4.6-1-3.2-3.2c0.1-0.2,0.3-0.4,0.5-0.5c2.3-1.4,4.6,1,3.2,3.2C15.9,32.2,15.7,32.3,15.5,32.5z"/>
			<circle class="st5" cx="37.9" cy="10.8" r="9.8"/>
			<g>
				<path class="st11" d="M26.8,39.2c0.2-0.3,0.7-0.4,1-0.2c0.8,0.5,2.3,1.4,3.5,1.4c0.7,0,1.4-0.3,1.4-0.8c0-1.8-7.7-1.5-7.7-6.8
					c0-2.5,1.7-4.4,4.2-5.1c0.3-0.1,0.5-0.4,0.5-0.7v-1.4c0-0.4,0.3-0.7,0.7-0.7h1.7c0.4,0,0.7,0.3,0.7,0.7v1.2
					c0,0.4,0.3,0.6,0.6,0.7c1.8,0.3,3,1.1,3.6,1.5c0.3,0.2,0.4,0.6,0.2,0.9l-1.4,2.7c-0.2,0.4-0.7,0.5-1,0.3c-0.7-0.5-2-1.1-3.3-1.1
					c-0.6,0-1.3,0.2-1.3,0.8c0,2,7.7,1.4,7.7,6.7c0,2.4-1.6,4.7-4.5,5.4c-0.3,0.1-0.6,0.4-0.6,0.7v1.3c0,0.4-0.3,0.7-0.7,0.7h-1.7
					c-0.4,0-0.7-0.3-0.7-0.7v-1.3c0-0.3-0.2-0.6-0.6-0.7c-2-0.4-3.3-1.4-4-1.9c-0.3-0.2-0.3-0.7-0.1-1L26.8,39.2z"/>
			</g>
		</g>
	</g>
</g>
</svg>
