<?xml version="1.0" encoding="utf-8"?>
<!-- Generator: Adobe Illustrator 19.1.0, SVG Export Plug-In . SVG Version: 6.00 Build 0)  -->
<svg version="1.1" id="Layer_1" xmlns="http://www.w3.org/2000/svg" xmlns:xlink="http://www.w3.org/1999/xlink" x="0px" y="0px"
	 viewBox="-424 226 110 110" style="enable-background:new -424 226 110 110;" xml:space="preserve">
<style type="text/css">
	.st0{fill:none;}
	.st1{fill:#20407A;}
	.st2{fill:#F7D26B;}
	.st3{fill:#FDB82A;}
	.st4{fill:#FFFFFF;}
	.st5{fill:#3D9B79;}
	.st6{fill:#D8D8D8;}
	.st7{fill:#CCCCCC;}
	.st8{fill:#2D67BA;}
	.st9{fill-rule:evenodd;clip-rule:evenodd;fill:url(#SVGID_1_);}
</style>
<pattern  x="-424" y="336" width="51.8" height="51.8" patternUnits="userSpaceOnUse" id="New_Pattern_Swatch_4" viewBox="0 -51.8 51.8 51.8" style="overflow:visible;">
	<g>
		<polygon class="st0" points="0,0 51.8,0 51.8,-51.8 0,-51.8 		"/>
		<polygon class="st1" points="51.8,0 0,0 0,-51.8 51.8,-51.8 		"/>
	</g>
</pattern>
<g>
	<g>
		<path class="st2" d="M-333.5,239h-15.8h-39.4h-15.8c-2.5,0-4.5,2-4.5,4.5v87.1c0,2.5,2,4.5,4.5,4.5h71c3.5,0,4.5-2.6,4.5-4.4
			v-55.2v-32C-329,241-331,239-333.5,239z"/>
		<path class="st3" d="M-333.5,239h-15.8h-19.4v96h35.2c3.5,0,4.5-2.6,4.5-4.4v-55.1v-32C-329,241-331,239-333.5,239z"/>
	</g>
	<g>
		<g>
			<path class="st4" d="M-338,248.6c0-1-0.8-1.8-1.8-1.8h-59c-1,0-1.8,0.8-1.8,1.8V324c0,1,0.8,1.8,1.8,1.8h58.9
				c1,0,1.8-0.8,1.8-1.8L-338,248.6L-338,248.6z"/>
			<g>
				<path class="st5" d="M-381.9,311.1c0,0.2-0.1,0.4-0.2,0.5l-5.8,5.8l-1.1,1.2c-0.1,0.2-0.3,0.2-0.5,0.2s-0.4-0.1-0.5-0.2
					l-1.1-1.1l-2.9-2.9c-0.1-0.2-0.2-0.3-0.2-0.5s0.1-0.4,0.2-0.5l1.1-1.1c0.1-0.2,0.3-0.2,0.5-0.2s0.4,0.1,0.5,0.2l2.4,2.4l5.3-5.3
					c0.1-0.2,0.3-0.2,0.5-0.2s0.4,0.1,0.5,0.2l1.1,1.1C-382,310.7-381.9,310.9-381.9,311.1z"/>
			</g>
			<g>
				<path class="st5" d="M-381.9,295.6c0,0.2-0.1,0.4-0.2,0.5l-5.8,5.9l-1.1,1.1c-0.1,0.2-0.3,0.2-0.5,0.2s-0.4-0.1-0.5-0.2
					l-1.2-1.1l-2.9-2.9c-0.1-0.2-0.2-0.3-0.2-0.5s0.1-0.4,0.2-0.5l1.1-1.1c0.1-0.2,0.3-0.2,0.5-0.2s0.4,0.1,0.5,0.2l2.4,2.4l5.3-5.3
					c0.1-0.2,0.3-0.2,0.5-0.2s0.4,0.1,0.5,0.2l1.1,1.1C-382,295.2-381.9,295.4-381.9,295.6z"/>
			</g>
			<g>
				<path class="st5" d="M-381.9,278.4c0,0.2-0.1,0.4-0.2,0.5l-5.8,5.8l-1.1,1.2c-0.1,0.2-0.3,0.2-0.5,0.2s-0.4-0.1-0.5-0.2
					l-1.1-1.1l-2.9-2.9c-0.1-0.2-0.2-0.3-0.2-0.5s0.1-0.4,0.2-0.5l1.1-1.1c0.1-0.2,0.3-0.2,0.5-0.2s0.4,0.1,0.5,0.2l2.4,2.4l5.3-5.3
					c0.1-0.2,0.3-0.2,0.5-0.2s0.4,0.1,0.5,0.2l1.1,1.1C-382,278-381.9,278.2-381.9,278.4z"/>
			</g>
			<rect x="-380.5" y="311.2" class="st6" width="27.9" height="6.4"/>
			<rect x="-380.3" y="295.1" class="st6" width="27.9" height="6.4"/>
			<rect x="-380.3" y="279" class="st6" width="27.9" height="6.4"/>
			<g>
				<rect x="-368.7" y="311.2" class="st7" width="23.8" height="6.4"/>
				<rect x="-368.7" y="295.1" class="st7" width="23.8" height="6.4"/>
				<rect x="-368.5" y="279" class="st7" width="23.8" height="6.4"/>
			</g>
		</g>
		<g>
			<path class="st8" d="M-368.9,252.6c-6.8-0.1-12.5,5.3-12.6,12.2c-0.1,4.5,2.2,8.4,5.7,10.6c-0.2-0.7-0.4-1.5-0.4-2.3
				c0-3,1.9-5.5,4.5-6.5c-1.2-0.9-2-2.3-2-3.9c0-2.8,2.5-4.9,5.3-4.6c2.1,0.3,3.8,2,4,4.1c0.2,1.8-0.7,3.5-2.1,4.4
				c2.6,1.1,4.3,3.6,4.3,6.6c0,0.8-0.2,1.5-0.4,2.2c3.4-2.2,5.7-5.9,5.7-10.2C-356.6,258.4-362,252.6-368.9,252.6z"/>
			<pattern  id="SVGID_1_" xlink:href="#New_Pattern_Swatch_4" patternTransform="matrix(1.1071 0 0 1.1036 778.3815 856.6337)">
			</pattern>
			<path class="st9" d="M-368.6,252.6v5.5c0.1,0,0.3,0,0.4,0c2.1,0.3,3.8,2,4,4.1c0.2,1.8-0.7,3.5-2.1,4.4c2.6,1.1,4.3,3.6,4.3,6.6
				c0,0.8-0.2,1.5-0.4,2.2c3.4-2.2,5.7-5.9,5.7-10.2C-356.4,258.4-361.8,252.8-368.6,252.6z"/>
		</g>
	</g>
	<g>
		<path class="st6" d="M-343.4,250.1v-8.3c0-3.4-2.8-6.1-6.1-6.1h-10.3c0-4.9-3.9-8.8-8.8-8.8s-8.8,3.9-8.8,8.8h-11.1
			c-3.4,0-6.1,2.8-6.1,6.1v8.3H-343.4z M-368.6,238.5c-1.5,0-2.7-1.2-2.7-2.7s1.2-2.7,2.7-2.7s2.7,1.2,2.7,2.7
			S-367.1,238.5-368.6,238.5z"/>
		<path class="st7" d="M-349.5,235.8h-10.3c0-4.9-3.9-8.8-8.8-8.8v6.1c1.5,0,2.7,1.2,2.7,2.7s-1.2,2.7-2.7,2.7v11.7h25.2v-8.3
			C-343.4,238.5-346.2,235.8-349.5,235.8z"/>
	</g>
</g>
</svg>
