<?xml version="1.0" encoding="utf-8"?>
<!-- Generator: Adobe Illustrator 19.1.0, SVG Export Plug-In . SVG Version: 6.00 Build 0)  -->
<svg version="1.1" id="Layer_1" xmlns="http://www.w3.org/2000/svg" xmlns:xlink="http://www.w3.org/1999/xlink" x="0px" y="0px"
	 viewBox="0 0 110 110" style="enable-background:new 0 0 110 110;" xml:space="preserve">
<style type="text/css">
	.st0{fill:#218ADB;}
	.st1{opacity:0.5;fill:#245C9B;}
	.st2{fill:#E2E2E2;}
	.st3{fill-rule:evenodd;clip-rule:evenodd;fill:#3D9B79;}
	.st4{fill:none;stroke:#203E7A;stroke-width:2;stroke-miterlimit:10;}
	.st5{fill:#FDB82A;}
	.st6{fill:#203E7A;}
	.st7{fill:#3D9B79;}
	.st8{fill:#228ADB;}
	.st9{opacity:0.4;fill:#FFFFFF;}
	.st10{fill:#E24447;}
	.st11{fill:#FFFFFF;}
	.st12{fill:#20407A;}
	.st13{opacity:0.5;fill:#218ADB;}
	.st14{fill:url(#);}
	.st15{fill:#F37734;}
	.st16{fill:#79C143;}
	.st17{fill:#734A9B;}
	.st18{fill:#323232;}
	.st19{fill:#ECECEC;}
	.st20{fill:#F4F4F4;}
	.st21{opacity:0.25;fill:#FFFFFF;}
	.st22{fill:#1888DE;}
	.st23{fill-rule:evenodd;clip-rule:evenodd;fill:#20407A;}
	.st24{clip-path:url(#SVGID_2_);}
	.st25{fill-rule:evenodd;clip-rule:evenodd;fill:#FFFFFF;}
	.st26{fill-rule:evenodd;clip-rule:evenodd;fill:#218ADB;}
	.st27{fill-rule:evenodd;clip-rule:evenodd;fill:#FDB82A;}
	.st28{fill:#D3D3D3;}
	.st29{fill-rule:evenodd;clip-rule:evenodd;fill:#D3D3D3;}
	.st30{fill:#F7D26B;}
	.st31{fill:#D8D8D8;}
	.st32{fill:#CCCCCC;}
	.st33{fill:#245C9B;}
	.st34{fill:#F7F7F7;}
	.st35{fill:#2D67BA;}
	.st36{fill:#EFEFEF;}
	.st37{opacity:0.1;}
	.st38{fill-rule:evenodd;clip-rule:evenodd;fill:url(#);}
	.st39{clip-path:url(#SVGID_6_);}
	.st40{fill:#FFFFFF;stroke:#000000;stroke-width:7;stroke-miterlimit:10;}
	.st41{fill:none;stroke:#218ADB;stroke-width:3;stroke-linecap:round;stroke-miterlimit:10;}
	.st42{fill:none;stroke:#CCCCCC;stroke-width:5;stroke-miterlimit:10;}
	.st43{fill:none;stroke:#CCCCCC;stroke-width:5;stroke-linecap:round;stroke-miterlimit:10;}
	.st44{fill:#F2854F;}
</style>
<g>
	<g>
		<path class="st30" d="M92.6,46.6c-1.3-1.3-2.9-2-4.7-2h-2.2H72.3H36.8H23.5h-2.2c-1.9,0-3.4,0.7-4.7,2c-1.3,1.3-1.9,2.9-1.9,4.7
			v51.9c0,1.9,0.6,3.4,1.9,4.7c1.3,1.3,2.9,2,4.7,2h66.7c1.9,0,3.4-0.7,4.7-2c1.3-1.3,1.9-2.9,1.9-4.7V51.4
			C94.6,49.5,93.9,47.9,92.6,46.6z"/>
		<path class="st31" d="M76.5,9.2C70.4,3.1,63.1,0,54.6,0C46,0,38.7,3.1,32.6,9.2c-6.1,6.1-9.2,13.5-9.2,22.1v13.4h13.3V31.3
			c0-4.9,1.7-9.1,5.2-12.6c3.5-3.5,7.7-5.2,12.6-5.2c4.9,0,9.1,1.7,12.6,5.2s5.2,7.7,5.2,12.6v13.4h13.3V31.3
			C85.7,22.7,82.6,15.4,76.5,9.2z"/>
		<path class="st5" d="M92.6,46.6c-1.3-1.3-2.9-2-4.7-2h-2.2H72.3H54.6V110h33.3c1.9,0,3.4-0.7,4.7-2c1.3-1.3,1.9-2.9,1.9-4.7V51.4
			C94.6,49.5,93.9,47.9,92.6,46.6z"/>
		<path class="st18" d="M62.7,92.6L58,76.3c2.4-1.3,4.1-3.8,4.1-6.7c0-4.2-3.4-7.6-7.5-7.6c-4.2,0-7.5,3.4-7.5,7.6
			c0,2.9,1.7,5.4,4.1,6.7l-4.6,16.2H62.7z"/>
	</g>
	<path class="st32" d="M67.1,18.6c3.5,3.5,5.2,7.7,5.2,12.6v13.4h13.3V31.3c0-8.6-3.1-15.9-9.2-22.1C70.4,3.1,63.1,0,54.6,0v13.4
		C59.5,13.4,63.7,15.1,67.1,18.6z"/>
</g>
</svg>
