<?xml version="1.0" standalone="no"?>
<!DOCTYPE svg PUBLIC "-//W3C//DTD SVG 1.1//EN" "http://www.w3.org/Graphics/SVG/1.1/DTD/svg11.dtd" >
<svg xmlns="http://www.w3.org/2000/svg">
<metadata>
This is a custom SVG webfont generated by Font Squirrel.
Copyright   : Typeface  your company 2009 All Rights Reserved
Designer    : Lauren Thompson aka Nymphont nymphontyahoocom
</metadata>
<defs>
<font id="webfontGs6DkCHE" horiz-adv-x="1126" >
<font-face units-per-em="2048" ascent="1638" descent="-410" />
<missing-glyph horiz-adv-x="1122" />
<glyph unicode=" "  horiz-adv-x="1122" />
<glyph unicode="&#x09;" horiz-adv-x="1122" />
<glyph unicode="&#xa0;" horiz-adv-x="1122" />
<glyph unicode="!" horiz-adv-x="468" d="M139 469q-29 555 -28 829q0 86 2 152v12q0 109 67 117h4q6 0 11 -2q8 2 18 2q72 0 72 -109v-34q-6 -86 -6 -203q0 -264 22 -768q-8 -68 -65 -70h-9q-86 13 -88 74zM227 240q111 0 133 -105q2 -23 2 -43q0 -123 -57 -123q-45 -12 -80 -12q-88 0 -116 57q-27 49 -27 113v23 q0 72 102 88q23 2 43 2z" />
<glyph unicode="&#x22;" horiz-adv-x="587" d="M193 1108h-11q-57 0 -67 51l-33 379q4 66 82 70h14q70 0 74 -60l24 -377v-6q-1 -51 -83 -57zM422 1104h-10q-57 0 -68 51l-33 379q8 63 82 70h15q72 0 73 -60l25 -379v-4q0 -53 -84 -57z" />
<glyph unicode="#" horiz-adv-x="1789" d="M616 682q10 104 15 213q-27 -2 -64 -2h-166q-117 0 -235 4q-63 2 -80 72q-2 6 -4 14v16q0 53 51 56h344q86 2 158 4v84q0 119 -6 239q6 45 59 45q8 0 19 -2q4 0 14 -2q74 -16 78 -67q8 -129 8 -256q2 -23 2 -33q127 6 248 16q0 8 -2 27l-4 37q-10 109 -27 223q0 45 66 45 h20q74 -6 84 -55q18 -119 31 -238q2 -16 2 -20q205 23 407 59h6q51 0 66 -65v-6q2 -10 2 -19q0 -47 -37 -63q-205 -45 -430 -72q8 -115 8 -217q170 18 346 49h7q49 0 59 -68v-20q0 -49 -39 -66q-180 -41 -377 -63q-8 -176 -41 -338q-14 -35 -74 -35h-12q-72 4 -74 41l-2 6 q20 160 27 307q-137 -10 -291 -14q-25 -205 -76 -387q-16 -33 -61 -33q-10 0 -25 2l-6 2q-70 12 -69 56v6q39 178 59 350h-29q-41 0 -84 2q-147 0 -297 8q-59 4 -71 74q-2 10 -2 16v13q0 53 51 59q143 -6 281 -6h45q67 0 122 2zM807 899q-2 -111 -10 -215q139 6 276 18 q0 106 -6 213q-123 -10 -260 -16z" />
<glyph unicode="$" d="M451 846q-199 129 -218 305v31q0 154 111 213q49 29 100 41q0 27 2 51v14q0 104 52 111h2q4 0 10 -2q8 2 16 2q55 0 56 -103q0 -18 -2 -36v-33q127 -20 161 -199q2 -6 2 -16v-6q0 -49 -55 -64q-8 -2 -14 -2h-23q-45 6 -47 49q-10 47 -26 76v-21q0 -109 2 -307 q18 -10 38 -18q215 -104 287 -221q53 -84 60 -174v-29q0 -29 -2 -59q-25 -147 -168 -228q-74 -43 -162 -55q-18 -2 -39 -2l4 -117q-6 -59 -51 -61h-8q-66 10 -68 65l-4 117q-8 2 -18 4q-207 35 -289 373q0 63 51 82q12 6 22 8h25q29 -4 55 -27q49 -250 150 -301 q-8 312 -12 539zM592 291q12 0 22 2q66 8 123 43q86 51 86 162q0 10 -2 24q0 12 -2 23q-45 152 -237 229q4 -207 10 -483zM442 1307q-59 -29 -59 -109v-14q0 -6 2 -15q8 -66 61 -120q-4 160 -4 258z" />
<glyph unicode="%" horiz-adv-x="1835" d="M1176 1599q25 35 63 35q16 0 37 -6q43 -20 43 -65q0 -20 -6 -45l-119 -283q8 10 106 10q178 0 324 -217q129 -188 129 -344q0 -20 -2 -41q-20 -170 -129 -268q-78 -72 -192 -72q-49 0 -105 12q-188 45 -227 238q-12 59 -13 115q0 111 54 186q78 106 164 136t133 34 q-55 70 -117 70q-14 0 -21 -2q-47 -57 -96 -58h-10q-59 10 -66 47l-198 -446l-273 -692q-23 -37 -55 -37q-20 0 -43 14q-43 29 -43 78q0 18 6 41l330 823zM442 1343q31 31 58 31q33 0 51 -41q16 -27 16 -53q0 -39 -18 -53q135 -41 209 -180q47 -90 47 -173q0 -49 -17 -94 q-43 -127 -126 -170q-63 -35 -218 -35q-51 0 -110 5q-252 14 -252 323q0 305 360 440zM342 1106q-104 -47 -115 -227q-2 -8 -2 -13q0 -152 207 -151h25q199 8 198 141q0 25 -6 57q-47 191 -307 193zM1522 928q0 -57 -90 -58q-115 -8 -164 -77q-37 -57 -37 -138q0 -25 4 -51 q12 -111 123 -143q39 -12 74 -12q59 0 100 36q68 59 76 177v14q0 115 -86 252z" />
<glyph unicode="&#x26;" d="M487 1397q-8 39 -8 114q0 27 2 54q0 45 49 57l9 2q12 2 20 2q45 0 57 -39v-59q0 -125 23 -207q0 2 2 2l2 -2q29 -12 41 -31q6 -12 6 -26q0 -18 -12 -37q-10 -14 -25 -27q-18 -8 -41 -8q-16 0 -32 6q-154 78 -203 78h-8q-10 -2 -15 -4l-2 -2l2 -2q246 -213 402 -219 q66 -16 65 -56v-4q-4 -29 -4 -57q0 -16 -6 -27q-8 -14 -20 -22q-20 -12 -60 -13h-37q-74 0 -311 -145l-10 -6q-172 -109 -172 -203q0 -31 18 -61q172 -190 375 -191q115 0 242 64q111 68 110 178q0 18 -4 45q6 29 27 43q14 6 35 6q10 0 22 -2q37 -6 57 -37q12 -23 13 -57 q-23 -203 -109 -254q-37 -33 -76 -60q-102 -63 -221 -84q-33 -2 -61 -2h-11q2 -82 23 -163v-7q0 -39 -49 -51h-23q-45 0 -59 39q-31 109 -31 199q-236 45 -416 285q-33 53 -32 106q0 113 139 238q86 74 170 127q113 70 170 84q-215 123 -295 247q-33 55 -33 101q0 61 60 102 q35 20 86 21q77 0 159 -35z" />
<glyph unicode="'" horiz-adv-x="358" d="M193 1108h-11q-57 0 -67 51l-33 379q4 66 82 70h14q70 0 74 -60l24 -377v-6q-1 -51 -83 -57z" />
<glyph unicode="(" horiz-adv-x="626" d="M428 1649q18 8 33 8q18 0 39 -12q25 -16 24 -50q0 -14 -6 -28q-281 -264 -280 -834v-33q8 -418 284 -751q-23 -76 -73 -76q-18 0 -33 4q-287 293 -314 825q0 720 326 947z" />
<glyph unicode=")" horiz-adv-x="626" d="M524 702q-27 -532 -313 -825q-14 -4 -33 -4q-51 0 -74 76q276 334 285 751v33q0 569 -280 834q-6 14 -7 28q0 33 25 50q20 12 39 12q14 0 33 -8q325 -228 325 -947z" />
<glyph unicode="*" horiz-adv-x="1093" d="M412 1227q-6 244 -54 280v4q-2 8 -2 13q0 57 52 71q2 2 4 2l14 2h4q59 0 98 -100q20 -55 29 -239q172 141 203 235l2 4q35 31 69 31q23 0 41 -10q4 0 9 -2l10 -9q27 -18 27 -45t-29 -59q-53 -131 -277 -301q152 -88 328 -180l8 -6q33 -25 33 -54q0 -20 -14 -43 q-4 -2 -9 -6l-8 -8v-2q-23 -18 -53 -19q-31 0 -72 21q-135 66 -266 143l-4 -159v-3q0 -82 -55 -98q-6 0 -13 -2q-4 -2 -10 -2h-8q-55 0 -66 62l-2 10l11 205q-55 -35 -117 -70q-49 -37 -90 -37q-23 0 -41 8l-2 2q-4 2 -10 6q-6 2 -9 7q-31 20 -30 45q0 23 22 45l8 8 q100 61 185 119q-84 57 -168 121q-43 35 -43 67q0 18 14 39l8 10q4 2 6 4q23 18 50 19q25 0 55 -19l4 -2z" />
<glyph unicode="+" horiz-adv-x="1089" d="M475 569q-150 2 -305 15q-88 10 -88 78v14q0 4 2 8q12 59 86 59h4q109 -8 232 -8q35 0 65 2q-6 141 -22 307v13q6 72 75 71h11q6 0 14 -2q61 -10 67 -100q18 -145 23 -285q133 6 285 23l12 -2q72 -6 72 -76v-10q-2 -6 -2 -10v-2q-14 -63 -103 -70q-133 -16 -262 -21 q-2 -137 -14 -282q-10 -88 -78 -88h-17l-2 2q-61 14 -61 86v4q6 109 6 233v41z" />
<glyph unicode="," horiz-adv-x="458" d="M297 -303q-27 -39 -68 -39q-16 0 -36 8q-20 6 -21 35v12q0 18 12 43q35 57 58 207h-9q-125 0 -151 131v25q14 135 149 139q145 -12 146 -186q0 -14 -2 -31q-15 -205 -78 -344z" />
<glyph unicode="-" horiz-adv-x="665" d="M602 489q2 -12 2 -20q0 -61 -47 -76q-172 -49 -342 -49q-41 0 -82 2q-53 0 -67 66q-2 8 -3 14q-2 14 -2 27q0 57 39 69l9 2q43 -2 84 -2q199 0 344 39q6 2 12 2q41 0 53 -59v-15z" />
<glyph unicode="." horiz-adv-x="444" d="M227 240q111 0 133 -105q2 -23 2 -43q0 -123 -57 -123q-45 -12 -80 -12q-88 0 -116 57q-27 49 -27 113v23q0 72 102 88q23 2 43 2z" />
<glyph unicode="/" horiz-adv-x="858" d="M809 1671l8 -4q29 -14 37 -39q4 -10 4 -22v-11q-162 -549 -500 -1222l-47 -90l-174 -328q-16 -27 -41 -33q-8 -2 -18 -2q-14 0 -31 6q-8 2 -12 4q-25 14 -33 35q-2 6 -2 15q0 12 6 26l160 307l27 54q330 653 540 1278l2 6q10 20 31 24q6 2 14 2q13 0 29 -6z" />
<glyph unicode="0" d="M514 1554q180 0 365 -303q162 -268 161 -592q0 -35 -2 -71q-20 -369 -190 -506q-139 -129 -340 -129h-29q-205 10 -300 195.5t-95 426.5q0 244 103.5 501t240.5 374v8q0 76 86 96zM248 588v-45q0 -207 96 -338q61 -82 154 -82q70 0 143 33q238 90 242 456v11 q0 365 -211 639q-29 -6 -60 -7q-61 0 -102 33q-43 0 -147.5 -230t-114.5 -470z" />
<glyph unicode="1" d="M647 1530q23 20 49 20q23 0 41 -10q35 -20 35 -74q0 -20 -4 -43q-92 -860 -92 -1392q-16 -66 -86 -68h-4q-68 0 -68 90q0 559 80 1155l-100 -110q-25 -14 -49 -15q-33 0 -62 21q-33 23 -33 51q0 25 21 53q178 246 272 322z" />
<glyph unicode="2" d="M422 1536q33 4 63 4q125 0 203 -84q96 -106 107 -274v-41q0 -150 -60 -316q-72 -190 -194.5 -343.5t-190.5 -309.5q145 10 246 10q100 0 358 -28q57 -35 58 -86q0 -8 -2 -17q-10 -57 -54 -57q-6 0 -12 2q-231 35 -381 35q-39 0 -71 -2q-160 -12 -287 -29q-16 -4 -31 -4 q-31 0 -45 22q-14 20 -14 41q0 16 8 31q96 233 254 441t213 376q47 145 47 242q0 16 -2 33q-8 104 -68 161q-33 33 -80 33q-37 0 -86 -22q-104 -49 -108 -137q-12 -45 -62 -46q-14 0 -30 5q-57 10 -58 69q0 18 9 45q98 219 270 246z" />
<glyph unicode="3" d="M707 1522q27 0 62.5 -20.5t35.5 -84.5q0 -252 -148 -522q391 -29 392 -279q2 -31 2 -59q0 -305 -152 -444q-147 -135 -307 -136q-29 0 -60 3q-293 18 -428 180q-4 18 -4 33q0 35 21 61q16 25 41 25q14 0 31 -11q186 -129 391 -129q4 0 8 2q115 4 211 119q84 100 84 244 q0 33 -2 69q0 154 -295 154q-68 0 -125 -63q-49 0 -79 28.5t-30 52.5q0 68 121 168q127 203 166 410q-154 -47 -450 -242q-27 -18 -50 -18q-25 0 -45 22q-23 25 -22 50q0 16 10 32q218 234 621 355z" />
<glyph unicode="4" d="M639 1554q25 2 45 2q96 0 123 -45l-10 -170v-510l186 21q53 -16 53 -72q0 -12 -4 -28q-16 -72 -94 -72h-14l-117 -23v-18q0 -297 57 -610q-12 -61 -80 -62q-68 0 -79 62q-57 279 -58 596q-94 0 -465 -205q-35 0 -63.5 28.5t-28.5 98.5l475 952q33 55 74 55zM365 702 q102 57 274 93v422z" />
<glyph unicode="5" d="M371 1575h47q61 -27 61 -92q215 23 326 57q72 -23 72 -70q0 -16 -11 -40q-82 -113 -420 -115l-77 -266q240 72 465 71q227 0 247 -202q4 -27 4 -60q0 -176 -137 -496q-162 -367 -420 -372h-20q-223 0 -344 164q-125 180 -125 473q8 59 61 65h11q63 0 75 -65 q29 -414 254 -465q29 -8 58 -8q186 0 303 290q123 299 123 400q0 12 -2 22q-16 80 -136 80h-10q-131 -4 -538 -96q-74 39 -74 119l137 442q15 164 70 164z" />
<glyph unicode="6" d="M594 1579q16 6 31 6q29 0 53 -24q25 -25 24 -52q0 -16 -8 -32q-213 -303 -274.5 -492.5t-108.5 -552.5q119 215 289 334t225 119q25 8 45 8q80 0 113 -96q0 -373 -227.5 -591t-407.5 -231h-115q-74 25 -92 150q0 705 187.5 1051t265.5 403zM393 160q219 92 325.5 239.5 t106.5 315.5q-262 -111 -432 -555z" />
<glyph unicode="7" d="M827 1554q16 4 29 5q43 0 64 -50q12 -29 12 -63q0 -45 -19 -105l-106 -385l176 72q12 2 18 2q39 0 68 -47q14 -25 14 -45q0 -29 -26 -49l-291 -117q-117 -469 -117 -752q-8 -96 -69 -96h-5q-20 -4 -36 -4q-66 0 -68 66q23 401 98 692l-135 -64h-10q-43 0 -74 45 q-16 25 -16 52t18 53l260 117l123 467l-606 -224q-27 0 -56.5 30t-29.5 79q2 67 784 321z" />
<glyph unicode="8" d="M387 500l-16 -17q-80 -88 -88 -190v-8q0 -55 47 -107q31 -35 90 -67q45 -25 92 -25q102 0 221 117q119 133 121 368q-61 84 -66 93q-4 4 -30 4q-43 0 -123 -25q-144 -45 -248 -143zM383 1257l-18 -20q-82 -86 -89 -186v-11q0 -55 46 -106q33 -35 92 -70q43 -25 90 -24 q102 0 223 118q117 133 119 302q-16 -16 -68 -17q-27 0 -47 14q-12 10 -20 19q-25 27 -25 57q0 29 64 90q-43 0 -123 -24q-144 -46 -244 -142zM874 838q29 0 64 -27q74 -78 74 -240q0 -51 -6 -114q-33 -246 -166 -387q-182 -154 -320 -154q-23 0 -47 4q-141 31 -246 146 l-14 16q-90 102 -90 215q0 33 8 68q31 137 137 249q70 74 97 91q-51 14 -146 116l-14 15q-90 104 -90 217q0 33 8 65q31 137 137 252t275 176q102 37 196 37q55 0 90 -8q14 16 47 16q29 0 62 -24q74 -80 74 -240q0 -53 -7 -117q-33 -245 -123 -372z" />
<glyph unicode="9" d="M530 -16q-16 -8 -30 -9q-29 0 -54 25t-24 51q0 16 8 33q215 303 275.5 492.5t107.5 551.5q-119 -215 -289 -333.5t-225 -118.5q-25 -6 -45 -6q-80 0 -113 94q0 373 228.5 591t408.5 230h113q74 -25 92 -149q0 -705 -187.5 -1051t-265.5 -401zM733 1401 q-221 -90 -327.5 -238.5t-106.5 -316.5q262 111 434 555z" />
<glyph unicode=":" horiz-adv-x="444" d="M227 240q111 0 133 -105q2 -23 2 -43q0 -123 -57 -123q-45 -12 -80 -12q-88 0 -116 57q-27 49 -27 113v23q0 72 102 88q23 2 43 2zM227 840q111 0 133 -105q2 -25 2 -43q0 -123 -57 -123q-45 -12 -80 -12q-88 0 -116 55q-27 49 -27 115v21q0 72 102 88q23 4 43 4z" />
<glyph unicode=";" horiz-adv-x="462" d="M303 -303q-27 -39 -67 -39q-18 0 -37 8q-20 6 -21 35v12q0 18 12 43q35 57 56 207h-6q-127 0 -152 131v25q14 135 150 139q143 -12 143 -186v-31q-15 -205 -78 -344zM227 840q111 0 133 -105q2 -25 2 -43q0 -123 -57 -123q-45 -12 -80 -12q-88 0 -116 55q-27 49 -27 115 v21q0 72 102 88q23 4 43 4z" />
<glyph unicode="&#x37e;" horiz-adv-x="462" d="M303 -303q-27 -39 -67 -39q-18 0 -37 8q-20 6 -21 35v12q0 18 12 43q35 57 56 207h-6q-127 0 -152 131v25q14 135 150 139q143 -12 143 -186v-31q-15 -205 -78 -344zM227 840q111 0 133 -105q2 -25 2 -43q0 -123 -57 -123q-45 -12 -80 -12q-88 0 -116 55q-27 49 -27 115 v21q0 72 102 88q23 4 43 4z" />
<glyph unicode="&#x3c;" horiz-adv-x="1067" d="M418 522q39 -4 80 -10q205 -29 403 -80q82 -18 84 -78v-22q-8 -59 -70 -60h-16q-281 68 -510 101q-123 16 -231 24h-4q-68 10 -72 66v14q0 14 6 25q8 20 31 33l8 4l4 2q100 49 209 110q201 117 430 283l12 4q18 10 37 10q33 0 53 -37q4 -4 7 -8q2 -6 4 -10v-2 q4 -12 4 -23q0 -43 -56 -80q-162 -123 -342 -225z" />
<glyph unicode="=" horiz-adv-x="1099" d="M92 821l2 4q14 61 86 62h4q109 -6 232 -6q233 0 520 26h10q72 -6 72 -76v-12q0 -4 -2 -12q-10 -61 -101 -68q-203 -25 -409 -24q-162 0 -326 14q-88 10 -88 78v14zM82 506q14 63 86 63h4q111 -10 238 -10q229 0 514 29h10q74 -6 74 -76q0 -8 -2 -12q0 -6 -2 -11 q-10 -63 -101 -69q-203 -25 -409 -25q-162 0 -324 15q-88 8 -88 77v19z" />
<glyph unicode="&#x3e;" horiz-adv-x="1067" d="M649 698q-39 4 -80 11q-205 29 -401 82q-84 16 -86 75v23q10 59 72 59h16q279 -68 508 -100q123 -16 231 -25h4q68 -10 72 -65v-15q0 -12 -6 -24q-8 -20 -31 -33l-8 -4l-4 -2q-100 -49 -209 -111q-199 -117 -430 -282l-10 -4q-20 -10 -39 -11q-33 0 -53 37q-4 4 -7 8 q-2 6 -2 11l-2 2q-4 12 -4 22q0 43 56 80q162 123 342 225z" />
<glyph unicode="?" horiz-adv-x="991" d="M334 440v19q0 201 192 381q195 184 230 356q2 10 2 23q0 131 -99 178q-59 29 -129 28q-55 0 -116 -22q-127 -41 -166 -359q-37 -41 -80 -40q-10 0 -21 2q-61 14 -65 90q61 383 268 448q100 33 189 33q90 0 168 -37q158 -68 190 -225q12 -47 12 -94q0 -102 -49 -199 q-66 -137 -212 -288.5t-154 -295.5q-18 -55 -76 -55h-10q-68 4 -74 57zM444 240q111 0 134 -105q2 -23 2 -43q0 -123 -58 -123q-45 -12 -80 -12q-88 0 -116 57q-27 49 -27 113v23q0 72 102 88q23 2 43 2z" />
<glyph unicode="@" horiz-adv-x="1845" d="M862 1212q72 6 142 7q319 0 517.5 -171t209.5 -436q2 -14 2 -28q-10 -221 -136.5 -318.5t-203.5 -97.5q-12 0 -27 2q-39 0 -76 8q-176 20 -280 139q-215 -268 -373 -278q-10 -2 -21 -2q-139 0 -161 149q-4 29 -4 60q0 133 79 286q98 188 369 316q190 88 272 88 q35 0 52 -16q31 -31 30 -62q0 -23 -16 -45q-616 -186 -637 -592q10 -29 37 -28q49 0 154 106q158 164 167 252q6 63 64 63q18 0 43 -6q70 0 70 -137t186 -147q20 -2 43 -2q104 0 156.5 75.5t52.5 196.5q0 16 -2 33q0 154 -150.5 292t-419.5 138h-36q-35 0 -70 -2 q-332 -18 -481 -281q-131 -223 -131 -504q0 -45 4 -90v-4q2 -209 227 -250q33 -4 66 -4q197 0 409 201q18 12 35 12q25 0 43 -24q23 -31 23 -72q0 -14 -3 -31q-39 -125 -276 -205q-121 -47 -240 -47q-115 0 -227 43q-229 86 -229 357v6q-2 47 -2 92q0 360 157 623 q176 294 592 335z" />
<glyph unicode="A" horiz-adv-x="1253" d="M623 1573q55 0 67 -152.5t146 -646.5l94 74q29 14 55 14q33 0 59 -26q27 -27 27 -50q0 -20 -14 -34l-170 -154q0 -66 315 -692v-21q-39 -59 -94 -59q-12 0 -25 2q-68 0 -348 666q-317 -266 -547 -535q-33 -25 -59 -25q-29 0 -51 29q-27 29 -27 60q0 25 17 47 q152 193 264 612.5t140 655t151 235.5zM397 410l269 258l-74 399q-48 -372 -195 -657z" />
<glyph unicode="B" horiz-adv-x="1495" d="M303 938l8 -20q168 104 295 503v11q0 43 -14 43q-8 0 -19 -7q-168 -149 -270 -530zM319 676v-314h15q57 0 90 -88q72 -172 276 -172q489 47 584 560q0 205 -428 204q-537 -43 -537 -190zM332 133l2 -90q0 -80 -82 -80q-86 0 -92 70v612q0 213 -109 830q0 49 20.5 68.5 t75.5 19.5q57 0 91 -322q174 399 370 399q143 -6 144 -176q0 -180 -168 -489q117 37 276 37q119 0 258 -23q326 -53 326 -272q-45 -502 -455 -715q-135 -53 -280 -53q-55 0 -115 10q-121 0 -262 174z" />
<glyph unicode="C" horiz-adv-x="1136" d="M913 496q10 55 72 59h19q74 -4 81 -72q-14 -199 -92 -333q-109 -190 -352 -207h-41q-29 0 -57 2q-322 20 -426 264q-41 92 -51 209q-4 43 -5 90q0 31 2 63q29 205 149 443.5t251 404.5q119 152 262 160q10 2 18 2q10 0 17 -2q197 -29 223.5 -158t34.5 -198v-23 q0 -47 -25 -72q-23 -18 -47 -20h-10q-6 2 -12 2q-41 12 -54 41q-16 55 -24 139l-4 37v8q-8 74 -88 74h-2q-10 0 -17 -2q-102 -4 -184 -127q-90 -137 -189.5 -322.5t-128.5 -363.5q-4 -27 -4 -53q0 -47 4 -88q8 -80 35 -148q66 -193 283 -209h55q172 10 248 170q47 95 59 230 z" />
<glyph unicode="D" horiz-adv-x="1134" d="M338 88q-2 -4 6 8q557 121 580 676q4 35 4 64q0 35 -6 61q-25 319 -205 553q-389 -481 -400 -1135zM322 -2q-16 -27 -60 -31l-8 -2q-76 10 -84 109q2 213 2 368q0 219 -6 316q-10 160 -115 715q14 66 72 69h8q51 0 80 -53l80 -418q254 485 438 602q256 -246 348 -719 q6 -35 6 -82q0 -29 -2 -63q-23 -698 -665 -864h-8q-23 0 -56 8q-28 31 -30 45z" />
<glyph unicode="E" horiz-adv-x="1161" d="M156 1585q78 0 82 -74v-38l612 77q23 6 39 6q57 0 74 -63q2 -14 2 -27q0 -66 -84 -77l-658 -86v-588l377 18q43 12 70 12q63 0 71 -57q2 -12 2 -16q0 -74 -98 -86l-395 -25q53 -446 266 -446h47q193 0 332 69q156 82 180 82q27 0 55 -24q31 -29 31 -56q0 -23 -20 -43 q-250 -182 -598 -182q-59 0 -123 8q-348 78 -348 840v702q6 74 84 74z" />
<glyph unicode="F" horiz-adv-x="876" d="M113 700q-2 12 -4 29q-27 242 -39 492q-6 139 -9 282q2 72 91 72q76 0 86 -82l522 53q18 8 39 8q55 0 73 -65q4 -14 5 -27v-2q0 -63 -82 -76l-562 -57q2 -123 7 -242q14 -279 36 -374q244 0 426 39q8 2 15 2q49 0 65 -60v-4q2 -2 2 -8q2 -10 2 -21q0 -55 -59 -71 q-221 -49 -430 -49l28 -267q17 -172 33 -260q-8 -61 -82 -61q-8 0 -10 2q-86 2 -86 37l-2 24q-27 260 -51 539q-25 12 -35 51v2q-2 6 -2 10q-2 14 -2 27q0 43 25 57z" />
<glyph unicode="G" horiz-adv-x="1214" d="M997 145q-113 -193 -352 -211q-27 -2 -55 -2h-45q-319 16 -426 258q-41 90 -53 203q-4 43 -5 92q0 31 2 64v4q20 203 141.5 444.5t254.5 409.5q115 152 262 164h37q195 -27 220.5 -156t33.5 -192q2 -14 2 -25q0 -45 -25 -70q-23 -20 -47 -20h-6q-8 0 -16 2q-37 8 -52 37 q-16 55 -24 139l-4 37v6q-8 76 -82 76h-2l-29 -2q-100 -8 -180 -133q-92 -137 -195.5 -328.5t-122.5 -366.5q-2 -29 -2 -55q0 -45 4 -88q8 -80 35 -145q68 -195 287 -207h57q172 16 248 176q47 96 62 233q-106 -25 -191 -30q-31 -2 -59 -2q-63 0 -115 12q-70 0 -76 55l-2 4 v19q0 66 51 74l9 2q70 -10 141 -11q45 0 90 4q121 10 250 48h8q45 0 55 -48q14 -14 19 -34l2 -11q-4 -43 -4 -86q0 -66 6 -131q16 -143 67 -297v-4q2 -6 3 -10q0 -47 -50 -53h-16q-66 0 -84 69q-15 41 -27 86z" />
<glyph unicode="H" horiz-adv-x="1103" d="M274 559q166 219 388 475q-51 193 -64 375v35q25 61 68 65l30 4h4q51 0 58 -83q4 -82 45 -254l53 45q51 37 90 36q25 0 45 -14q33 -27 33 -55v-6q-2 -23 -27 -49q-88 -59 -161 -142q119 -612 235 -1038q2 -12 2 -23q0 -47 -37 -71q-37 -18 -63 -19q-29 0 -49 25 q-150 575 -219 979q-68 -53 -244 -283.5t-277 -589.5q-29 -14 -51 -14q-61 0 -82 68l45 333q25 274 25 529q0 317 -37 602q14 39 84 51q18 4 31 4q27 0 45 -20q35 -319 35 -688q-1 -150 -5 -277z" />
<glyph unicode="I" horiz-adv-x="391" d="M244 -47l-6 2q-70 0 -88 41q-68 559 -68 1122v86q2 158 10 314q4 59 74 63h14q66 0 70 -53q-6 -150 -6 -295v-47q0 -545 65 -1178v-4q1 -47 -65 -51z" />
<glyph unicode="J" horiz-adv-x="387" d="M-125 -340q-158 0 -281 31q-25 14 -24 45v33q0 49 24 67q23 12 44 12q12 0 22 -4q76 -18 197 -18q188 20 243 174q35 106 35 438q0 391 -47 1092q2 55 76 55h8q78 -2 94 -49q39 -602 39 -995q0 -281 -20 -455q-37 -426 -410 -426z" />
<glyph unicode="K" horiz-adv-x="1130" d="M199 1563q41 -78 51 -387v-191q260 344 606 557q20 12 45 12q23 0 43 -14q31 -33 33 -65v-9q0 -41 -23 -57q-397 -242 -616 -573q401 -569 636.5 -763t477.5 -194q68 0 68 -67q0 -20 -7 -48q-23 -57 -108 -57q-8 0 -16 2q-322 31 -550.5 254t-588.5 684v-606 q-10 -66 -78 -70h-6q-61 0 -76 70v1214q-8 133 -29 250q20 66 82 66q25 0 56 -8z" />
<glyph unicode="L" horiz-adv-x="978" d="M139 1622q4 2 11 2q57 0 73 -76v-198q0 -510 64 -815q76 -367 223 -402q51 -12 121 -12q117 0 270 39q12 2 21 2q53 0 57 -70v-8q0 -70 -70 -86q-152 -35 -282 -35q-102 0 -195 21q-209 51 -297 413q-74 311 -74 932q0 104 2 219q10 68 76 74z" />
<glyph unicode="M" horiz-adv-x="1757" d="M899 985q162 545 426 596q305 -285 371 -1542v-4q0 -72 -78 -72h-6q-55 4 -76 76q-35 952 -246 1360q-248 -201 -303 -891v-451q-31 -70 -80 -69h-12q-61 10 -68 71v269q-90 911 -256 1097q-301 -510 -340 -1140v-275q-29 -68 -90 -67h-4q-76 18 -76 114q10 365 11 742 v661q18 66 75 66t84 -64v-452q150 516 371 608q195 -117 297 -633z" />
<glyph unicode="N" horiz-adv-x="1214" d="M238 1196q35 -307 34 -670q0 -238 -20 -491v-4q0 -80 -74 -86q-6 -2 -14 -2q-70 0 -72 86q18 219 19 458q0 455 -60 1004q43 78 94 78h11q57 -10 128.5 -162t618.5 -891q-18 295 -24 557q-2 109 -2 205q0 131 4 233q6 72 73 72h7q74 -4 81 -72q-14 -143 -14 -344v-108 q4 -270 43 -608q2 -92 88 -433q4 -10 4 -24v-2q0 -39 -49 -53q-25 -6 -43 -7q-27 0 -41 15q-20 18 -99 197.5t-214 345t-267 366.5t-212 340z" />
<glyph unicode="O" horiz-adv-x="1140" d="M510 1636q186 0 388 -316t202 -630q-43 -461 -219 -604q-168 -133 -377 -133h-31q-233 10 -332.5 203.5t-99.5 449.5t108.5 528.5t278.5 397.5v12q0 74 82 92zM197 618v-47q0 -225 104 -364q68 -92 191 -92q78 0 178 37q256 98 270 563q-8 328 -256 626q0 -197 -82 -221 q-18 -4 -33 -4q-72 0 -73 80q29 90 28 137q0 33 -14 39q-76 0 -188.5 -248t-124.5 -506z" />
<glyph unicode="P" horiz-adv-x="1030" d="M139 1520h2q78 -16 111 -146q29 -127 55 -319q96 279 196.5 393.5t160.5 140.5q27 12 55 13q12 0 29 -5q147 -39 196 -221q25 -94 25 -198q0 -49 -4 -101q-6 -49 -17 -102q-45 -219 -205 -289q-86 -37 -206 -37q-92 0 -197 21q-2 -506 -14 -611q-4 -39 -9 -59 q-20 -61 -69 -61q-8 0 -17 2h-2q-61 14 -71 94q6 27 8 57q8 74 8 236q0 129 -4 315q-14 483 -109 776v35q8 68 60 68q8 0 18 -2zM403 807q55 -12 111 -12q270 0 309 362q4 35 4 68q0 156 -90 217q-187 -100 -334 -635z" />
<glyph unicode="Q" horiz-adv-x="1140" d="M823 270q106 141 117 445q-8 328 -266 639q-96 16 -164 18q-76 0 -188.5 -249t-124.5 -505v-47q0 -225 102 -364q70 -92 193 -92q76 0 178 37q23 8 37 16l-23 33q-25 33 -49 69q-18 25 -19 49q0 27 17 50q4 8 8 10q8 10 16 16q20 18 39 19q18 0 35 -15l6 -6l49 -71z M813 39q-137 -86 -309 -86h-31q-233 10 -332.5 202.5t-99.5 450.5t109.5 529.5t277.5 396.5v12q0 72 82 92q186 0 388 -316t202 -630q-37 -393 -168 -551q43 -49 88 -90q4 -4 8 -10q14 -16 14 -37q0 -23 -18 -47l-8 -8q-6 -6 -10 -13q-20 -18 -43 -18q-20 0 -41 18 q-60 54 -109 105z" />
<glyph unicode="R" horiz-adv-x="1028" d="M401 807q57 -12 111 -12q272 0 309 362q4 35 4 68q0 156 -90 217q-187 -100 -334 -635zM338 535q-4 -387 -14 -476q-4 -41 -9 -59q-20 -61 -69 -61q-8 0 -17 2h-2q-59 14 -71 94q6 27 8 57q8 74 8 236q0 129 -4 315q-14 483 -109 774v37q8 68 60 68q10 0 20 -2h2 q78 -18 109 -146q29 -129 57 -319q94 276 195.5 393t159.5 141q29 12 55 13q14 0 28 -5q150 -39 197 -221q25 -94 25 -198q0 -49 -4 -101q-6 -51 -17 -100q-45 -221 -205 -291q-86 -37 -206 -37q-33 0 -66 2q309 -418 506 -579q236 -193 475 -193q68 0 68 -67q0 -23 -7 -48 q-23 -57 -108 -57q-8 0 -17 2q-322 31 -550 254q-199 195 -498 572z" />
<glyph unicode="S" horiz-adv-x="1030" d="M334 1559q80 37 158 36q61 0 118 -20q147 -47 172 -277v-24q0 -74 -67 -80h-17q-74 0 -73 72q-20 172 -133 172h-19q-123 -12 -123 -154v-18q8 -172 258 -341t326 -331q55 -113 55 -232q0 -55 -12 -112q-39 -182 -219 -262q-90 -39 -193 -39q-102 0 -217 37 q-240 80 -307 522q6 84 68 100q14 2 24 2q45 0 84 -45q47 -379 201 -428q74 -25 139 -24q82 0 154 34q117 55 116 218v26q-43 209 -274 340q-362 242 -373 535v2q2 228 154 291z" />
<glyph unicode="T" horiz-adv-x="1019" d="M559 1380q-2 -72 -2 -147v-47q0 -545 66 -1178v-4q0 -47 -66 -51l-6 2q-70 0 -88 41q-68 559 -68 1122v86l4 168q-129 -6 -327 -6q-72 2 -72 70v8q4 76 59 82q158 0 351 12q12 39 69 43h15q53 0 65 -33l393 31q68 -2 68 -70v-10q-6 -76 -78 -92q-236 -19 -383 -27z" />
<glyph unicode="U" horiz-adv-x="1120" d="M856 408q-150 -432 -448 -447q-195 20 -275 326q-61 238 -61 850q0 152 4 323v25q27 41 78 41q16 0 36 -6q43 -25 43 -101v-180q-2 -100 -2 -195q0 -920 168 -919h7q242 23 428 698q-4 141 -5 295v86q2 158 11 314q4 59 73 63h15q66 0 69 -53q-6 -150 -6 -295v-47 q0 -545 66 -1178v-4q0 -47 -66 -51l-6 2q-70 0 -88 41q-25 205 -41 412z" />
<glyph unicode="V" horiz-adv-x="1175" d="M1042 1706q14 6 31 6q53 0 103 -72q0 -78 -132.5 -472t-202 -584.5t-130.5 -589.5q-10 -41 -66 -41q-12 0 -29 2q-59 6 -116.5 244.5t-255.5 722.5l-244 508q0 92 61 92q25 0 62 -19q74 -74 238.5 -455.5t248.5 -621.5q0 86 391 1151q-8 31 -8 53q0 58 49 76z" />
<glyph unicode="W" horiz-adv-x="1691" d="M1524 1462h35q49 -2 61 -45q-39 -158 -57 -338l-9 -102q-6 -59 -8 -121q-2 -55 -2 -115v-39q2 -410 68 -659q-20 -70 -101 -70h-14q-88 10 -318.5 333t-336.5 593q-195 -248 -508 -874q-29 -31 -60 -31h-2q-16 0 -32 8q-35 18 -35 55v9q2 16 8 34l6 62q6 76 8 151 q2 74 2 146q0 549 -157 997v17q2 51 39 63q35 10 55 10h6q100 -18 168 -368q49 -256 49 -525q0 -53 -2 -106q-2 -51 -2 -74q213 401 393 639q23 55 74 55h4q10 0 14 -2q68 -12 74 -69q217 -496 463 -813q-37 182 -37 419q0 47 2 99q2 53 6 110l8 90q14 160 48 328 q10 115 90 133z" />
<glyph unicode="X" horiz-adv-x="1249" d="M1047 1567q49 0 49 -54v-10q-45 -268 -295 -823l446 -586q2 -16 2 -31q0 -45 -28 -73q-20 -20 -45 -21q-23 0 -52 19l-409 516q-4 0 -90 -169t-173 -307.5t-128 -174.5q-20 -4 -41 -5q-31 0 -66 11q-35 12 -35 41q0 18 13 43q215 299 401 719l-588 811q-8 18 -8 36 q0 27 25 54q25 29 57 28q16 0 33 -8l549 -729q94 131 256 653q2 66 77 66q23 0 50 -6z" />
<glyph unicode="Y" horiz-adv-x="923" d="M780 1567q29 37 62 37q6 0 14 -2q12 -2 27 -11q41 -27 41 -88q0 -16 -2 -39q-272 -926 -422 -1279t-369 -466q-12 -6 -29 -6q-43 0 -79 64q-8 18 -9 37q0 39 39 69q231 217 339 486.5t132 445.5q-326 451 -516 553q-8 16 -8 35q0 8 2 18q4 18 16 41q25 39 62 39 q6 0 16 -2l6 -2q98 -20 496 -491z" />
<glyph unicode="Z" horiz-adv-x="1433" d="M1096 1468q20 10 41 11q6 0 16 -2q20 -6 37 -27q25 -29 24 -61v-13q-2 -14 -6 -24q-219 -555 -716 -1063q29 4 51 4q78 0 182 -25q98 -25 217 -67q172 -68 287 -95q72 -18 121 -20l6 -2q78 -18 78 -88v-14q-2 -16 -9 -39q-33 -33 -92 -33q-23 0 -51 6q-12 2 -31 6 q-100 25 -325 103q-106 37 -197 59q-123 29 -213 29h-10q-160 -2 -379 -191q-80 18 -104 51q-23 29 -23 60v8q8 66 167 182.5t444.5 479t377.5 589.5q-160 -31 -297 -30q-184 0 -467 24q-51 16 -51 72q0 8 2 16q0 6 2 15q27 49 88 49q20 0 47 -6q170 -14 320 -15 q270 0 463 51z" />
<glyph unicode="[" horiz-adv-x="714" d="M162 1620q174 -4 352 -16q35 -2 51 -23q8 -6 13 -16q6 -12 8 -29v-14q0 -29 -19 -43q-4 -4 -12 -9q-12 -6 -31 -6q-139 8 -276 11q59 -463 59 -943q0 -156 -6 -321q0 -55 -4 -113q-2 -170 -14 -342h252q35 -2 55 -20q6 -6 10 -15q8 -12 10 -28l2 -17q0 -27 -16 -43 q-6 -6 -14 -8q-10 -6 -29 -8h-74q-145 0 -289 -4v8q-23 4 -36 19q-4 4 -7 12q-6 12 -8 31q10 193 17 380v64q6 174 6 344q0 518 -60 1083v7q0 25 17 38q6 6 12 11q12 4 31 6v4z" />
<glyph unicode="\" horiz-adv-x="858" d="M78 1677q8 0 14 -2q20 -4 31 -24l2 -6q213 -625 541 -1278l26 -54l160 -307q6 -14 6 -26q0 -8 -2 -15q-6 -20 -33 -35q-4 -2 -12 -4q-16 -6 -31 -6q-8 0 -18 2q-25 6 -41 33l-172 328l-47 90q-340 674 -502 1222v11q0 12 4 22q8 25 39 39l6 4q17 6 29 6z" />
<glyph unicode="]" horiz-adv-x="714" d="M553 -387q-174 6 -352 16q-35 4 -54 25q-6 6 -10 14q-6 12 -8 29v16q0 27 18 43q4 4 13 6q12 6 30 9q139 -8 277 -13q-59 465 -59 942q0 158 6 324q0 53 2 111q4 170 14 342h-82q-84 0 -170 2q-33 0 -53 20q-6 6 -10 14q-8 12 -13 29v14q0 29 17 46q6 4 14 8q10 6 29 8 h74q145 0 288 2v-8q23 -2 37 -17q4 -6 6 -14q6 -10 8 -29q-10 -195 -16 -381v-63q-6 -174 -6 -344q0 -520 57 -1083l2 -9q-2 -25 -16 -39l-12 -8q-12 -6 -31 -6v-6z" />
<glyph unicode="^" horiz-adv-x="831" d="M375 1229q-8 -39 -19 -78q-49 -199 -123 -389q-27 -76 -81 -76h-5l-20 2q-55 14 -55 68v10l2 6l2 8q96 268 153 494q29 119 50 225v4q16 63 69 64h10l4 -2h5q12 0 22 -9q20 -10 29 -34q2 -2 6 -9v-2q37 -106 88 -219q96 -211 238 -456l4 -13q6 -16 6 -30v-7 q-4 -33 -43 -51q-4 -2 -10 -4h-11v-2q-8 -2 -14 -2t-10 2q-43 2 -74 62q-106 174 -190 364z" />
<glyph unicode="_" horiz-adv-x="784" d="M936 -104q2 -4 2 -11q0 -4 -2 -6q-8 -63 -115 -69q-354 0 -852 -52h-16q-106 0 -107 80v12q10 63 134 80q371 39 790 39h39q127 -1 127 -73z" />
<glyph unicode="`" horiz-adv-x="583" d="M281 1225l188 -203q12 -12 12 -25v-8q-2 -6 -6 -14q-10 -16 -26 -17q-4 0 -11 3q-4 2 -10 4l-278 161q-47 37 -48 78q0 6 2 17q2 12 13 24q27 41 59 41q6 0 14 -2l17 -4q51 -24 74 -55z" />
<glyph unicode="a" horiz-adv-x="923" d="M651 496q-319 -61 -430 -244q-41 -68 -41 -107q0 -51 88 -51q20 0 45 2q215 23 338 400zM705 287q-96 -297 -383 -322q-35 -2 -66 -2q-231 0 -231 160q0 51 26 123q100 260 539 370q-150 -33 -228 -32q-88 0 -188 4l-18 2q-43 2 -90 6q-45 20 -46 70q0 8 3 16v12 q20 53 67 54h4q8 0 10 -3l2 3q55 -10 175 -17h88q84 0 149 4q98 4 213 15q51 0 60 -68v-23q2 -4 4 -10q4 -20 17 -115.5t43 -219.5t67 -261v-2q4 -8 6 -14v-10q0 -31 -43 -52l-15 -4q-18 -6 -34 -6q-37 0 -58 25l-22 82l-27 110q-14 56 -24 105z" />
<glyph unicode="b" horiz-adv-x="884" d="M289 135q8 -10 33 -10q43 0 131 35q135 53 213 209q66 129 65 219q0 16 -2 35q-8 61 -59 61q-29 0 -72 -20q-115 -59 -204 -163t-111 -220q-12 -53 -13 -86q1 -46 19 -60zM223 496q166 238 369 305q59 20 106 20q139 0 156 -180q2 -29 2 -55q0 -209 -139 -385 q-158 -199 -371 -219q-27 -4 -49 -5q-131 0 -180 82l-21 230q-10 125 -18 239q-37 289 -37 703v160q0 59 2 120q4 59 66 60q8 0 14 -2q66 -6 65 -62v-8q0 -10 -2 -22v-2q-4 -201 -4 -369q6 -393 41 -610z" />
<glyph unicode="c" horiz-adv-x="888" d="M268 301q-25 -72 -24 -121q0 -14 2 -28q8 -43 33 -52q25 -10 59 -10q23 0 49 4q39 6 88 27q135 45 289 207q23 14 39 18h14q18 0 37 -20q10 -16 14 -35q2 -6 2 -12t-2 -13q0 -16 -10 -33q-121 -160 -334 -239q-76 -27 -139 -39q-45 -8 -84 -8q-59 0 -102 20 q-61 29 -84 94q-6 18 -11 37q-4 29 -4 64t4 76q12 109 102.5 258t185.5 216.5t167 86.5l6 2q8 0 25 2q18 4 35 4q96 0 120 -127l5 -27q2 -8 2 -20q0 -53 -52 -72q-8 -6 -18 -8h-6q-8 -2 -14 -2q-29 0 -33 31l-2 8q-18 59 -39 59h-2q-4 2 -11 2q-6 0 -14 -2h-4 q-39 -10 -100.5 -62t-109.5 -123t-79 -163z" />
<glyph unicode="d" horiz-adv-x="999" d="M657 520q12 51 13 86q0 43 -19 60q-10 10 -33 10q-43 0 -131 -35q-135 -53 -213 -209q-68 -129 -67 -219q0 -18 4 -35q8 -61 59 -61q29 0 72 20q115 57 203.5 160.5t111.5 222.5zM711 811q-10 190 -11 420v160q0 59 2 120q10 59 66 60q6 0 14 -2q66 0 66 -60v-10 q0 -10 -2 -24q-4 -201 -4 -369q4 -326 28 -531q16 -109 43 -243q27 -125 64 -273v-2q4 -8 4 -14q2 -6 2 -12q0 -33 -43 -56l-12 -4q-18 -4 -35 -4q-35 0 -53 25l-23 88l-24 119q-20 90 -35 174q-176 -297 -410 -373q-59 -20 -106 -20q-139 0 -156 180q-2 29 -2 55 q0 209 139 383q158 201 371 221q16 2 33 2q47 0 84 -14v4z" />
<glyph unicode="e" horiz-adv-x="882" d="M139 408q-18 18 -18 55q10 63 69 63h17q82 125 168 187q94 68 166 86l6 2q8 0 24 2q10 2 19 2q104 0 180 -232q2 -8 2 -14t-2 -12q-4 -88 -145 -141q-154 -33 -273 -33q-39 0 -73 4q-16 -37 -29 -76q-25 -72 -25 -121q0 -16 2 -28q8 -43 33 -52q25 -10 59 -10q23 0 50 4 q39 6 88 27q135 45 288 207q23 14 39 18h15q18 0 37 -20q10 -16 14 -35q2 -6 2 -12t-2 -13q0 -16 -10 -33q-121 -160 -334 -239q-76 -27 -139 -39q-45 -8 -84 -8q-59 0 -103 20q-61 29 -84 94q-6 18 -10 37q-4 29 -4 64t4 76q8 76 53 170zM360 508q53 0 166 12q70 16 88 49 q-2 4 -12 43q-12 37 -33 37h-2q-4 2 -10 2t-14 -2h-4q-39 -10 -101 -61q-41 -37 -78 -80z" />
<glyph unicode="f" horiz-adv-x="636" d="M139 563q-51 6 -104 15q-29 6 -29 55v18q6 66 47 66l78 -8v67q0 276 29 445v6q29 174 90 289t164 114q14 0 30 -2l15 -2q117 -20 159 -80q2 -14 3 -26q0 -14 -3 -27q-4 -23 -18 -39q-18 -18 -43 -18h-8l-12 4q-43 29 -78 35q-8 2 -17 2q-23 0 -41 -11q-47 -20 -92 -286 l-2 -13q-23 -131 -22 -295q0 -82 6 -172q113 0 262 9h2q8 4 16 4h2q39 0 56 -54l2 -12v-14q0 -49 -35 -70q-45 -4 -90 -6q-78 -6 -160 -6h-39q14 -98 37 -219q27 -125 62 -273l2 -2q4 -8 4 -14q2 -6 2 -14q0 -33 -43 -54l-13 -4q-18 -4 -34 -4q-35 0 -56 25l-20 88l-27 119 q-27 123 -45 231q-25 29 -37 133z" />
<glyph unicode="g" horiz-adv-x="964" d="M633 662q-12 12 -41 12q-39 0 -109 -25q-119 -41 -213 -184q-90 -137 -90 -242v-12q6 -111 88 -111t204 126t157 268q18 74 18 116q0 38 -14 52zM735 360q-174 -338 -418 -376q-39 -6 -71 -7q-186 0 -195 197v29q0 217 148 401q156 197 372 213q14 2 29 2q174 0 227 -184 q27 -76 45 -186q41 -248 41 -420v-6q0 -168 -39 -285q-45 -133 -251 -148q-37 -4 -70 -4q-160 0 -262 58q-20 12 -25 43q-2 10 -2 18q0 18 6 37q10 23 37 33q10 4 23 4q14 0 26 -6q117 -37 185 -45q12 -2 24 -2q55 0 121 28q80 33 80 289v12q0 139 -31 305z" />
<glyph unicode="h" horiz-adv-x="929" d="M266 567q96 229 271 254q8 2 16 2t16 -2h13q154 0 229 -223q43 -125 63 -264q10 -82 13 -166q2 -39 2 -80v-10q0 -59 -37 -80q-20 -18 -43 -21h-16q-8 0 -19 3q-29 8 -37 51v39q8 57 8 114v25q-2 49 -10 100q-10 72 -28 152q-59 209 -129 209h-17q-66 -10 -158 -219 q-80 -186 -79 -336v-15q0 -14 2 -30l2 -43q-10 -55 -72 -68q-4 -2 -8 -2h-12q-43 0 -52 57q-14 109 -25.5 224.5l-27.5 265.5l-8 71q-10 86 -17 177l-4 51l-4 106q-2 84 -2 176q0 205 13 449q20 33 59 33h8q51 0 66 -39q-6 -203 -6 -367q0 -129 4 -231q6 -189 26 -363z" />
<glyph unicode="i" horiz-adv-x="542" d="M244 1110q45 -14 47 -66q0 -12 -6 -28q-131 -129 -174 -129q-8 0 -13 4q-45 20 -47 72q0 10 6 22q123 127 176 127q7 0 11 -2zM166 760q76 -8 76 -84v-2q-8 -74 -9 -139q0 -150 37 -263q33 -109 92 -108q29 0 64 24q33 18 57 19q23 0 43 -19q16 -20 17 -45q0 -23 -15 -51 q-57 -72 -176 -96q-16 -2 -28 -2q-102 0 -172 158q-70 156 -70 448q0 41 2 88q12 68 82 72z" />
<glyph unicode="j" horiz-adv-x="430" d="M221 1110q45 -14 49 -66q0 -12 -6 -28q-133 -129 -176 -129q-6 0 -10 4q-45 20 -47 72q0 10 4 22q123 127 178 127q4 0 8 -2zM94 688v6q0 37 37 51q31 10 57 11h15q61 -6 113.5 -304t52.5 -481v-6q0 -176 -41 -299q-47 -141 -174 -143h-15q-119 0 -170 51q-10 29 -10 53 q0 23 12 41q18 27 47 27q6 0 15 -2q47 -20 82 -21q33 0 55 17q43 29 43 299v12q0 280 -119 688z" />
<glyph unicode="k" horiz-adv-x="856" d="M248 283q6 -131 31 -269v-6q0 -47 -70 -49h-6q-59 0 -68 64q-25 164 -44 377.5t-28 414.5q-2 82 -2 158q0 115 7 217q10 172 32 346q10 43 54 43h20q68 -8 70 -53q-29 -215 -37 -402q-6 -137 -6 -229l2 -61q2 -104 26 -365q178 309 349 330q78 -8 77 -80q0 -74 -75 -74 q-66 0 -222 -254q129 -84 197 -117q117 -53 272 -84q33 -12 33 -40v-5q-4 -31 -24 -59q-16 -23 -60 -23h-8q-170 37 -276 89q-103 49 -244 131z" />
<glyph unicode="l" horiz-adv-x="540" d="M221 559h4q20 -174 58 -287q33 -109 92 -108q29 0 63 24q35 18 58 19q23 0 43 -19q18 -20 18 -45q0 -23 -16 -51q-57 -72 -176 -96q-16 -2 -27 -2q-104 0 -172 158q-59 129 -78 352q-39 268 -39 653v234q0 59 2 120q20 57 80 58h12q53 -14 54 -70q0 -10 -2 -22v-2 q-4 -201 -5 -369q4 -338 31 -547z" />
<glyph unicode="m" horiz-adv-x="1390" d="M805 66v-41q0 -49 -68 -52h-4q-66 0 -69 62q0 172 -23 362.5t-90 227.5q-10 2 -16 4q-82 0 -165 -146.5t-112 -474.5q-14 -31 -74 -31h-24q-51 2 -51 68v199q0 231 -58 458v3q0 53 72 55h10q66 0 74 -33q37 -150 43 -203l29 47q82 203 245 203h8q14 0 33 -4 q152 -45 195 -252q152 256 297 256h8q16 0 33 -4q158 -47 199.5 -268t41.5 -473v-4q0 -49 -69 -52h-2q-68 0 -72 62q0 172 -22.5 362.5t-90.5 227.5l-16 4q-80 0 -164 -146q-75 -134 -98 -417z" />
<glyph unicode="n" horiz-adv-x="907" d="M254 524l29 47q133 203 297 203h8q14 0 33 -4q158 -47 198.5 -268t40.5 -473v-4q0 -49 -67 -52h-5q-66 0 -69 62q0 172 -22.5 362.5t-90.5 227.5q-10 2 -16 4q-82 0 -190.5 -146.5t-127.5 -474.5q-4 2 -10 4v-4q-14 -31 -74 -31h-24q-51 2 -51 68v199q0 231 -58 458v3 q0 53 72 55h10q66 0 74 -33q37 -150 43 -203z" />
<glyph unicode="o" horiz-adv-x="651" d="M588 412q2 -27 2 -52q0 -170 -113 -317q-25 -27 -47 -43q-55 -43 -108 -43q-72 0 -138 80q-8 8 -14 18q-109 141 -109 334v21q6 217 148 342q8 8 18 16q49 39 99 39q68 0 131 -72q111 -124 131 -323zM412 551q-27 57 -47 86q-18 23 -29 25q-10 0 -27 -13q-25 -18 -59 -67 q-49 -76 -49 -195v-35q10 -135 61 -205l6 -8q35 -41 68 -41q18 0 35 13q51 39 69 184q6 41 6 80q1 96 -34 176z" />
<glyph unicode="p" horiz-adv-x="913" d="M285 276q-16 -74 -17 -116q0 -37 13 -51q14 -12 41 -13q39 0 108 25q119 41 213 184q90 137 90 242v12q-6 111 -88 111t-203.5 -126.5t-156.5 -267.5zM195 442q170 307 401 344q41 6 74 7q184 0 192 -197v-29q0 -217 -147 -401q-156 -197 -373 -213q-12 -2 -27 -2 q-41 0 -75 10q4 -14 6 -29q23 -123 57 -266v-2q4 -8 6 -14q1 -6 1 -12q0 -33 -42 -56l-10 -4q-18 -5 -32 -5q-33 0 -52 26q-12 45 -20 88l-25 118q-74 369 -74 616v13h2q-2 33 -2 68l-4 121v92q18 39 72 39h6h12q51 -14 54 -56q0 -6 -2 -16v-2q0 -129 2 -238z" />
<glyph unicode="q" horiz-adv-x="923" d="M618 662q-10 10 -32 10q-43 0 -131 -35q-135 -53 -213 -209q-66 -129 -66 -217q0 -18 2 -37q8 -61 60 -61q29 0 69 20q117 59 206 162.5t112 220.5q12 53 12 86q-1 46 -19 60zM662 266q-143 -203 -347 -270q-59 -20 -106 -21q-139 0 -156 181q-2 29 -2 55q0 209 139 385 q158 199 371 219q27 4 49 4q131 0 181 -82l20 -229q-4 -92 -4 -178q0 -373 65 -619q0 -59 -51 -59q-8 0 -14 2q-14 -2 -25 -2q-39 0 -39 39v4q-52 94 -81 571z" />
<glyph unicode="r" horiz-adv-x="909" d="M203 541q102 264 379 278h24q215 0 215 -170q0 -39 -12 -88q-47 -203 -260 -299q2 -2 4 -2q117 -51 274 -82q31 -12 31 -41v-4q-2 -33 -22 -59q-18 -25 -60 -25h-10q-170 37 -277 90q-102 49 -243 131q6 -133 33 -270v-4q0 -47 -72 -49h-4q-72 0 -80 63q-6 43 -28.5 164 t-28.5 328l-5 121v92q18 39 72 39h19q51 -14 53 -56q0 -6 -2 -16v-141zM301 393l59 -31q213 16 281 168q23 51 23 86q0 72 -99 72h-22q-164 -12 -242 -295z" />
<glyph unicode="s" horiz-adv-x="632" d="M213 791q45 20 92 20q37 0 70 -12q92 -29 106 -160v-14q0 -61 -65 -68h-10q-70 0 -70 64q-8 55 -31 55h-6q-27 -4 -27 -45v-8q2 -70 121 -151t160 -167q29 -59 29 -123q0 -29 -7 -59q-23 -104 -124 -150q-51 -23 -109 -22q-57 0 -119 20q-135 45 -172 281q4 63 60 80h20 q39 0 74 -39q23 -174 78 -193q29 -10 55 -10q31 0 57 14q39 18 39 78v13q-18 86 -119 143q-190 127 -196 283v2q2 129 94 168z" />
<glyph unicode="t" horiz-adv-x="948" d="M352 551l8 -37l5 -10q74 -348 157 -365q37 -8 72 -8q29 0 53 6l23 8q66 20 172 82q10 8 24 11q10 2 23 2q29 -4 43 -25q10 -16 14 -35q2 -8 2 -18v-6q0 -27 -16 -41q-88 -76 -242 -111l-72 -12q-39 -6 -73 -6q-143 0 -203 98q-61 106 -119 367v6l-20 100q-94 8 -174 21 q-29 6 -29 55v18q6 66 47 66l133 -15q-23 184 -30 408q-4 88 -5 158q0 231 43 245l13 5q16 2 35 2h20q39 -6 45 -41l2 -6q-4 -125 -4 -242q0 -303 31 -537h188q127 6 279 15h2q8 4 16 4h2q39 0 57 -54v-26q0 -49 -34 -70q-45 -4 -90 -6l-121 -4q-88 -4 -170 -4q-56 0 -107 2 z" />
<glyph unicode="u" horiz-adv-x="907" d="M657 223q-12 -23 -28 -45q-133 -205 -297 -205h-6q-16 0 -35 4q-156 47 -198 268.5t-42 473.5v4q0 49 68 51h4q68 0 72 -61q0 -172 22.5 -362.5t89.5 -227.5l17 -4q80 0 188.5 146.5t128.5 473.5q2 -2 8 -4v4q16 31 74 31h25q51 -2 51 -68v-198q0 -231 57 -459v-2 q0 -53 -72 -55h-10q-66 0 -72 32q-39 150 -45 203z" />
<glyph unicode="v" horiz-adv-x="761" d="M489 61q-2 -111 -92 -110h-8q-88 6 -88 106q0 14 2 31q-90 252 -125 341t-123 202h-2q-29 29 -28 59q0 27 22 55q29 25 57 25q25 0 52 -18q66 -98 131 -230q47 -96 106 -289q109 365 174 500q70 143 113 152q16 16 47 16q18 0 41 -6q43 -49 43 -88q0 -29 -25 -51 q-49 -10 -89 -73t-208 -622z" />
<glyph unicode="w" horiz-adv-x="1191" d="M606 436l-117 -375q-2 -111 -92 -110h-8q-88 6 -88 106q0 14 2 31q-90 252 -125 341t-123 202h-2q-29 29 -28 59q0 27 22 55q29 25 57 25q25 0 52 -18q66 -98 131 -230q47 -96 106 -289q68 225 84 304q6 27 6 47q0 43 -20 67q-14 14 -14 31q0 29 28 63q29 25 58 25 q23 0 45 -14l88 -140l49 -94q47 -96 106 -289q109 365 174 500q70 143 113 152q16 16 47 16q18 0 41 -6q43 -49 43 -88q0 -29 -24 -51q-49 -10 -89.5 -72.5t-207.5 -622.5q-2 -111 -93 -110h-8q-88 6 -88 106q0 14 2 31q-90 252 -125 342q-2 2 -2 6z" />
<glyph unicode="x" horiz-adv-x="667" d="M387 360l8 -8q145 -127 277 -205q37 -23 37 -55q0 -14 -9 -31q-2 -6 -6 -12q-25 -37 -61 -37q-20 0 -45 13q-135 78 -258 180l-4 4l-97 -242q-25 -82 -79 -82q-16 0 -37 9q-41 14 -41 49q0 39 47 96l100 262l-8 8q-88 84 -170 183q-41 31 -41 65q0 16 8 33q29 51 66 51 q16 0 35 -8l10 -4q78 -88 155 -162l9 -8q51 127 79 186q70 143 113 152q16 16 47 16q18 0 41 -6q43 -49 43 -88q0 -29 -24 -51q-49 -10 -88 -72q-25 -37 -107 -236z" />
<glyph unicode="y" horiz-adv-x="972" d="M733 360q-35 -115 -94 -202q-133 -205 -297 -205h-6q-16 0 -35 4q-156 49 -198 270.5t-42 472.5v2q0 51 68 54h4q68 0 72 -64q0 -172 22.5 -362.5t89.5 -225.5l17 -4q80 0 188 146q106 143 127 463q0 41 35 55q23 8 59 8l19 -2q49 -2 99 -285.5t50 -455.5v-6 q0 -168 -39 -285q-45 -133 -251 -148q-37 -4 -70 -4q-160 0 -262 58q-20 12 -25 43q-2 10 -2 18q0 20 6 35q10 27 37 35q10 4 23 4q12 0 26 -6q115 -39 183 -45q12 -2 24 -2q57 0 123 28q78 33 78 289v12q0 137 -29 305z" />
<glyph unicode="z" horiz-adv-x="950" d="M453 571q-39 -6 -80 -8l-117 -2q-90 4 -184 21h-11q-29 0 -45 20q-8 12 -12 29q-4 20 -4 37q0 29 12 45q10 10 23 16l8 4q86 -14 166 -16l123 -2q143 2 252 33q8 2 14 2q20 0 35 -19q6 -10 10 -26q2 -6 4 -15q2 -8 2 -16q0 -25 -10 -41q0 -14 -6 -33q-59 -133 -146 -256 l-86 -121l-79 -94h63l160 2q182 12 323 47q12 4 23 4q23 0 39 -16q10 -10 14 -29q4 -4 4 -12q2 -10 2 -21q0 -29 -18 -47q-14 -14 -39 -22q-143 -39 -295 -51l-149 -9h-33q-100 0 -205 11q-12 -2 -23 -2q-31 0 -47 18q-10 10 -16 27q-25 16 -27 41v8q0 12 4 26l2 9 q76 82 140 159l96 123q66 90 113 176z" />
<glyph unicode="{" horiz-adv-x="704" d="M387 317q0 -84 -14 -174q-27 -166 -27 -270q0 -72 12 -115q31 -96 86 -96q25 0 58 21q18 20 37 20q18 0 36 -20q23 -25 23 -54q0 -16 -6 -32q-51 -63 -164 -76q-8 -2 -16 -2q-100 0 -158 133q-37 82 -37 217q0 92 16 205q23 160 23 262q0 78 -14 123q-23 78 -66 92h-4 q-66 0 -70 74v6q0 68 74 78q43 14 66 94q14 43 14 121q0 104 -23 264q-16 113 -16 203q0 135 37 219q57 131 158 131h16q113 -12 164 -78q10 -20 10 -39q0 -25 -20 -45q-18 -18 -39 -18q-20 0 -41 16q-33 23 -58 22q-55 0 -86 -98q-12 -41 -12 -115q0 -104 27 -268 q14 -92 14 -174q0 -176 -63 -313q63 -140 63 -314z" />
<glyph unicode="|" horiz-adv-x="614" d="M264 1616h6q35 -2 54 -23q6 -8 12 -20q2 -4 2 -8q72 -506 72 -1026q0 -158 -7 -326q0 -55 -4 -113q-4 -205 -16 -411q-4 -35 -25 -54q-6 -6 -14 -10q-12 -8 -29 -10h-16q-27 2 -43 18q-4 6 -6 15q-6 12 -8 30q10 195 16 385v64q6 176 6 348q0 508 -59 1077v9q0 25 16 38 q6 6 12 11q13 4 31 6z" />
<glyph unicode="}" horiz-adv-x="704" d="M383 631q-66 137 -66 313q0 82 15 174q27 164 26 268q0 74 -12 115q-31 98 -84 98q-27 0 -57 -22q-23 -16 -43 -16t-37 18q-23 20 -23 45q0 18 13 39q49 66 161 78h19q98 0 158 -131q37 -84 36 -219q0 -90 -16 -203q-25 -160 -24 -264q0 -78 14 -121q25 -80 65 -94 q74 -10 74 -78v-6q-4 -74 -70 -74h-4q-41 -14 -65 -92q-14 -45 -14 -123q0 -102 24 -262q16 -113 16 -205q0 -135 -36 -217q-59 -133 -158 -133q-10 0 -19 2q-113 12 -161 76q-8 16 -9 32q0 29 25 54q16 20 37 20q16 0 37 -20q31 -20 57 -21q53 0 84 96q12 43 12 115 q0 104 -26 270q-14 90 -15 174q0 175 66 314z" />
<glyph unicode="~" horiz-adv-x="888" d="M618 707q14 -4 27 -5q37 0 51 39q10 27 13 68q4 37 10 57q8 23 24 31q4 2 13 2q4 0 12 -6q10 -8 16 -35q2 -20 2 -43q0 -68 -22 -151q-4 -16 -8 -29q-33 -84 -117 -84h-10q-88 4 -199 116.5t-160 127.5q-14 4 -26 4q-37 0 -51 -41q-10 -27 -13 -68q-4 -37 -12 -57 q-6 -20 -23 -29q-4 -4 -10 -4t-14 6q-10 10 -17 35q-2 23 -2 45q0 66 23 152q4 14 8 26q31 84 117 84h10q90 -4 199.5 -115.5t158.5 -125.5z" />
<glyph unicode="&#xa1;" horiz-adv-x="468" d="M305 328q29 -555 29 -830q0 -86 -2 -151v-13q0 -109 -68 -116h-4q-6 0 -10 2q-8 -2 -19 -2q-72 0 -71 108v35q6 86 6 203q0 264 -23 768q8 68 66 69h8q86 -12 88 -73zM217 557q-111 0 -133 105q-2 23 -2 43q0 123 57 122q45 12 80 13q88 0 117 -58q27 -49 26 -112v-23 q0 -72 -102 -88q-23 -2 -43 -2z" />
<glyph unicode="&#xa2;" horiz-adv-x="1032" d="M358 0h-2q-129 0 -198 51q-61 43 -72 121q-4 20 -4 41q0 63 29 152q35 115 163.5 259t247.5 199l45 19q14 94 25 186l2 4q4 14 20 17q6 2 13 2q12 0 26 -4l9 -3q29 -10 43 -28q6 -6 8 -15l2 -8q-2 -55 -8 -112h20q8 0 27 -2q143 0 143 -166v-29q0 -10 -2 -22 q-10 -57 -70 -68q-10 -4 -22 -4h-6q-45 0 -45 41v10q-8 70 -33 74q-12 4 -27 4h-6q-39 -256 -129 -545q131 39 289 152q27 12 45 12q8 0 16 -2q20 -4 35 -31q8 -18 8 -39q0 -14 -4 -28q-4 -16 -18 -33q-164 -147 -412 -191q-6 -2 -12 -2q-27 -80 -58 -157q-8 -18 -28 -23 q-8 -2 -17 -2q-12 0 -28 4q-8 2 -13 2q-25 10 -36 25l-5 10q-2 6 -2 12v6zM535 655q-59 -39 -115 -94q-68 -68 -121 -162t-53 -157q0 -49 24 -64q41 -29 117 -28h19q80 255 129 505z" />
<glyph unicode="&#xa6;" horiz-adv-x="614" d="M264 1583h6q35 0 54 -10q6 -2 12 -8q2 -2 2 -4q72 -217 72 -441q0 -68 -7 -141q0 -23 -4 -47q-4 -88 -16 -178q-4 -14 -25 -23q-6 -2 -14 -4q-12 -4 -29 -4h-16q-27 0 -43 8q-4 2 -6 6q-6 4 -8 13q10 84 16 165v27q6 76 6 150q0 219 -59 464v3q0 12 16 18l12 4q13 2 31 2 zM264 440h6q35 0 54 -10q6 -2 12 -8q2 -2 2 -4q72 -217 72 -441q0 -68 -7 -139q0 -25 -4 -49q-4 -88 -16 -178q-4 -14 -25 -23q-6 -2 -14 -4q-12 -4 -29 -4h-16q-27 0 -43 8q-4 2 -6 6q-6 4 -8 13q10 84 16 166v28q6 74 6 150q0 217 -59 463v4q0 10 16 16l12 4q13 2 31 2z " />
<glyph unicode="&#xa8;" horiz-adv-x="688" d="M205 1128q76 0 92 -73v-29q0 -88 -39 -88q-31 -8 -55 -8q-61 0 -82 41q-18 33 -19 78v16q0 49 72 61q17 2 31 2zM492 1128q78 0 92 -73q2 -16 2 -29q0 -88 -41 -88q-29 -8 -56 -8q-59 0 -81 41q-18 33 -19 78q0 8 2 16q0 49 70 61q17 2 31 2z" />
<glyph unicode="&#xa9;" horiz-adv-x="6479" d="M3596 1716h37q307 -57 307 -307q111 31 111 61v62l-12 86l12 12h12q49 -16 49 -110q0 -172 -307 -197q-74 0 -86 -160l-12 -12h-12q-20 0 -50 86q-63 0 -491 -172l-74 -12l98 -492h13q279 135 344 135q80 0 160 -319q162 -98 295 -98q184 25 184 73v37h-12q0 -39 -62 -74 l-37 37v25q0 66 99 123q18 49 36 49h62l160 -160h12v37q0 66 98 135q129 258 332 258h25l24 -24v-37q0 -98 -221 -271q197 -197 197 -553v-12q-37 -61 -86 -61q-193 98 -295 319q-49 0 -50 49q-115 184 -221 271l-37 -37l37 -98q0 -115 -258 -148q-100 0 -295 98v-12l13 -74 v-172l-25 -24q-45 0 -61 172l12 209q-51 217 -86 221q-92 0 -344 -148l49 -589v-86q0 -66 -49 -86l-13 12h-12l12 86v110q-25 428 -49 529q-408 -139 -417 -172q-84 -104 -185 -123q25 -113 62 -123h184l270 25l13 -13v-12q0 -45 -271 -61h-184q49 -123 49 -246 q-47 -246 -307 -246h-111q-289 51 -430 197q-111 141 -110 233q0 418 897 565h73q78 0 86 -98q131 25 369 148l-86 503q-160 -16 -160 -61q0 -70 -73 -111h-25l-86 25q-147 -209 -344 -209h-74q-63 0 -110 37q-43 -135 -136 -135h-12q-49 0 -110 73h-13q0 -100 -159 -184 l-50 12q-139 -147 -221 -147q-49 0 -74 49v25q0 143 148 368h24l13 -12h12q-139 -254 -147 -356l12 -13h12q72 0 172 123l-24 99v122l24 25h25q33 0 49 -98v-135h25q82 37 159 245h25l61 -123l37 -24q84 0 111 196h24q18 0 62 -86h172q127 0 282 197l13 12h12q41 0 86 -36 q49 16 49 110q-98 45 -98 160q18 49 37 49h24q49 0 86 -160h13q350 49 577 172q92 37 197 37l12 -12h12l25 74h-12q-145 0 -234 221l-74 -25l-49 37v12q133 123 258 123zM3510 1642q0 -246 271 -245h73l25 24v13q0 182 -234 221h-73zM5145 1372q74 -12 73 -37 q0 -25 -147 -37v-24q0 -41 246 -418h24q463 264 922 430l12 -12v-25q-4 -31 -504 -221q-174 -109 -405 -209v-37q209 -330 209 -503q-51 -49 -99 -50h-24q-498 72 -541 271q0 139 356 319v25q-246 348 -245 405v37q0 86 123 86zM1335 1323h25l24 -25v-24q0 -104 -86 -283 q-25 -418 -98 -676h12q246 -31 246 -73l-24 -25l-209 37h-49q-111 -360 -345 -492q-84 -49 -147 -49h-98q-209 0 -258 271v24q0 197 454 307l308 13h36q61 0 111 639q-242 -197 -713 -197h-86q-186 0 -233 74l24 24l148 -37h233q403 0 639 222q33 270 86 270zM4973 524v-12 q0 -150 466 -221h74q0 143 -196 479q-137 0 -344 -246zM4592 549h36q111 0 222 184v25q-156 0 -258 -197v-12zM4567 500l-25 -74v-12q0 -383 283 -492v62q-43 459 -258 516zM2318 389v-24q37 0 111 -86l270 98l-12 49h-49zM1753 -41v-49q0 -184 320 -320l159 -36h148 q178 0 209 184v12q0 258 -123 258q-145 47 -221 135v25l24 25h148v24h-62l-24 25v24h24q0 23 -86 74h-37q-479 -139 -479 -381zM2466 217h24v-12q123 55 123 74h-12q-135 -37 -135 -62zM389 -53q55 -184 234 -185q340 0 491 504h-86q-547 0 -639 -246v-73zM2343 131v-12 l160 -62v13l-37 73z" />
<glyph unicode="&#xaa;" horiz-adv-x="763" d="M569 1538q14 0 25 -2q35 -10 35 -78q-2 -18 -8 -43q10 -182 61 -301v-8q-2 -23 -14 -35q-16 -12 -50 -14h-6q-27 0 -34 16q-49 125 -50 168q-51 -176 -221 -211q-63 -12 -108 -12h-11q-23 2 -38 6q-49 16 -60 43q-8 18 -8 43v8q0 29 12 64q12 41 37 90q70 141 262 188 q-190 -23 -217 -22h-6q-8 4 -12 4q-29 6 -31 35v12q0 8 2 16q6 14 23 19q287 6 358 14h59zM217 1233q-31 -45 -39 -74q-2 -10 -2 -18v-4q0 -25 25 -31q4 -2 14 -2h2q23 0 55 8q139 35 201 229q8 27 14 56q-164 -4 -270 -164zM662 952v-8q-4 -37 -56 -41q-176 0 -426 -33h-8 q-49 0 -49 48v6q4 39 63 47q184 27 396 26h18q62 -2 62 -45z" />
<glyph unicode="&#xab;" horiz-adv-x="1007" d="M117 469l264 297q37 49 78 49q14 0 28 -6q43 -16 43 -57q0 -18 -6 -37l-272 -312l268 -301q6 -20 6 -39q0 -41 -43 -57q-14 -6 -28 -6q-43 0 -80 49l-269 305q-25 29 -24 56q0 27 27 53q4 2 8 6zM512 469l262 297q39 49 80 49q14 0 29 -6q43 -16 43 -57q0 -18 -6 -37 l-273 -312l268 -301q4 -20 5 -39q0 -41 -41 -57q-14 -6 -29 -6q-43 0 -80 49l-270 305q-23 29 -23 56t27 53q4 2 8 6z" />
<glyph unicode="&#xad;" horiz-adv-x="665" d="M602 489q2 -12 2 -20q0 -61 -47 -76q-172 -49 -342 -49q-41 0 -82 2q-53 0 -67 66q-2 8 -3 14q-2 14 -2 27q0 57 39 69l9 2q43 -2 84 -2q199 0 344 39q6 2 12 2q41 0 53 -59v-15z" />
<glyph unicode="&#xaf;" horiz-adv-x="665" d="M602 1176q2 -12 2 -21q0 -61 -47 -76q-172 -49 -342 -49q-41 0 -82 2q-53 0 -67 66l-3 12q-2 14 -2 29q0 55 39 67l9 4q43 -2 84 -2q199 0 344 37q6 4 12 4q41 0 53 -61v-12z" />
<glyph unicode="&#xb2;" d="M422 1536q33 4 63 4q125 0 203 -84q96 -106 107 -274v-41q0 -150 -60 -316q-72 -190 -194.5 -343.5t-190.5 -309.5q145 10 246 10q100 0 358 -28q57 -35 58 -86q0 -8 -2 -17q-10 -57 -54 -57q-6 0 -12 2q-231 35 -381 35q-39 0 -71 -2q-160 -12 -287 -29q-16 -4 -31 -4 q-31 0 -45 22q-14 20 -14 41q0 16 8 31q96 233 254 441t213 376q47 145 47 242q0 16 -2 33q-8 104 -68 161q-33 33 -80 33q-37 0 -86 -22q-104 -49 -108 -137q-12 -45 -62 -46q-14 0 -30 5q-57 10 -58 69q0 18 9 45q98 219 270 246z" />
<glyph unicode="&#xb3;" d="M707 1522q27 0 62.5 -20.5t35.5 -84.5q0 -252 -148 -522q391 -29 392 -279q2 -31 2 -59q0 -305 -152 -444q-147 -135 -307 -136q-29 0 -60 3q-293 18 -428 180q-4 18 -4 33q0 35 21 61q16 25 41 25q14 0 31 -11q186 -129 391 -129q4 0 8 2q115 4 211 119q84 100 84 244 q0 33 -2 69q0 154 -295 154q-68 0 -125 -63q-49 0 -79 28.5t-30 52.5q0 68 121 168q127 203 166 410q-154 -47 -450 -242q-27 -18 -50 -18q-25 0 -45 22q-23 25 -22 50q0 16 10 32q218 234 621 355z" />
<glyph unicode="&#xb4;" horiz-adv-x="583" d="M379 1280q6 2 14 4t15 2q35 0 61 -41q8 -12 10 -24q2 -10 2 -17q0 -41 -47 -78l-278 -161q-6 -2 -9 -4q-6 -2 -12 -3q-16 0 -26 17l-7 14v8q0 12 13 25l190 203q21 30 74 55z" />
<glyph unicode="&#xb7;" horiz-adv-x="401" d="M205 889q94 0 114 -88v-37q0 -104 -49 -105q-37 -10 -65 -10q-76 0 -101 49q-23 41 -22 95v18q0 61 88 76q19 2 35 2z" />
<glyph unicode="&#x2219;" horiz-adv-x="401" d="M205 889q94 0 114 -88v-37q0 -104 -49 -105q-37 -10 -65 -10q-76 0 -101 49q-23 41 -22 95v18q0 61 88 76q19 2 35 2z" />
<glyph unicode="&#xb8;" horiz-adv-x="548" d="M412 10l-74 -108q109 -4 108 -76q0 -20 -8 -47l-6 -17q-59 -131 -188 -131q-125 0 -142 74q20 57 86 57q35 -37 78 -41h4q33 0 58 39l2 11q2 4 2 8q0 25 -74 28q-80 6 -80 41q0 6 2 15q4 10 15 22l112 125h105z" />
<glyph unicode="&#xb9;" d="M647 1530q23 20 49 20q23 0 41 -10q35 -20 35 -74q0 -20 -4 -43q-92 -860 -92 -1392q-16 -66 -86 -68h-4q-68 0 -68 90q0 559 80 1155l-100 -110q-25 -14 -49 -15q-33 0 -62 21q-33 23 -33 51q0 25 21 53q178 246 272 322z" />
<glyph unicode="&#xba;" horiz-adv-x="702" d="M276 1522q29 16 56 16h4q31 0 59 -18q55 -37 80 -134q10 -49 12 -106l2 -25q0 -41 -6 -86q-12 -121 -92 -168q-35 -20 -67 -20h-5q-41 0 -77 31q-68 57 -80 176l-4 41v20q0 80 24 148q28 90 94 125zM281 1364q-20 -57 -21 -113v-10q2 -23 6 -43q14 -82 39 -111 q12 -16 25 -16q12 0 24 12q27 27 37 115q2 27 2 53v17q-2 51 -16 100q-23 82 -43 82q-24 -2 -53 -86zM621 936v-10q-4 -35 -56 -39q-176 0 -424 -33h-8q-51 0 -51 45v8q4 37 63 47q186 25 396 25h18q62 0 62 -43z" />
<glyph unicode="&#xbb;" horiz-adv-x="1007" d="M504 463q27 -27 26 -53q0 -27 -24 -56l-268 -305q-37 -49 -80 -49q-14 0 -29 6q-43 16 -43 57q0 18 6 39l268 301l-272 312q-6 18 -6 37q0 41 43 57q14 6 29 6q41 0 77 -49l265 -297q4 -4 8 -6zM899 463q27 -27 27 -53q0 -27 -25 -56l-268 -305q-39 -49 -80 -49 q-14 0 -29 6q-43 16 -43 57q0 18 6 39l267 301l-271 312q-6 18 -6 37q0 41 41 57q14 6 29 6q43 0 80 -49l262 -297q4 -4 10 -6z" />
<glyph unicode="&#xbf;" horiz-adv-x="991" d="M657 356v-18q0 -201 -192 -381q-195 -184 -229 -356q-2 -10 -3 -23q0 -131 99 -178q59 -29 129 -29q55 0 117 23q129 41 165 358q37 41 80 41q10 0 21 -2q61 -14 65 -90q-61 -383 -268 -449q-100 -33 -188 -32q-90 0 -168 37q-158 68 -191 225q-12 47 -12 94 q0 102 49 199q66 137 212 288.5t155 294.5q18 55 75 56h11q67 -5 73 -58zM547 557q-111 0 -133 105q-2 23 -2 43q0 123 57 122q45 12 80 13q88 0 117 -58q27 -49 26 -112v-23q0 -72 -102 -88q-23 -2 -43 -2z" />
<glyph unicode="&#xc0;" horiz-adv-x="1253" d="M623 1573q55 0 67 -152.5t146 -646.5l94 74q29 14 55 14q33 0 59 -26q27 -27 27 -50q0 -20 -14 -34l-170 -154q0 -66 315 -692v-21q-39 -59 -94 -59q-12 0 -25 2q-68 0 -348 666q-317 -266 -547 -535q-33 -25 -59 -25q-29 0 -51 29q-27 29 -27 60q0 25 17 47 q152 193 264 612.5t140 655t151 235.5zM397 410l269 258l-74 399q-48 -372 -195 -657zM553 1948l188 -203q12 -12 13 -25v-8q-2 -6 -6 -14q-10 -16 -27 -17q-4 0 -10 2q-4 2 -11 5l-278 161q-47 37 -47 78q0 6 2 17q2 12 12 24q27 41 60 41q6 0 14 -2l16 -4q51 -24 74 -55z " />
<glyph unicode="&#xc1;" horiz-adv-x="1253" d="M623 1573q55 0 67 -152.5t146 -646.5l94 74q29 14 55 14q33 0 59 -26q27 -27 27 -50q0 -20 -14 -34l-170 -154q0 -66 315 -692v-21q-39 -59 -94 -59q-12 0 -25 2q-68 0 -348 666q-317 -266 -547 -535q-33 -25 -59 -25q-29 0 -51 29q-27 29 -27 60q0 25 17 47 q152 193 264 612.5t140 655t151 235.5zM397 410l269 258l-74 399q-48 -372 -195 -657zM776 2003q6 2 15 4q8 2 14 2q35 0 61 -41q8 -12 11 -24q2 -10 2 -17q0 -41 -48 -78l-278 -161q-6 -2 -8 -5q-6 -2 -13 -2q-16 0 -26 17q-4 8 -6 14v8q0 12 12 25l190 203q21 30 74 55z " />
<glyph unicode="&#xc2;" horiz-adv-x="1253" d="M623 1573q55 0 67 -152.5t146 -646.5l94 74q29 14 55 14q33 0 59 -26q27 -27 27 -50q0 -20 -14 -34l-170 -154q0 -66 315 -692v-21q-39 -59 -94 -59q-12 0 -25 2q-68 0 -348 666q-317 -266 -547 -535q-33 -25 -59 -25q-29 0 -51 29q-27 29 -27 60q0 25 17 47 q152 193 264 612.5t140 655t151 235.5zM397 410l269 258l-74 399q-48 -372 -195 -657zM635 2001q57 -4 67 -47q139 -164 222 -240q8 -14 8 -24q0 -27 -37 -48q-25 -12 -43 -12q-25 0 -41 21q-92 115 -184 209q-92 -94 -185 -209q-16 -20 -41 -21q-18 0 -41 12q-39 20 -38 48 q0 10 8 24q82 76 221 240q10 43 67 47h17z" />
<glyph unicode="&#xc3;" horiz-adv-x="1253" d="M623 1573q55 0 67 -152.5t146 -646.5l94 74q29 14 55 14q33 0 59 -26q27 -27 27 -50q0 -20 -14 -34l-170 -154q0 -66 315 -692v-21q-39 -59 -94 -59q-12 0 -25 2q-68 0 -348 666q-317 -266 -547 -535q-33 -25 -59 -25q-29 0 -51 29q-27 29 -27 60q0 25 17 47 q152 193 264 612.5t140 655t151 235.5zM397 410l269 258l-74 399q-48 -372 -195 -657zM731 1733l8 -2q6 0 9 6q2 4 4 14v8l2 6q0 14 6 27q8 14 24 23q10 2 17 2q10 0 22 -5q10 -10 19 -26q2 -12 2 -23v-24q-4 -23 -13 -47q-2 -8 -6 -15q-23 -49 -84 -49l-6 -2h-12 q-55 6 -119 53q-59 43 -82 45q-4 2 -6 2q-6 0 -10 -6q-2 -6 -2 -14q-2 -4 -2 -10q0 -16 -6 -31q-6 -16 -25 -25q-10 -2 -16 -2h-2q-10 0 -21 7q-12 8 -20 28v47q2 20 10 45l6 13q23 49 86 51h18q55 -4 119 -51q57 -43 80 -45z" />
<glyph unicode="&#xc4;" horiz-adv-x="1253" d="M623 1573q55 0 67 -152.5t146 -646.5l94 74q29 14 55 14q33 0 59 -26q27 -27 27 -50q0 -20 -14 -34l-170 -154q0 -66 315 -692v-21q-39 -59 -94 -59q-12 0 -25 2q-68 0 -348 666q-317 -266 -547 -535q-33 -25 -59 -25q-29 0 -51 29q-27 29 -27 60q0 25 17 47 q152 193 264 612.5t140 655t151 235.5zM397 410l269 258l-74 399q-48 -372 -195 -657zM487 1851q76 0 93 -73v-29q0 -88 -39 -88q-31 -8 -56 -8q-61 0 -82 41q-18 33 -18 78v16q0 49 72 61q16 2 30 2zM774 1851q78 0 92 -73q2 -16 2 -29q0 -88 -41 -88q-29 -8 -55 -8 q-59 0 -82 41q-18 33 -18 78q0 8 2 16q0 49 69 61q17 2 31 2z" />
<glyph unicode="&#xc5;" horiz-adv-x="1253" d="M623 1573q55 0 67 -152.5t146 -646.5l94 74q29 14 55 14q33 0 59 -26q27 -27 27 -50q0 -20 -14 -34l-170 -154q0 -66 315 -692v-21q-39 -59 -94 -59q-12 0 -25 2q-68 0 -348 666q-317 -266 -547 -535q-33 -25 -59 -25q-29 0 -51 29q-27 29 -27 60q0 25 17 47 q152 193 264 612.5t140 655t151 235.5zM397 410l269 258l-74 399q-48 -372 -195 -657zM698 2038q33 -14 33 -58q0 -8 -2 -18q66 -35 66 -119q0 -156 -238 -237q-96 10 -96 77v9q0 82 86 215q-29 14 -29 37q0 14 8 28q0 23 172 66zM580 1735q10 0 59 30q39 25 39 68 q0 10 -2 20q-20 0 -58 -41.5t-38 -76.5z" />
<glyph unicode="&#xc6;" horiz-adv-x="1728" d="M387 410l268 258l-73 399q-48 -372 -195 -657zM1067 160q70 -51 150 -51q23 -2 47 -3q47 0 180 72t158 72q27 0 55 -25q31 -29 31 -55q0 -23 -21 -45q-238 -174 -407 -174q-8 0 -19 2q-43 0 -76 4l27 -51v-21q-39 -59 -94 -59q-12 0 -25 2q-68 0 -348 666 q-317 -266 -547 -535q-33 -25 -59 -25q-29 0 -51 29q-27 29 -27 60q0 25 16 47q152 193 264.5 612.5t140 655t150.5 235.5q55 0 68 -158q0 -12 2 -20l657 118q18 8 39 9q57 0 72 -66q4 -10 4 -26q0 -66 -82 -78l-663 -119q25 -129 75 -332q29 -113 74 -244l373 78 q43 12 69 13q66 0 74 -58q2 -12 2 -16q0 -74 -98 -86l-363 -76q62 -159 152 -352z" />
<glyph unicode="&#xc7;" horiz-adv-x="1136" d="M473 -47q-262 35 -356 258q-41 90 -51 207q-4 43 -5 90q0 31 2 63q29 205 148 444.5t252 405.5q117 150 264 158q8 2 16 2t17 -2q199 -29 224.5 -159t33.5 -197v-23q0 -45 -25 -72q-25 -18 -47 -20h-8q-6 2 -12 2q-43 10 -56 41q-16 55 -24 139l-4 37v8q-8 74 -88 74h-2 q-10 0 -19 -2q-98 -4 -180 -129q-90 -137 -190.5 -321.5t-129.5 -360.5q-4 -29 -4 -55q0 -47 4 -88q8 -80 35 -148q66 -193 283 -209h55q172 10 248 168q47 96 59 230q8 57 72 61h19q74 -4 81 -72q-14 -199 -90 -331q-109 -193 -354 -209h-41l-33 -35q102 -4 103 -82 q0 -20 -8 -49l-7 -17q-61 -135 -194 -135q-129 0 -148 80q23 63 95 64q35 -37 75 -41h4q29 0 52 34l2 11q2 4 2 6q0 18 -68 22q-86 6 -86 47q0 6 2 17q4 12 17 24z" />
<glyph unicode="&#xc8;" horiz-adv-x="1161" d="M156 1585q78 0 82 -74v-38l612 77q23 6 39 6q57 0 74 -63q2 -14 2 -27q0 -66 -84 -77l-658 -86v-588l377 18q43 12 70 12q63 0 71 -57q2 -12 2 -16q0 -74 -98 -86l-395 -25q53 -446 266 -446h47q193 0 332 69q156 82 180 82q27 0 55 -24q31 -29 31 -56q0 -23 -20 -43 q-250 -182 -598 -182q-59 0 -123 8q-348 78 -348 840v702q6 74 84 74zM543 1948l188 -203q12 -12 12 -25v-8q-2 -6 -6 -14q-10 -16 -26 -17q-4 0 -11 2l-10 5l-278 161q-47 37 -47 78q0 6 2 17q2 12 12 24q27 41 59 41q6 0 15 -2l16 -4q51 -24 74 -55z" />
<glyph unicode="&#xc9;" horiz-adv-x="1161" d="M156 1585q78 0 82 -74v-38l612 77q23 6 39 6q57 0 74 -63q2 -14 2 -27q0 -66 -84 -77l-658 -86v-588l377 18q43 12 70 12q63 0 71 -57q2 -12 2 -16q0 -74 -98 -86l-395 -25q53 -446 266 -446h47q193 0 332 69q156 82 180 82q27 0 55 -24q31 -29 31 -56q0 -23 -20 -43 q-250 -182 -598 -182q-59 0 -123 8q-348 78 -348 840v702q6 74 84 74zM766 2003q6 2 14 4t15 2q35 0 61 -41q8 -12 10 -24q2 -10 2 -17q0 -41 -47 -78l-278 -161q-6 -2 -8 -5q-6 -2 -13 -2q-16 0 -26 17l-7 14v8q0 12 13 25l190 203q21 30 74 55z" />
<glyph unicode="&#xca;" horiz-adv-x="1161" d="M156 1585q78 0 82 -74v-38l612 77q23 6 39 6q57 0 74 -63q2 -14 2 -27q0 -66 -84 -77l-658 -86v-588l377 18q43 12 70 12q63 0 71 -57q2 -12 2 -16q0 -74 -98 -86l-395 -25q53 -446 266 -446h47q193 0 332 69q156 82 180 82q27 0 55 -24q31 -29 31 -56q0 -23 -20 -43 q-250 -182 -598 -182q-59 0 -123 8q-348 78 -348 840v702q6 74 84 74zM625 2001q57 -4 67 -47q139 -164 221 -240q8 -14 9 -24q0 -27 -37 -48q-25 -12 -43 -12q-25 0 -41 21q-92 115 -185 209q-92 -94 -184 -209q-16 -20 -41 -21q-18 0 -41 12q-39 20 -39 48q0 10 8 24 q82 76 222 240q10 43 67 47h17z" />
<glyph unicode="&#xcb;" horiz-adv-x="1161" d="M156 1585q78 0 82 -74v-38l612 77q23 6 39 6q57 0 74 -63q2 -14 2 -27q0 -66 -84 -77l-658 -86v-588l377 18q43 12 70 12q63 0 71 -57q2 -12 2 -16q0 -74 -98 -86l-395 -25q53 -446 266 -446h47q193 0 332 69q156 82 180 82q27 0 55 -24q31 -29 31 -56q0 -23 -20 -43 q-250 -182 -598 -182q-59 0 -123 8q-348 78 -348 840v702q6 74 84 74zM477 1851q76 0 92 -73v-29q0 -88 -39 -88q-31 -8 -55 -8q-61 0 -82 41q-18 33 -18 78v16q0 49 71 61q17 2 31 2zM764 1851q78 0 92 -73q2 -16 2 -29q0 -88 -41 -88q-29 -8 -55 -8q-59 0 -82 41 q-18 33 -18 78q0 8 2 16q0 49 69 61q17 2 31 2z" />
<glyph unicode="&#xcc;" horiz-adv-x="391" d="M244 -47l-6 2q-70 0 -88 41q-68 559 -68 1122v86q2 158 10 314q4 59 74 63h14q66 0 70 -53q-6 -150 -6 -295v-47q0 -545 65 -1178v-4q1 -47 -65 -51zM121 1948l188 -203q12 -12 13 -25v-8q-2 -6 -7 -14q-10 -16 -26 -17q-4 0 -10 2q-4 2 -11 5l-278 161q-47 37 -47 78 q0 6 2 17q2 12 12 24q27 41 59 41q6 0 15 -2l16 -4q51 -24 74 -55z" />
<glyph unicode="&#xcd;" horiz-adv-x="391" d="M244 -47l-6 2q-70 0 -88 41q-68 559 -68 1122v86q2 158 10 314q4 59 74 63h14q66 0 70 -53q-6 -150 -6 -295v-47q0 -545 65 -1178v-4q1 -47 -65 -51zM346 2003q6 2 14 4t15 2q35 0 61 -41q8 -12 10 -24q2 -10 3 -17q0 -41 -48 -78l-278 -161q-6 -2 -8 -5q-6 -2 -13 -2 q-16 0 -26 17q-4 8 -6 14v8q0 12 12 25l190 203q21 30 74 55z" />
<glyph unicode="&#xce;" horiz-adv-x="391" d="M246 -47l-6 2q-70 0 -88 41q-68 559 -68 1122v86q2 158 10 314q4 59 74 63h14q66 0 70 -53q-6 -150 -6 -295v-47q0 -545 65 -1178v-4q1 -47 -65 -51zM205 2001q57 -4 67 -47q139 -164 222 -240q8 -14 8 -24q0 -27 -37 -48q-25 -12 -43 -12q-25 0 -41 21q-92 115 -184 209 q-92 -94 -185 -209q-16 -20 -41 -21q-18 0 -41 12q-39 20 -39 48q0 10 9 24q82 76 221 240q10 43 67 47h17z" />
<glyph unicode="&#xcf;" horiz-adv-x="391" d="M246 -47l-6 2q-70 0 -88 41q-68 559 -68 1122v86q2 158 10 314q4 59 74 63h14q66 0 70 -53q-6 -150 -6 -295v-47q0 -545 65 -1178v-4q1 -47 -65 -51zM57 1851q76 0 93 -73v-29q0 -88 -39 -88q-31 -8 -56 -8q-61 0 -82 41q-18 33 -18 78v16q0 49 72 61q16 2 30 2z M344 1851q78 0 92 -73q2 -16 2 -29q0 -88 -41 -88q-29 -8 -55 -8q-59 0 -82 41q-18 33 -18 78q0 8 2 16q0 49 69 61q17 2 31 2z" />
<glyph unicode="&#xd0;" horiz-adv-x="1095" d="M117 766q-10 158 -115 707q14 66 72 69h8q51 0 80 -53l80 -418q254 485 440 602q254 -248 348 -721q4 -33 4 -80q0 -29 -2 -63q-23 -698 -665 -864h-9q-23 0 -55 8q-29 31 -31 45q-14 -27 -59 -31l-8 -2q-76 10 -84 109q2 213 2 368v156l-66 -4q-84 0 -102 61q-2 6 -4 15 v16q0 61 59 74l15 2q51 2 92 4zM332 780q168 16 332 41q8 2 12 2q41 0 55 -53l2 -4q2 0 2 -8q0 -4 -2 -6q2 -6 2 -13q0 -59 -59 -75l-41 -7q-195 -29 -338 -45q-25 -141 -27 -297l19 -227q-2 -4 6 8q557 121 579 676q4 35 5 64q0 35 -7 61q-25 319 -188 567 q-256 -311 -352 -684z" />
<glyph unicode="&#xd1;" horiz-adv-x="1214" d="M238 1196q35 -307 34 -670q0 -238 -20 -491v-4q0 -80 -74 -86q-6 -2 -14 -2q-70 0 -72 86q18 219 19 458q0 455 -60 1004q43 78 94 78h11q57 -10 128.5 -162t618.5 -891q-18 295 -24 557q-2 109 -2 205q0 131 4 233q6 72 73 72h7q74 -4 81 -72q-14 -143 -14 -344v-108 q4 -270 43 -608q2 -92 88 -433q4 -10 4 -24v-2q0 -39 -49 -53q-25 -6 -43 -7q-27 0 -41 15q-20 18 -99 197.5t-214 345t-267 366.5t-212 340zM711 1733l8 -2q6 0 8 6q2 4 4 14v8l2 6q0 14 6 27q8 14 25 23q10 2 16 2q10 0 23 -5q10 -10 18 -26q2 -12 2 -23v-24 q-4 -23 -12 -47q-2 -8 -6 -15q-23 -49 -84 -49l-6 -2h-13q-55 6 -118 53q-59 43 -82 45q-4 2 -6 2q-6 0 -11 -6q-2 -6 -2 -14q-2 -4 -2 -10q0 -16 -6 -31q-6 -16 -24 -25q-10 -2 -17 -2h-2q-10 0 -20 7q-12 8 -21 28v47q2 20 10 45l7 13q23 49 86 51h18q55 -4 119 -51 q57 -43 80 -45z" />
<glyph unicode="&#xd2;" horiz-adv-x="1140" d="M510 1636q186 0 388 -316t202 -630q-43 -461 -219 -604q-168 -133 -377 -133h-31q-233 10 -332.5 203.5t-99.5 449.5t108.5 528.5t278.5 397.5v12q0 74 82 92zM197 618v-47q0 -225 104 -364q68 -92 191 -92q78 0 178 37q256 98 270 563q-8 328 -256 626q0 -197 -82 -221 q-18 -4 -33 -4q-72 0 -73 80q29 90 28 137q0 33 -14 39q-76 0 -188.5 -248t-124.5 -506zM496 1948l188 -203q12 -12 12 -25v-8q-2 -6 -6 -14q-10 -16 -26 -17q-4 0 -11 2l-10 5l-278 161q-47 37 -48 78q0 6 2 17q2 12 13 24q27 41 59 41q6 0 15 -2l16 -4q51 -24 74 -55z" />
<glyph unicode="&#xd3;" horiz-adv-x="1140" d="M510 1636q186 0 388 -316t202 -630q-43 -461 -219 -604q-168 -133 -377 -133h-31q-233 10 -332.5 203.5t-99.5 449.5t108.5 528.5t278.5 397.5v12q0 74 82 92zM197 618v-47q0 -225 104 -364q68 -92 191 -92q78 0 178 37q256 98 270 563q-8 328 -256 626q0 -197 -82 -221 q-18 -4 -33 -4q-72 0 -73 80q29 90 28 137q0 33 -14 39q-76 0 -188.5 -248t-124.5 -506zM721 2003q6 2 14 4t15 2q35 0 61 -41q8 -12 10 -24q2 -10 2 -17q0 -41 -47 -78l-278 -161q-6 -2 -9 -5q-6 -2 -12 -2q-16 0 -26 17l-7 14v8q0 12 13 25l190 203q21 30 74 55z" />
<glyph unicode="&#xd4;" horiz-adv-x="1140" d="M510 1636q186 0 388 -316t202 -630q-43 -461 -219 -604q-168 -133 -377 -133h-31q-233 10 -332.5 203.5t-99.5 449.5t108.5 528.5t278.5 397.5v12q0 74 82 92zM197 618v-47q0 -225 104 -364q68 -92 191 -92q78 0 178 37q256 98 270 563q-8 328 -256 626q0 -197 -82 -221 q-18 -4 -33 -4q-72 0 -73 80q29 90 28 137q0 33 -14 39q-76 0 -188.5 -248t-124.5 -506zM580 2001q57 -4 67 -47q139 -164 221 -240q8 -14 9 -24q0 -27 -37 -48q-25 -12 -43 -12q-25 0 -41 21q-92 115 -185 209q-92 -94 -184 -209q-16 -20 -41 -21q-18 0 -41 12 q-39 20 -39 48q0 10 8 24q82 76 222 240q10 43 67 47h17z" />
<glyph unicode="&#xd5;" horiz-adv-x="1140" d="M510 1636q186 0 388 -316t202 -630q-43 -461 -219 -604q-168 -133 -377 -133h-31q-233 10 -332.5 203.5t-99.5 449.5t108.5 528.5t278.5 397.5v12q0 74 82 92zM197 618v-47q0 -225 104 -364q68 -92 191 -92q78 0 178 37q256 98 270 563q-8 328 -256 626q0 -197 -82 -221 q-18 -4 -33 -4q-72 0 -73 80q29 90 28 137q0 33 -14 39q-76 0 -188.5 -248t-124.5 -506zM674 1733l8 -2q6 0 8 6q2 4 4 14v8l2 6q0 14 6 27q8 14 25 23q10 2 16 2q10 0 23 -5q10 -10 18 -26q2 -12 2 -23v-24q-4 -23 -12 -47q-2 -8 -6 -15q-23 -49 -84 -49l-6 -2h-12 q-55 6 -119 53q-59 43 -82 45q-4 2 -6 2q-6 0 -10 -6q-2 -6 -3 -14q-2 -4 -2 -10q0 -16 -6 -31q-6 -16 -24 -25q-10 -2 -17 -2h-2q-10 0 -20 7q-12 8 -21 28v47q2 20 11 45l6 13q23 49 86 51h18q55 -4 119 -51q57 -43 80 -45z" />
<glyph unicode="&#xd6;" horiz-adv-x="1140" d="M510 1636q186 0 388 -316t202 -630q-43 -461 -219 -604q-168 -133 -377 -133h-31q-233 10 -332.5 203.5t-99.5 449.5t108.5 528.5t278.5 397.5v12q0 74 82 92zM197 618v-47q0 -225 104 -364q68 -92 191 -92q78 0 178 37q256 98 270 563q-8 328 -256 626q0 -197 -82 -221 q-18 -4 -33 -4q-72 0 -73 80q29 90 28 137q0 33 -14 39q-76 0 -188.5 -248t-124.5 -506zM432 1851q76 0 92 -73v-29q0 -88 -39 -88q-31 -8 -55 -8q-61 0 -82 41q-18 33 -18 78v16q0 49 71 61q17 2 31 2zM719 1851q78 0 92 -73q2 -16 2 -29q0 -88 -41 -88q-29 -8 -55 -8 q-59 0 -82 41q-18 33 -19 78q0 8 2 16q0 49 70 61q17 2 31 2z" />
<glyph unicode="&#xd8;" horiz-adv-x="1140" d="M737 1274q-27 41 -51 69q0 -199 -82 -223q-18 -4 -33 -4q-72 0 -73 80q29 90 28 137q0 33 -16 39q-74 0 -186.5 -249t-124.5 -505v-47q0 -203 77 -325l9 16l26 53q248 490 426 959zM842 1106q-139 -362 -353 -789l-47 -90l-49 -94q41 -18 101 -18q76 0 178 37 q256 98 270 563q-4 205 -100 391zM190 80q-27 31 -51 78q-98 190 -98 448t109.5 529.5t277.5 396.5v12q0 72 82 92q145 0 293 -184q25 66 49 141l2 6q12 25 35 29q8 2 16 2q14 0 31 -6l8 -4q31 -16 41 -43q4 -10 4 -25v-10q-35 -121 -78 -244q188 -305 189 -608 q-43 -461 -219 -602q-168 -135 -377 -135h-31q-92 4 -158 35l-47 -90q-18 -29 -45 -35q-10 -2 -20 -2q-16 0 -33 6q-8 2 -12 4q-27 16 -37 39q-2 8 -2 16q0 14 6 29z" />
<glyph unicode="&#xd9;" horiz-adv-x="1120" d="M856 408q-150 -432 -448 -447q-195 20 -275 326q-61 238 -61 850q0 152 4 323v25q27 41 78 41q16 0 36 -6q43 -25 43 -101v-180q-2 -100 -2 -195q0 -920 168 -919h7q242 23 428 698q-4 141 -5 295v86q2 158 11 314q4 59 73 63h15q66 0 69 -53q-6 -150 -6 -295v-47 q0 -545 66 -1178v-4q0 -47 -66 -51l-6 2q-70 0 -88 41q-25 205 -41 412zM489 1948l189 -203q12 -12 12 -25v-8q-2 -6 -6 -14q-10 -16 -27 -17q-4 0 -10 2l-10 5l-279 161q-47 37 -47 78q0 6 2 17q2 12 13 24q27 41 59 41q6 0 14 -2l17 -4q50 -24 73 -55z" />
<glyph unicode="&#xda;" horiz-adv-x="1120" d="M856 408q-150 -432 -448 -447q-195 20 -275 326q-61 238 -61 850q0 152 4 323v25q27 41 78 41q16 0 36 -6q43 -25 43 -101v-180q-2 -100 -2 -195q0 -920 168 -919h7q242 23 428 698q-4 141 -5 295v86q2 158 11 314q4 59 73 63h15q66 0 69 -53q-6 -150 -6 -295v-47 q0 -545 66 -1178v-4q0 -47 -66 -51l-6 2q-70 0 -88 41q-25 205 -41 412zM715 2003q6 2 14 4t14 2q35 0 62 -41q8 -12 10 -24q2 -10 2 -17q0 -41 -47 -78l-278 -161q-6 -2 -9 -5q-6 -2 -12 -2q-16 0 -27 17q-4 8 -6 14v8q0 12 13 25l190 203q21 30 74 55z" />
<glyph unicode="&#xdb;" horiz-adv-x="1120" d="M856 408q-150 -432 -448 -447q-195 20 -275 326q-61 238 -61 850q0 152 4 323v25q27 41 78 41q16 0 36 -6q43 -25 43 -101v-180q-2 -100 -2 -195q0 -920 168 -919h7q242 23 428 698q-4 141 -5 295v86q2 158 11 314q4 59 73 63h15q66 0 69 -53q-6 -150 -6 -295v-47 q0 -545 66 -1178v-4q0 -47 -66 -51l-6 2q-70 0 -88 41q-25 205 -41 412zM573 2001q57 -4 68 -47q139 -164 221 -240q8 -14 8 -24q0 -27 -36 -48q-25 -12 -43 -12q-25 0 -41 21q-92 115 -185 209q-92 -94 -184 -209q-16 -20 -41 -21q-18 0 -41 12q-39 20 -39 48q0 10 8 24 q82 76 221 240q10 43 68 47h16z" />
<glyph unicode="&#xdc;" horiz-adv-x="1120" d="M856 408q-150 -432 -448 -447q-195 20 -275 326q-61 238 -61 850q0 152 4 323v25q27 41 78 41q16 0 36 -6q43 -25 43 -101v-180q-2 -100 -2 -195q0 -920 168 -919h7q242 23 428 698q-4 141 -5 295v86q2 158 11 314q4 59 73 63h15q66 0 69 -53q-6 -150 -6 -295v-47 q0 -545 66 -1178v-4q0 -47 -66 -51l-6 2q-70 0 -88 41q-25 205 -41 412zM426 1851q76 0 92 -73v-29q0 -88 -39 -88q-31 -8 -55 -8q-61 0 -82 41q-18 33 -18 78v16q0 49 71 61q17 2 31 2zM713 1851q78 0 92 -73q2 -16 2 -29q0 -88 -41 -88q-29 -8 -55 -8q-59 0 -82 41 q-18 33 -19 78q0 8 2 16q0 49 70 61q17 2 31 2z" />
<glyph unicode="&#xdd;" horiz-adv-x="923" d="M780 1567q29 37 62 37q6 0 14 -2q12 -2 27 -11q41 -27 41 -88q0 -16 -2 -39q-272 -926 -422 -1279t-369 -466q-12 -6 -29 -6q-43 0 -79 64q-8 18 -9 37q0 39 39 69q231 217 339 486.5t132 445.5q-326 451 -516 553q-8 16 -8 35q0 8 2 18q4 18 16 41q25 39 62 39 q6 0 16 -2l6 -2q98 -20 496 -491zM612 2003q6 2 15 4q8 2 14 2q35 0 61 -41q8 -12 11 -24q2 -10 2 -17q0 -41 -47 -78l-279 -161q-6 -2 -8 -5q-6 -2 -12 -2q-16 0 -27 17q-4 8 -6 14v8q0 12 12 25l191 203q20 30 73 55z" />
<glyph unicode="&#xde;" horiz-adv-x="1038" d="M96 1571h2q74 -16 105 -141q53 -250 104 -553q104 301 203.5 415.5t159.5 139.5q25 12 53 12q12 0 25 -2q147 -39 194 -219q25 -92 25 -197q0 -49 -6 -100q-6 -49 -15 -101q-45 -215 -201 -282q-88 -39 -206 -39q-92 0 -201 22q-4 -512 -14 -616q-4 -39 -11 -60 q-16 -57 -63 -57q-6 0 -14 2h-5q-55 12 -63 88q4 27 8 60q8 72 8 235q0 127 -6 314q-35 571 -153 985v34q8 61 53 62q8 0 18 -2zM397 653q66 -14 121 -14q274 0 316 367q4 37 4 67q0 160 -97 225q-194 -104 -344 -645z" />
<glyph unicode="&#xe0;" horiz-adv-x="923" d="M651 496q-319 -61 -430 -244q-41 -68 -41 -107q0 -51 88 -51q20 0 45 2q215 23 338 400zM705 287q-96 -297 -383 -322q-35 -2 -66 -2q-231 0 -231 160q0 51 26 123q100 260 539 370q-150 -33 -228 -32q-88 0 -188 4l-18 2q-43 2 -90 6q-45 20 -46 70q0 8 3 16v12 q20 53 67 54h4q8 0 10 -3l2 3q55 -10 175 -17h88q84 0 149 4q98 4 213 15q51 0 60 -68v-23q2 -4 4 -10q4 -20 17 -115.5t43 -219.5t67 -261v-2q4 -8 6 -14v-10q0 -31 -43 -52l-15 -4q-18 -6 -34 -6q-37 0 -58 25l-22 82l-27 110q-14 56 -24 105zM399 1225l189 -203 q12 -12 12 -25v-8q-2 -6 -6 -14q-10 -16 -27 -17q-4 0 -10 3q-4 2 -10 4l-279 161q-47 37 -47 78q0 6 2 17q2 12 13 24q27 41 59 41q6 0 14 -2l17 -4q50 -24 73 -55z" />
<glyph unicode="&#xe1;" horiz-adv-x="923" d="M651 496q-319 -61 -430 -244q-41 -68 -41 -107q0 -51 88 -51q20 0 45 2q215 23 338 400zM705 287q-96 -297 -383 -322q-35 -2 -66 -2q-231 0 -231 160q0 51 26 123q100 260 539 370q-150 -33 -228 -32q-88 0 -188 4l-18 2q-43 2 -90 6q-45 20 -46 70q0 8 3 16v12 q20 53 67 54h4q8 0 10 -3l2 3q55 -10 175 -17h88q84 0 149 4q98 4 213 15q51 0 60 -68v-23q2 -4 4 -10q4 -20 17 -115.5t43 -219.5t67 -261v-2q4 -8 6 -14v-10q0 -31 -43 -52l-15 -4q-18 -6 -34 -6q-37 0 -58 25l-22 82l-27 110q-14 56 -24 105zM625 1280q6 2 14 4t14 2 q35 0 62 -41q8 -12 10 -24q2 -10 2 -17q0 -41 -47 -78l-279 -161q-6 -2 -8 -4q-6 -2 -12 -3q-16 0 -27 17q-4 8 -6 14v8q0 12 12 25l191 203q21 30 74 55z" />
<glyph unicode="&#xe2;" horiz-adv-x="923" d="M651 496q-319 -61 -430 -244q-41 -68 -41 -107q0 -51 88 -51q20 0 45 2q215 23 338 400zM705 287q-96 -297 -383 -322q-35 -2 -66 -2q-231 0 -231 160q0 51 26 123q100 260 539 370q-150 -33 -228 -32q-88 0 -188 4l-18 2q-43 2 -90 6q-45 20 -46 70q0 8 3 16v12 q20 53 67 54h4q8 0 10 -3l2 3q55 -10 175 -17h88q84 0 149 4q98 4 213 15q51 0 60 -68v-23q2 -4 4 -10q4 -20 17 -115.5t43 -219.5t67 -261v-2q4 -8 6 -14v-10q0 -31 -43 -52l-15 -4q-18 -6 -34 -6q-37 0 -58 25l-22 82l-27 110q-14 56 -24 105zM483 1278q57 -4 68 -47 q139 -164 221 -240q8 -14 8 -24q0 -27 -37 -47q-25 -12 -43 -13q-25 0 -41 21q-92 115 -184 209q-92 -94 -184 -209q-16 -20 -41 -21q-18 0 -41 13q-39 20 -39 47q0 10 8 24q82 76 221 240q10 43 68 47h16z" />
<glyph unicode="&#xe3;" horiz-adv-x="923" d="M651 496q-319 -61 -430 -244q-41 -68 -41 -107q0 -51 88 -51q20 0 45 2q215 23 338 400zM705 287q-96 -297 -383 -322q-35 -2 -66 -2q-231 0 -231 160q0 51 26 123q100 260 539 370q-150 -33 -228 -32q-88 0 -188 4l-18 2q-43 2 -90 6q-45 20 -46 70q0 8 3 16v12 q20 53 67 54h4q8 0 10 -3l2 3q55 -10 175 -17h88q84 0 149 4q98 4 213 15q51 0 60 -68v-23q2 -4 4 -10q4 -20 17 -115.5t43 -219.5t67 -261v-2q4 -8 6 -14v-10q0 -31 -43 -52l-15 -4q-18 -6 -34 -6q-37 0 -58 25l-22 82l-27 110q-14 56 -24 105zM578 1010l8 -2q6 0 8 6 q2 4 4 14v8l2 6q0 14 6 27q8 14 25 23q10 2 16 2q10 0 23 -4q10 -10 18 -27q2 -12 2 -23v-24q-4 -23 -12 -47q-2 -8 -6 -15q-23 -49 -84 -49l-6 -2h-13q-55 6 -118 53q-59 43 -82 45q-4 2 -7 3q-6 0 -10 -7q-2 -6 -2 -14q-2 -4 -2 -10q0 -16 -6 -31q-6 -16 -25 -24 q-10 -2 -16 -3h-2q-10 0 -20 7q-12 8 -21 28v47q2 20 10 45l6 13q23 49 86 51h19q55 -4 119 -51q57 -43 80 -45z" />
<glyph unicode="&#xe4;" horiz-adv-x="923" d="M651 496q-319 -61 -430 -244q-41 -68 -41 -107q0 -51 88 -51q20 0 45 2q215 23 338 400zM705 287q-96 -297 -383 -322q-35 -2 -66 -2q-231 0 -231 160q0 51 26 123q100 260 539 370q-150 -33 -228 -32q-88 0 -188 4l-18 2q-43 2 -90 6q-45 20 -46 70q0 8 3 16v12 q20 53 67 54h4q8 0 10 -3l2 3q55 -10 175 -17h88q84 0 149 4q98 4 213 15q51 0 60 -68v-23q2 -4 4 -10q4 -20 17 -115.5t43 -219.5t67 -261v-2q4 -8 6 -14v-10q0 -31 -43 -52l-15 -4q-18 -6 -34 -6q-37 0 -58 25l-22 82l-27 110q-14 56 -24 105zM336 1128q76 0 92 -73v-29 q0 -88 -39 -88q-31 -8 -55 -8q-61 0 -82 41q-18 33 -19 78v16q0 49 72 61q17 2 31 2zM623 1128q78 0 92 -73q2 -16 2 -29q0 -88 -41 -88q-29 -8 -55 -8q-59 0 -82 41q-18 33 -19 78q0 8 2 16q0 49 70 61q17 2 31 2z" />
<glyph unicode="&#xe5;" horiz-adv-x="923" d="M651 496q-319 -61 -430 -244q-41 -68 -41 -107q0 -51 88 -51q20 0 45 2q215 23 338 400zM705 287q-96 -297 -383 -322q-35 -2 -66 -2q-231 0 -231 160q0 51 26 123q100 260 539 370q-150 -33 -228 -32q-88 0 -188 4l-18 2q-43 2 -90 6q-45 20 -46 70q0 8 3 16v12 q20 53 67 54h4q8 0 10 -3l2 3q55 -10 175 -17h88q84 0 149 4q98 4 213 15q51 0 60 -68v-23q2 -4 4 -10q4 -20 17 -115.5t43 -219.5t67 -261v-2q4 -8 6 -14v-10q0 -31 -43 -52l-15 -4q-18 -6 -34 -6q-37 0 -58 25l-22 82l-27 110q-14 56 -24 105zM545 1315q33 -14 33 -58 q0 -8 -3 -18q66 -35 66 -119q0 -156 -238 -237q-96 10 -96 78v8q0 82 86 215q-29 14 -28 37q0 14 8 28q0 23 172 66zM426 1012q10 0 59 30q39 25 39 68q0 10 -2 20q-20 0 -58 -41.5t-38 -76.5z" />
<glyph unicode="&#xe6;" horiz-adv-x="1556" d="M246 299q-45 -74 -58 -123q-6 -16 -6 -31v-6q0 -41 37 -49q10 -4 23 -4h6q31 0 80 12q215 57 305 385q12 41 22 88q-247 -6 -409 -272zM860 557q63 -2 115 -2q205 0 207 51q-53 186 -123 187h-21q-117 0 -178 -236zM668 178q-94 -174 -285 -215q-96 -20 -164 -20h-16 q-33 2 -60 8q-72 27 -90 72q-12 31 -12 71v17q2 45 18 102q18 70 56 154q106 233 397 309q-287 -35 -330 -35h-8q-12 6 -18 6q-43 12 -45 62v18q0 12 4 25q6 27 30 32q436 10 545 25q18 4 39 4q14 0 31 -2q41 -4 55 -6q78 139 215 139q211 0 313 -403q0 -125 -335 -125 q-78 0 -172 6q-16 -139 -17 -217q0 -86 53 -117q14 -8 35 -8q61 0 183 59q166 82 317 281q25 27 49 26q16 0 35 -16q25 -27 25 -59q0 -16 -5 -35q-113 -188 -344 -316q-158 -86 -270 -86q-53 0 -96 19q-125 55 -133 225z" />
<glyph unicode="&#xe7;" horiz-adv-x="888" d="M494 -16q-57 -18 -109 -29q-45 -8 -84 -8q-59 0 -102 20q-61 29 -84 94q-6 18 -11 37q-4 29 -4 64t4 76q12 109 102.5 258t185.5 216.5t167 86.5l6 2q8 0 25 2q18 4 35 4q96 0 120 -127l5 -27q2 -8 2 -20q0 -53 -52 -72q-8 -6 -18 -8h-6q-8 -2 -14 -2q-29 0 -33 31l-2 8 q-18 59 -39 59h-2q-4 2 -11 2q-6 0 -14 -2h-4q-39 -10 -100.5 -62t-109.5 -123t-79 -163q-25 -72 -24 -121q0 -14 2 -28q8 -43 33 -52q25 -10 59 -10q23 0 49 4q39 6 88 27q135 45 289 207q23 14 39 18h14q18 0 37 -20q10 -16 14 -35q2 -6 2 -12t-2 -13q0 -16 -10 -33 q-109 -143 -235 -223l-74 -108q109 -4 108 -76q0 -20 -8 -47l-6 -17q-59 -131 -188 -131q-125 0 -142 74q20 57 86 57q35 -37 78 -41h4q33 0 58 39l2 11q2 4 2 8q0 25 -74 28q-80 6 -80 41q0 6 2 15q4 10 15 22z" />
<glyph unicode="&#xe8;" horiz-adv-x="937" d="M186 408q-18 18 -18 55q10 63 70 63h16q82 125 168 187q94 68 166 86l6 2q8 0 24 2q10 2 19 2q104 0 180 -232q2 -8 2 -14t-2 -12q-4 -88 -145 -141q-154 -33 -273 -33q-39 0 -73 4q-16 -37 -29 -76q-25 -72 -25 -121q0 -16 2 -28q8 -43 33 -52q25 -10 60 -10q23 0 49 4 q39 6 88 27q135 45 289 207q23 14 38 18h15q18 0 37 -20q10 -16 14 -35q2 -6 2 -12t-2 -13q0 -16 -10 -33q-121 -160 -334 -239q-76 -27 -139 -39q-45 -8 -84 -8q-59 0 -103 20q-61 29 -84 94q-6 18 -10 37q-4 29 -4 64t4 76q8 76 53 170zM408 508q53 0 165 12q70 16 89 49 q-2 4 -13 43q-12 37 -33 37h-2q-4 2 -10 2t-14 -2h-4q-39 -10 -101 -61q-40 -37 -77 -80zM440 1225l189 -203q12 -12 12 -25v-8q-2 -6 -6 -14q-10 -16 -27 -17q-4 0 -10 3q-4 2 -10 4l-279 161q-47 37 -47 78q0 6 2 17q2 12 12 24q27 41 60 41q6 0 14 -2l17 -4 q50 -24 73 -55z" />
<glyph unicode="&#xe9;" horiz-adv-x="937" d="M186 408q-18 18 -18 55q10 63 70 63h16q82 125 168 187q94 68 166 86l6 2q8 0 24 2q10 2 19 2q104 0 180 -232q2 -8 2 -14t-2 -12q-4 -88 -145 -141q-154 -33 -273 -33q-39 0 -73 4q-16 -37 -29 -76q-25 -72 -25 -121q0 -16 2 -28q8 -43 33 -52q25 -10 60 -10q23 0 49 4 q39 6 88 27q135 45 289 207q23 14 38 18h15q18 0 37 -20q10 -16 14 -35q2 -6 2 -12t-2 -13q0 -16 -10 -33q-121 -160 -334 -239q-76 -27 -139 -39q-45 -8 -84 -8q-59 0 -103 20q-61 29 -84 94q-6 18 -10 37q-4 29 -4 64t4 76q8 76 53 170zM408 508q53 0 165 12q70 16 89 49 q-2 4 -13 43q-12 37 -33 37h-2q-4 2 -10 2t-14 -2h-4q-39 -10 -101 -61q-40 -37 -77 -80zM664 1280q6 2 14 4t14 2q35 0 62 -41q8 -12 10 -24q2 -10 2 -17q0 -41 -47 -78l-279 -161q-6 -2 -8 -4q-6 -2 -12 -3q-16 0 -27 17q-4 8 -6 14v8q0 12 12 25l191 203q21 30 74 55z " />
<glyph unicode="&#xea;" horiz-adv-x="937" d="M186 408q-18 18 -18 55q10 63 70 63h16q82 125 168 187q94 68 166 86l6 2q8 0 24 2q10 2 19 2q104 0 180 -232q2 -8 2 -14t-2 -12q-4 -88 -145 -141q-154 -33 -273 -33q-39 0 -73 4q-16 -37 -29 -76q-25 -72 -25 -121q0 -16 2 -28q8 -43 33 -52q25 -10 60 -10q23 0 49 4 q39 6 88 27q135 45 289 207q23 14 38 18h15q18 0 37 -20q10 -16 14 -35q2 -6 2 -12t-2 -13q0 -16 -10 -33q-121 -160 -334 -239q-76 -27 -139 -39q-45 -8 -84 -8q-59 0 -103 20q-61 29 -84 94q-6 18 -10 37q-4 29 -4 64t4 76q8 76 53 170zM408 508q53 0 165 12q70 16 89 49 q-2 4 -13 43q-12 37 -33 37h-2q-4 2 -10 2t-14 -2h-4q-39 -10 -101 -61q-40 -37 -77 -80zM522 1278q57 -4 68 -47q139 -164 221 -240q8 -14 8 -24q0 -27 -37 -47q-25 -12 -43 -13q-25 0 -41 21q-92 115 -184 209q-92 -94 -184 -209q-16 -20 -41 -21q-18 0 -41 13 q-39 20 -39 47q0 10 8 24q82 76 221 240q10 43 68 47h16z" />
<glyph unicode="&#xeb;" horiz-adv-x="937" d="M186 408q-18 18 -18 55q10 63 70 63h16q82 125 168 187q94 68 166 86l6 2q8 0 24 2q10 2 19 2q104 0 180 -232q2 -8 2 -14t-2 -12q-4 -88 -145 -141q-154 -33 -273 -33q-39 0 -73 4q-16 -37 -29 -76q-25 -72 -25 -121q0 -16 2 -28q8 -43 33 -52q25 -10 60 -10q23 0 49 4 q39 6 88 27q135 45 289 207q23 14 38 18h15q18 0 37 -20q10 -16 14 -35q2 -6 2 -12t-2 -13q0 -16 -10 -33q-121 -160 -334 -239q-76 -27 -139 -39q-45 -8 -84 -8q-59 0 -103 20q-61 29 -84 94q-6 18 -10 37q-4 29 -4 64t4 76q8 76 53 170zM408 508q53 0 165 12q70 16 89 49 q-2 4 -13 43q-12 37 -33 37h-2q-4 2 -10 2t-14 -2h-4q-39 -10 -101 -61q-40 -37 -77 -80zM375 1128q76 0 92 -73v-29q0 -88 -39 -88q-31 -8 -55 -8q-61 0 -82 41q-18 33 -19 78v16q0 49 72 61q17 2 31 2zM662 1128q78 0 92 -73q2 -16 2 -29q0 -88 -41 -88q-29 -8 -56 -8 q-59 0 -81 41q-18 33 -19 78q0 8 2 16q0 49 70 61q17 2 31 2z" />
<glyph unicode="&#xec;" horiz-adv-x="542" d="M166 760q76 -8 76 -84v-2q-8 -74 -9 -139q0 -150 37 -263q33 -109 92 -108q29 0 64 24q33 18 57 19q23 0 43 -19q16 -20 17 -45q0 -23 -15 -51q-57 -72 -176 -96q-16 -2 -28 -2q-102 0 -172 158q-70 156 -70 448q0 41 2 88q12 68 82 72zM33 1225l188 -203q12 -12 12 -25 v-8q-2 -6 -6 -14q-10 -16 -26 -17q-4 0 -11 3q-4 2 -10 4l-278 161q-47 37 -47 78q0 6 2 17q2 12 12 24q27 41 59 41q6 0 15 -2l16 -4q51 -24 74 -55z" />
<glyph unicode="&#xed;" horiz-adv-x="542" d="M166 760q76 -8 76 -84v-2q-8 -74 -9 -139q0 -150 37 -263q33 -109 92 -108q29 0 64 24q33 18 57 19q23 0 43 -19q16 -20 17 -45q0 -23 -15 -51q-57 -72 -176 -96q-16 -2 -28 -2q-102 0 -172 158q-70 156 -70 448q0 41 2 88q12 68 82 72zM360 1280q6 2 15 4q8 2 14 2 q35 0 62 -41q8 -12 10 -24q2 -10 2 -17q0 -41 -47 -78l-279 -161q-6 -2 -8 -4q-6 -2 -12 -3q-16 0 -27 17q-4 8 -6 14v8q0 12 12 25l191 203q20 30 73 55z" />
<glyph unicode="&#xee;" horiz-adv-x="542" d="M168 760q76 -8 76 -84v-2q-8 -74 -8 -139q0 -150 36 -263q33 -109 93 -108q29 0 63 24q33 18 57 19q23 0 43 -19q16 -20 17 -45q0 -23 -15 -51q-57 -72 -176 -96q-16 -2 -28 -2q-102 0 -172 158q-70 156 -70 448q0 41 2 88q12 68 82 72zM168 1278q57 -4 68 -47 q139 -164 221 -240q8 -14 8 -24q0 -27 -37 -47q-25 -12 -43 -13q-25 0 -41 21q-92 115 -184 209q-92 -94 -185 -209q-16 -20 -41 -21q-18 0 -40 13q-39 20 -39 47q0 10 8 24q82 76 221 240q10 43 68 47h16z" />
<glyph unicode="&#xef;" horiz-adv-x="542" d="M168 760q76 -8 76 -84v-2q-8 -74 -8 -139q0 -150 36 -263q33 -109 93 -108q29 0 63 24q33 18 57 19q23 0 43 -19q16 -20 17 -45q0 -23 -15 -51q-57 -72 -176 -96q-16 -2 -28 -2q-102 0 -172 158q-70 156 -70 448q0 41 2 88q12 68 82 72zM20 1128q76 0 93 -73v-29 q0 -88 -39 -88q-31 -8 -56 -8q-61 0 -81 41q-18 33 -19 78v16q0 49 72 61q16 2 30 2zM307 1128q78 0 92 -73q2 -16 2 -29q0 -88 -41 -88q-29 -8 -55 -8q-59 0 -82 41q-18 33 -18 78q0 8 2 16q0 49 69 61q17 2 31 2z" />
<glyph unicode="&#xf1;" horiz-adv-x="907" d="M254 524l29 47q133 203 297 203h8q14 0 33 -4q158 -47 198.5 -268t40.5 -473v-4q0 -49 -67 -52h-5q-66 0 -69 62q0 172 -22.5 362.5t-90.5 227.5q-10 2 -16 4q-82 0 -190.5 -146.5t-127.5 -474.5q-4 2 -10 4v-4q-14 -31 -74 -31h-24q-51 2 -51 68v199q0 231 -58 458v3 q0 53 72 55h10q66 0 74 -33q37 -150 43 -203zM561 1010l8 -2q6 0 9 6q2 4 4 14v8l2 6q0 14 6 27q8 14 24 23q10 2 17 2q10 0 22 -4q10 -10 19 -27q2 -12 2 -23v-24q-4 -23 -12 -47q-2 -8 -7 -15q-23 -49 -84 -49l-6 -2h-12q-55 6 -119 53q-59 43 -82 45l-6 3q-6 0 -10 -7 q-2 -6 -2 -14q-2 -4 -2 -10q0 -16 -6 -31q-6 -16 -25 -24q-10 -2 -16 -3h-2q-10 0 -21 7q-12 8 -20 28v47q2 20 10 45l6 13q23 49 86 51h18q55 -4 119 -51q57 -43 80 -45z" />
<glyph unicode="&#xf2;" horiz-adv-x="651" d="M588 412q2 -27 2 -52q0 -170 -113 -317q-25 -27 -47 -43q-55 -43 -108 -43q-72 0 -138 80q-8 8 -14 18q-109 141 -109 334v21q6 217 148 342q8 8 18 16q49 39 99 39q68 0 131 -72q111 -124 131 -323zM412 551q-27 57 -47 86q-18 23 -29 25q-10 0 -27 -13q-25 -18 -59 -67 q-49 -76 -49 -195v-35q10 -135 61 -205l6 -8q35 -41 68 -41q18 0 35 13q51 39 69 184q6 41 6 80q1 96 -34 176zM252 1225l188 -203q12 -12 13 -25v-8q-2 -6 -7 -14q-10 -16 -26 -17q-4 0 -10 3q-4 2 -11 4l-278 161q-47 37 -47 78q0 6 2 17q2 12 12 24q27 41 59 41 q6 0 15 -2l16 -4q51 -24 74 -55z" />
<glyph unicode="&#xf3;" horiz-adv-x="651" d="M588 412q2 -27 2 -52q0 -170 -113 -317q-25 -27 -47 -43q-55 -43 -108 -43q-72 0 -138 80q-8 8 -14 18q-109 141 -109 334v21q6 217 148 342q8 8 18 16q49 39 99 39q68 0 131 -72q111 -124 131 -323zM412 551q-27 57 -47 86q-18 23 -29 25q-10 0 -27 -13q-25 -18 -59 -67 q-49 -76 -49 -195v-35q10 -135 61 -205l6 -8q35 -41 68 -41q18 0 35 13q51 39 69 184q6 41 6 80q1 96 -34 176zM475 1280q6 2 14 4t15 2q35 0 61 -41q8 -12 10 -24q2 -10 3 -17q0 -41 -48 -78l-278 -161q-6 -2 -8 -4q-6 -2 -13 -3q-16 0 -26 17q-4 8 -6 14v8q0 12 12 25 l190 203q21 30 74 55z" />
<glyph unicode="&#xf4;" horiz-adv-x="651" d="M588 412q2 -27 2 -52q0 -170 -113 -317q-25 -27 -47 -43q-55 -43 -108 -43q-72 0 -138 80q-8 8 -14 18q-109 141 -109 334v21q6 217 148 342q8 8 18 16q49 39 99 39q68 0 131 -72q111 -124 131 -323zM412 551q-27 57 -47 86q-18 23 -29 25q-10 0 -27 -13q-25 -18 -59 -67 q-49 -76 -49 -195v-35q10 -135 61 -205l6 -8q35 -41 68 -41q18 0 35 13q51 39 69 184q6 41 6 80q1 96 -34 176zM334 1278q57 -4 67 -47q139 -164 222 -240q8 -14 8 -24q0 -27 -37 -47q-25 -12 -43 -13q-25 0 -41 21q-92 115 -184 209q-92 -94 -185 -209q-16 -20 -41 -21 q-18 0 -41 13q-39 20 -39 47q0 10 9 24q82 76 221 240q10 43 67 47h17z" />
<glyph unicode="&#xf5;" horiz-adv-x="651" d="M588 412q2 -27 2 -52q0 -170 -113 -317q-25 -27 -47 -43q-55 -43 -108 -43q-72 0 -138 80q-8 8 -14 18q-109 141 -109 334v21q6 217 148 342q8 8 18 16q49 39 99 39q68 0 131 -72q111 -124 131 -323zM412 551q-27 57 -47 86q-18 23 -29 25q-10 0 -27 -13q-25 -18 -59 -67 q-49 -76 -49 -195v-35q10 -135 61 -205l6 -8q35 -41 68 -41q18 0 35 13q51 39 69 184q6 41 6 80q1 96 -34 176zM430 1010l8 -2q6 0 8 6q2 4 5 14v8l2 6q0 14 6 27q8 14 24 23q10 2 17 2q10 0 22 -4q10 -10 19 -27q2 -12 2 -23v-24q-4 -23 -13 -47q-2 -8 -6 -15 q-23 -49 -84 -49l-6 -2h-12q-55 6 -119 53q-59 43 -82 45l-6 3q-6 0 -10 -7q-2 -6 -2 -14q-2 -4 -2 -10q0 -16 -6 -31q-6 -16 -25 -24q-10 -2 -16 -3h-2q-10 0 -21 7q-12 8 -20 28v47q2 20 10 45l6 13q23 49 86 51h18q55 -4 119 -51q57 -43 80 -45z" />
<glyph unicode="&#xf6;" horiz-adv-x="651" d="M588 412q2 -27 2 -52q0 -170 -113 -317q-25 -27 -47 -43q-55 -43 -108 -43q-72 0 -138 80q-8 8 -14 18q-109 141 -109 334v21q6 217 148 342q8 8 18 16q49 39 99 39q68 0 131 -72q111 -124 131 -323zM412 551q-27 57 -47 86q-18 23 -29 25q-10 0 -27 -13q-25 -18 -59 -67 q-49 -76 -49 -195v-35q10 -135 61 -205l6 -8q35 -41 68 -41q18 0 35 13q51 39 69 184q6 41 6 80q1 96 -34 176zM186 1128q76 0 93 -73v-29q0 -88 -39 -88q-31 -8 -56 -8q-61 0 -82 41q-18 33 -18 78v16q0 49 72 61q16 2 30 2zM473 1128q78 0 92 -73q2 -16 2 -29 q0 -88 -41 -88q-29 -8 -55 -8q-59 0 -82 41q-18 33 -18 78q0 8 2 16q0 49 69 61q17 2 31 2z" />
<glyph unicode="&#xf8;" horiz-adv-x="651" d="M373 625l-8 12q-18 23 -29 25q-10 0 -27 -13q-25 -18 -59 -67q-49 -76 -49 -195v-35q2 -35 8 -65zM287 121q25 -23 49 -23q18 0 35 13q51 39 69 184q6 41 6 80q0 31 -4 59l-108 -221l-47 -90v-2zM530 623q45 -92 58 -211q2 -27 2 -52q0 -170 -113 -317q-25 -27 -47 -43 q-55 -43 -108 -43q-51 0 -99 39l-61 -137q-16 -27 -41 -33q-8 -2 -19 -2q-14 0 -30 6q-8 2 -13 4q-25 14 -32 35q-2 6 -2 14q0 12 6 27q31 82 96 213q-66 119 -66 266v21q6 217 148 342q8 8 18 16q49 39 99 39q55 0 108 -49l68 164l2 6q10 20 31 24q6 2 14 2q12 0 29 -6 l8 -4q29 -14 37 -39q4 -10 4 -22v-11q-19 -75 -97 -249z" />
<glyph unicode="&#xf9;" horiz-adv-x="907" d="M657 223q-12 -23 -28 -45q-133 -205 -297 -205h-6q-16 0 -35 4q-156 47 -198 268.5t-42 473.5v4q0 49 68 51h4q68 0 72 -61q0 -172 22.5 -362.5t89.5 -227.5l17 -4q80 0 188.5 146.5t128.5 473.5q2 -2 8 -4v4q16 31 74 31h25q51 -2 51 -68v-198q0 -231 57 -459v-2 q0 -53 -72 -55h-10q-66 0 -72 32q-39 150 -45 203zM379 1225l188 -203q12 -12 13 -25v-8q-2 -6 -7 -14q-10 -16 -26 -17q-4 0 -10 3q-4 2 -11 4l-278 161q-47 37 -47 78q0 6 2 17q2 12 12 24q27 41 59 41q6 0 15 -2l16 -4q51 -24 74 -55z" />
<glyph unicode="&#xfa;" horiz-adv-x="907" d="M657 223q-12 -23 -28 -45q-133 -205 -297 -205h-6q-16 0 -35 4q-156 47 -198 268.5t-42 473.5v4q0 49 68 51h4q68 0 72 -61q0 -172 22.5 -362.5t89.5 -227.5l17 -4q80 0 188.5 146.5t128.5 473.5q2 -2 8 -4v4q16 31 74 31h25q51 -2 51 -68v-198q0 -231 57 -459v-2 q0 -53 -72 -55h-10q-66 0 -72 32q-39 150 -45 203zM604 1280q6 2 14 4t15 2q35 0 61 -41q8 -12 11 -24q2 -10 2 -17q0 -41 -48 -78l-278 -161q-6 -2 -8 -4q-6 -2 -13 -3q-16 0 -26 17q-4 8 -6 14v8q0 12 12 25l190 203q21 30 74 55z" />
<glyph unicode="&#xfb;" horiz-adv-x="907" d="M657 223q-12 -23 -28 -45q-133 -205 -297 -205h-6q-16 0 -35 4q-156 47 -198 268.5t-42 473.5v4q0 49 68 51h4q68 0 72 -61q0 -172 22.5 -362.5t89.5 -227.5l17 -4q80 0 188.5 146.5t128.5 473.5q2 -2 8 -4v4q16 31 74 31h25q51 -2 51 -68v-198q0 -231 57 -459v-2 q0 -53 -72 -55h-10q-66 0 -72 32q-39 150 -45 203zM463 1278q57 -4 67 -47q139 -164 222 -240q8 -14 8 -24q0 -27 -37 -47q-25 -12 -43 -13q-25 0 -41 21q-92 115 -184 209q-92 -94 -185 -209q-16 -20 -41 -21q-18 0 -41 13q-39 20 -38 47q0 10 8 24q82 76 221 240 q10 43 67 47h17z" />
<glyph unicode="&#xfc;" horiz-adv-x="907" d="M657 223q-12 -23 -28 -45q-133 -205 -297 -205h-6q-16 0 -35 4q-156 47 -198 268.5t-42 473.5v4q0 49 68 51h4q68 0 72 -61q0 -172 22.5 -362.5t89.5 -227.5l17 -4q80 0 188.5 146.5t128.5 473.5q2 -2 8 -4v4q16 31 74 31h25q51 -2 51 -68v-198q0 -231 57 -459v-2 q0 -53 -72 -55h-10q-66 0 -72 32q-39 150 -45 203zM315 1128q76 0 93 -73v-29q0 -88 -39 -88q-31 -8 -56 -8q-61 0 -82 41q-18 33 -18 78v16q0 49 72 61q16 2 30 2zM602 1128q78 0 92 -73q2 -16 2 -29q0 -88 -41 -88q-29 -8 -55 -8q-59 0 -82 41q-18 33 -18 78q0 8 2 16 q0 49 69 61q17 2 31 2z" />
<glyph unicode="&#xfd;" horiz-adv-x="972" d="M733 360q-35 -115 -94 -202q-133 -205 -297 -205h-6q-16 0 -35 4q-156 49 -198 270.5t-42 472.5v2q0 51 68 54h4q68 0 72 -64q0 -172 22.5 -362.5t89.5 -225.5l17 -4q80 0 188 146q106 143 127 463q0 41 35 55q23 8 59 8l19 -2q49 -2 99 -285.5t50 -455.5v-6 q0 -168 -39 -285q-45 -133 -251 -148q-37 -4 -70 -4q-160 0 -262 58q-20 12 -25 43q-2 10 -2 18q0 20 6 35q10 27 37 35q10 4 23 4q12 0 26 -6q115 -39 183 -45q12 -2 24 -2q57 0 123 28q78 33 78 289v12q0 137 -29 305zM637 1280q6 2 14 4t15 2q35 0 61 -41q8 -12 10 -24 q2 -10 2 -17q0 -41 -47 -78l-278 -161q-6 -2 -8 -4q-6 -2 -13 -3q-16 0 -26 17l-7 14v8q0 12 13 25l190 203q21 30 74 55z" />
<glyph unicode="&#xfe;" horiz-adv-x="903" d="M98 424q-25 389 -57 623q0 70 70 69q80 -10 84 -84q10 -182 43 -463q158 229 450 299q154 0 164 -223v-22q0 -211 -152 -406q-162 -209 -426 -262q-18 2 -32 6v-24q0 -160 -21 -267v-2q0 -86 -76 -88h-12q-61 6 -61 92v11q29 203 28 397q0 59 -2 110v93q-2 37 -2 77 q0 31 2 64zM246 197v-33q20 -35 88 -35q205 61 303 246q80 156 80 254q0 20 -2 37q-8 43 -45 43q-55 0 -172 -91q-193 -145 -252 -421z" />
<glyph unicode="&#xff;" horiz-adv-x="972" d="M733 360q-35 -115 -94 -202q-133 -205 -297 -205h-6q-16 0 -35 4q-156 49 -198 270.5t-42 472.5v2q0 51 68 54h4q68 0 72 -64q0 -172 22.5 -362.5t89.5 -225.5l17 -4q80 0 188 146q106 143 127 463q0 41 35 55q23 8 59 8l19 -2q49 -2 99 -285.5t50 -455.5v-6 q0 -168 -39 -285q-45 -133 -251 -148q-37 -4 -70 -4q-160 0 -262 58q-20 12 -25 43q-2 10 -2 18q0 20 6 35q10 27 37 35q10 4 23 4q12 0 26 -6q115 -39 183 -45q12 -2 24 -2q57 0 123 28q78 33 78 289v12q0 137 -29 305zM348 1128q76 0 92 -73v-29q0 -88 -39 -88 q-31 -8 -55 -8q-61 0 -82 41q-18 33 -18 78v16q0 49 71 61q17 2 31 2zM635 1128q78 0 92 -73q2 -16 2 -29q0 -88 -41 -88q-29 -8 -55 -8q-59 0 -82 41q-18 33 -19 78q0 8 3 16q0 49 69 61q17 2 31 2z" />
<glyph unicode="&#x152;" horiz-adv-x="2301" d="M1297 1585q78 0 82 -74v-38l612 77q23 6 39 6q57 0 74 -63q2 -14 2 -27q0 -66 -84 -77l-658 -86v-588l377 18q43 12 70 12q63 0 71 -57q2 -12 2 -16q0 -74 -98 -86l-395 -25q53 -446 266 -446h47q193 0 332 69q156 82 180 82q27 0 55 -24q31 -29 31 -56q0 -23 -20 -43 q-250 -182 -598 -182q-59 0 -123 8q-348 78 -348 840v702q6 74 84 74zM510 1636q186 0 388 -316t202 -630q-43 -461 -219 -604q-168 -133 -377 -133h-31q-233 10 -332.5 203.5t-99.5 449.5t108.5 528.5t278.5 397.5v12q0 74 82 92zM197 618v-47q0 -225 104 -364 q68 -92 191 -92q78 0 178 37q256 98 270 563q-8 328 -256 626q0 -197 -82 -221q-18 -4 -33 -4q-72 0 -73 80q29 90 28 137q0 33 -14 39q-76 0 -188.5 -248t-124.5 -506z" />
<glyph unicode="&#x153;" horiz-adv-x="1533" d="M790 408q-18 18 -18 55q10 63 69 63h17q82 125 168 187q94 68 166 86l6 2q8 0 24 2q10 2 19 2q104 0 180 -232q2 -8 2 -14t-2 -12q-4 -88 -145 -141q-154 -33 -273 -33q-39 0 -73 4q-16 -37 -29 -76q-25 -72 -25 -121q0 -16 2 -28q8 -43 33 -52q25 -10 59 -10q23 0 50 4 q39 6 88 27q135 45 288 207q23 14 39 18h15q18 0 37 -20q10 -16 14 -35q2 -6 2 -12t-2 -13q0 -16 -10 -33q-121 -160 -334 -239q-76 -27 -139 -39q-45 -8 -84 -8q-59 0 -103 20q-61 29 -84 94q-6 18 -10 37q-4 29 -4 64t4 76q8 76 53 170zM1011 508q53 0 166 12q70 16 88 49 q-2 4 -12 43q-12 37 -33 37h-2q-4 2 -10 2t-14 -2h-4q-39 -10 -101 -61q-41 -37 -78 -80zM588 412q2 -27 2 -52q0 -170 -113 -317q-25 -27 -47 -43q-55 -43 -108 -43q-72 0 -138 80q-8 8 -14 18q-109 141 -109 334v21q6 217 148 342q8 8 18 16q49 39 99 39q68 0 131 -72 q111 -124 131 -323zM412 551q-27 57 -47 86q-18 23 -29 25q-10 0 -27 -13q-25 -18 -59 -67q-49 -76 -49 -195v-35q10 -135 61 -205l6 -8q35 -41 68 -41q18 0 35 13q51 39 69 184q6 41 6 80q1 96 -34 176z" />
<glyph unicode="&#x178;" horiz-adv-x="923" d="M692 1957q76 0 92 -73v-29q0 -88 -39 -88q-31 -8 -55 -8q-61 0 -82 41q-18 33 -19 78v16q0 49 72 61q17 2 31 2zM979 1957q78 0 92 -73q2 -16 2 -29q0 -88 -41 -88q-29 -8 -56 -8q-59 0 -81 41q-18 33 -19 78q0 8 2 16q0 49 70 61q17 2 31 2zM780 1567q29 37 62 37 q6 0 14 -2q12 -2 27 -11q41 -27 41 -88q0 -16 -2 -39q-272 -926 -422 -1279t-369 -466q-12 -6 -29 -6q-43 0 -79 64q-8 18 -9 37q0 39 39 69q231 217 339 486.5t132 445.5q-326 451 -516 553q-8 16 -8 35q0 8 2 18q4 18 16 41q25 39 62 39q6 0 16 -2l6 -2q98 -20 496 -491z " />
<glyph unicode="&#x2c6;" horiz-adv-x="815" d="M416 1278q57 -4 67 -47q139 -164 222 -240q8 -14 8 -24q0 -27 -37 -47q-25 -12 -43 -13q-25 0 -41 21q-92 115 -184 209q-92 -94 -185 -209q-16 -20 -41 -21q-18 0 -41 13q-39 20 -39 47q0 10 9 24q82 76 221 240q10 43 67 47h17z" />
<glyph unicode="&#x2dc;" horiz-adv-x="636" d="M422 1010l8 -2q6 0 8 6q2 4 4 14v8l2 6q0 14 7 27q8 14 24 23q10 2 17 2q10 0 22 -4q10 -10 18 -27q2 -12 3 -23v-24q-4 -23 -13 -47q-2 -8 -6 -15q-23 -49 -84 -49l-6 -2h-12q-55 6 -119 53q-59 43 -82 45l-6 3q-6 0 -10 -7q-2 -6 -2 -14q-2 -4 -2 -10q0 -16 -7 -31 q-6 -16 -24 -24q-10 -2 -17 -3h-2q-10 0 -20 7q-12 8 -21 28v47q2 20 11 45l6 13q23 49 86 51h18q55 -4 119 -51q57 -43 80 -45z" />
<glyph unicode="&#x2000;" horiz-adv-x="1017" />
<glyph unicode="&#x2001;" horiz-adv-x="2037" />
<glyph unicode="&#x2002;" horiz-adv-x="1017" />
<glyph unicode="&#x2003;" horiz-adv-x="2037" />
<glyph unicode="&#x2004;" horiz-adv-x="677" />
<glyph unicode="&#x2005;" horiz-adv-x="507" />
<glyph unicode="&#x2006;" horiz-adv-x="337" />
<glyph unicode="&#x2007;" horiz-adv-x="337" />
<glyph unicode="&#x2008;" horiz-adv-x="253" />
<glyph unicode="&#x2009;" horiz-adv-x="407" />
<glyph unicode="&#x200a;" horiz-adv-x="112" />
<glyph unicode="&#x2010;" horiz-adv-x="665" d="M602 489q2 -12 2 -20q0 -61 -47 -76q-172 -49 -342 -49q-41 0 -82 2q-53 0 -67 66q-2 8 -3 14q-2 14 -2 27q0 57 39 69l9 2q43 -2 84 -2q199 0 344 39q6 2 12 2q41 0 53 -59v-15z" />
<glyph unicode="&#x2011;" horiz-adv-x="665" d="M602 489q2 -12 2 -20q0 -61 -47 -76q-172 -49 -342 -49q-41 0 -82 2q-53 0 -67 66q-2 8 -3 14q-2 14 -2 27q0 57 39 69l9 2q43 -2 84 -2q199 0 344 39q6 2 12 2q41 0 53 -59v-15z" />
<glyph unicode="&#x2012;" horiz-adv-x="665" d="M602 489q2 -12 2 -20q0 -61 -47 -76q-172 -49 -342 -49q-41 0 -82 2q-53 0 -67 66q-2 8 -3 14q-2 14 -2 27q0 57 39 69l9 2q43 -2 84 -2q199 0 344 39q6 2 12 2q41 0 53 -59v-15z" />
<glyph unicode="&#x2013;" horiz-adv-x="1024" d="M205 512v205h614v-205h-614z" />
<glyph unicode="&#x2014;" horiz-adv-x="2048" d="M205 512v205h1638v-205h-1638z" />
<glyph unicode="&#x2018;" horiz-adv-x="458" d="M162 1563q27 37 67 36q16 0 35 -6q23 -8 23 -34q0 -6 -2 -13q0 -18 -11 -43q-37 -57 -57 -207h6q127 0 152 -131q2 -14 2 -24q-14 -135 -152 -142q-143 14 -143 189v31q14 205 80 344z" />
<glyph unicode="&#x2019;" horiz-adv-x="458" d="M297 1038q-27 -39 -68 -39q-16 0 -36 9q-20 6 -21 34v13q0 18 12 43q35 57 58 207h-9q-125 0 -151 131v24q14 135 149 139q145 -12 146 -186q0 -14 -2 -31q-15 -205 -78 -344z" />
<glyph unicode="&#x201a;" horiz-adv-x="458" d="M297 -303q-27 -39 -68 -39q-16 0 -36 8q-20 6 -21 35v12q0 18 12 43q35 57 58 207h-9q-125 0 -151 131v25q14 135 149 139q145 -12 146 -186q0 -14 -2 -31q-15 -205 -78 -344z" />
<glyph unicode="&#x201c;" horiz-adv-x="870" d="M162 1563q27 37 67 36q16 0 35 -6q23 -8 23 -34q0 -6 -2 -13q0 -18 -11 -43q-37 -57 -57 -207h6q127 0 152 -131q2 -14 2 -24q-14 -135 -152 -142q-143 14 -143 189v31q14 205 80 344zM573 1563q27 37 68 36q16 0 37 -6q20 -8 20 -34q0 -6 -2 -13q0 -18 -10 -43 q-37 -57 -57 -207h6q127 0 151 -131q2 -14 2 -24q-14 -135 -151 -142q-143 14 -143 189q0 14 2 31q14 205 77 344z" />
<glyph unicode="&#x201d;" horiz-adv-x="870" d="M297 1038q-27 -39 -68 -39q-16 0 -36 9q-20 6 -21 34v13q0 18 12 43q35 57 58 207h-9q-125 0 -151 131v24q14 135 149 139q145 -12 146 -186q0 -14 -2 -31q-15 -205 -78 -344zM709 1038q-27 -39 -68 -39q-16 0 -37 9q-20 6 -20 34q0 6 2 13q0 18 10 43q37 57 57 207h-6 q-127 0 -151 131q-2 12 -2 24q14 135 151 139q143 -12 143 -186q0 -14 -2 -31q-14 -205 -77 -344z" />
<glyph unicode="&#x201e;" horiz-adv-x="870" d="M297 -262q-27 -37 -68 -37q-16 0 -36 6q-20 8 -21 35v12q0 18 12 43q35 57 58 207h-9q-125 0 -151 131v25q14 135 149 139q145 -12 146 -186q0 -14 -2 -31q-15 -205 -78 -344zM709 -262q-27 -37 -68 -37q-16 0 -37 6q-20 8 -20 35q0 6 2 12q0 18 10 43q37 57 57 207h-6 q-127 0 -151 131q-2 14 -2 25q14 135 151 139q143 -12 143 -186q0 -14 -2 -31q-14 -205 -77 -344z" />
<glyph unicode="&#x2022;" horiz-adv-x="2674" d="M1079 1303h523l294 -377l-59 -289q121 41 121 129q-20 23 -21 45q0 76 136 76q98 0 200 -135q66 -53 248 -107q0 -27 -20 -27q0 -14 6 -22q-6 -31 -53 -41q-18 -2 -41 -2q-41 0 -103 10q23 -20 129 -20q20 4 37 4q14 0 25 -4q0 -51 -195 -80l-121 8q109 -53 182 -53h39 v-8q-49 -68 -180 -68q-68 0 -153 35q0 -43 153 -94q0 -27 -74 -35q-43 0 -182 61q0 -33 68 -88q-6 -2 -17 -2q-35 0 -131 29l21 -60l-27 -8q-37 0 -129 103l-59 -283h-711l-80 283q-72 -90 -114 -103l-27 8l12 60q-82 -39 -127 -39l-12 20q59 37 59 72v8q-123 -61 -180 -61 q-68 8 -67 35q147 49 147 90v4q-70 -35 -147 -35h-27q-104 0 -156 68v8h41q72 0 127 15.5t55 37.5l-135 -8q-182 33 -182 80l14 8l47 -8q45 -2 78 -2q66 0 78 8l-149 11q-68 5 -72 32l4 18l-18 8v27q215 59 282 139q70 102 166 103q133 0 133 -76q0 -23 -18 -45 q20 -129 106 -129l-65 289zM1317 745q0 37 47 74q16 -37 41 -172q4 -29 4 -59q0 -111 -70 -240q111 98 170 191q49 78 50 149q0 16 -3 33q-12 86 -26 131q-12 47 -23 102l-157 -55q-14 -8 -33 -16v2q-6 68 -31 69q-51 -35 -168 -90q45 -14 45 -43v-241q0 -6 -11 -13l-38 -20 q47 -70 96 -70q20 0 45 15q72 45 115 59q-43 10 -48 21.5t-5 17.5v155z" />
<glyph unicode="&#x2026;" horiz-adv-x="2045" d="M227 240q111 0 133 -105q2 -23 2 -43q0 -123 -57 -123q-45 -12 -80 -12q-88 0 -116 57q-27 49 -27 113v23q0 72 102 88q23 2 43 2zM909 240q111 0 133 -105q2 -23 2 -43q0 -123 -57 -123q-45 -12 -80 -12q-88 0 -116 57q-27 49 -27 113v23q0 72 102 88q23 2 43 2z M1591 240q111 0 133 -105q2 -23 2 -43q0 -123 -57 -123q-45 -12 -80 -12q-88 0 -116 57q-27 49 -27 113v23q0 72 102 88q23 2 43 2z" />
<glyph unicode="&#x202f;" horiz-adv-x="407" />
<glyph unicode="&#x2039;" horiz-adv-x="612" d="M117 469l264 297q37 49 78 49q14 0 28 -6q43 -16 43 -57q0 -18 -6 -37l-272 -312l268 -301q6 -20 6 -39q0 -41 -43 -57q-14 -6 -28 -6q-43 0 -80 49l-269 305q-25 29 -24 56q0 27 27 53q4 2 8 6z" />
<glyph unicode="&#x203a;" horiz-adv-x="612" d="M504 463q27 -27 26 -53q0 -27 -24 -56l-268 -305q-37 -49 -80 -49q-14 0 -29 6q-43 16 -43 57q0 18 6 39l268 301l-272 312q-6 18 -6 37q0 41 43 57q14 6 29 6q41 0 77 -49l265 -297q4 -4 8 -6z" />
<glyph unicode="&#x205f;" horiz-adv-x="507" />
<glyph unicode="&#x20ac;" d="M260 922q8 61 21 127q51 201 163 366q98 147 222 156q6 2 12 2t12 -2q164 -29 185.5 -155t29.5 -193v-23q0 -43 -20 -65q-16 -16 -35 -19h-6q-6 2 -13 2q-29 10 -38 35q-14 55 -21 137q-2 18 -2 37v8q-8 82 -84 82h-2q-6 0 -16 -2q-88 -4 -158 -131q-78 -137 -113 -285 q-8 -41 -14 -77q182 2 401 24l9 -2q51 -6 51 -49q0 -8 -4 -21q0 -4 -2 -10q-16 -49 -88 -55q-174 -20 -351 -21h-30q-6 -57 -9 -104q182 2 402 29l10 -2q49 -6 49 -52q0 -10 -4 -22q0 -4 -2 -10q-14 -53 -88 -60q-184 -25 -371 -24q2 -33 4 -62q8 -82 29 -149 q57 -199 248 -215h47q150 10 217 174q39 96 51 231q6 49 54 53h16q55 -4 61 -63q-12 -197 -75 -330q-90 -186 -295 -202h-35q-25 0 -49 2q-268 20 -355 260q-35 90 -43 204q-4 43 -4 91v8l-125 8q-61 8 -61 55q0 8 2 19l2 10q16 51 76 51h2q51 -2 108 -4q4 49 11 107 q-57 4 -115 10q-63 6 -64 51q0 8 3 16l2 11q14 49 71 49h6q54 -4 115 -6z" />
<glyph unicode="&#x2122;" horiz-adv-x="1228" d="M440 1452q-61 2 -118 2h-33q-6 -106 -6 -201v-28q2 -170 16 -297v-4q0 -25 -29 -31h-10q-23 0 -29 22q-14 160 -16 326v41q0 84 2 168q-35 2 -65 2q-18 0 -37 -2h-19q-29 0 -33 4q-2 4 -2 6v6q0 12 5 27q8 18 24 20q51 0 150 11q14 12 28 14h4q14 0 27 -16h51 q143 0 146 -27v-2q8 -4 12 -14v-197q72 221 170 256q84 -45 133 -260q74 227 190 246q135 -111 166 -615q0 -27 -32 -26h-2q-23 0 -31 26q-16 383 -115 549q-115 -84 -139 -360v-158q-12 -27 -33 -27q-4 0 -6 2q-25 4 -27 25v86q-41 365 -118 442q-137 -207 -156 -460v-109 q-12 -25 -37 -25h-4q-31 6 -31 44q4 145 4 294v240z" />
<glyph unicode="&#xe000;" horiz-adv-x="815" d="M0 815h815v-815h-815v815z" />
<glyph unicode="&#xf001;" horiz-adv-x="1179" d="M139 563q-51 6 -104 15q-29 6 -29 55v18q6 66 47 66l78 -8v67q0 276 29 445v6q29 174 90 289t164 114q14 0 30 -2l15 -2q117 -20 159 -80q2 -14 3 -26q0 -14 -3 -27q-4 -23 -18 -39q-18 -18 -43 -18h-8l-12 4q-43 29 -78 35q-8 2 -17 2q-23 0 -41 -11q-47 -20 -92 -286 l-2 -13q-23 -131 -22 -295q0 -82 6 -172q113 0 262 9h2q8 4 16 4h2q39 0 56 -54l2 -12v-14q0 -49 -35 -70q-45 -4 -90 -6q-78 -6 -160 -6h-39q14 -98 37 -219q27 -125 62 -273l2 -2q4 -8 4 -14q2 -6 2 -14q0 -33 -43 -54l-13 -4q-18 -4 -34 -4q-35 0 -56 25l-20 88l-27 119 q-27 123 -45 231q-25 29 -37 133zM881 1110q45 -14 47 -66q0 -12 -6 -28q-131 -129 -174 -129q-8 0 -13 4q-45 20 -47 72q0 10 6 22q123 127 176 127q7 0 11 -2zM803 760q76 -8 76 -84v-2q-8 -74 -9 -139q0 -150 37 -263q33 -109 92 -108q29 0 64 24q33 18 57 19 q23 0 43 -19q16 -20 17 -45q0 -23 -15 -51q-57 -72 -176 -96q-16 -2 -28 -2q-102 0 -173 158q-70 156 -69 448q0 41 2 88q12 68 82 72z" />
<glyph unicode="&#xfb01;" horiz-adv-x="1179" d="M139 563q-51 6 -104 15q-29 6 -29 55v18q6 66 47 66l78 -8v67q0 276 29 445v6q29 174 90 289t164 114q14 0 30 -2l15 -2q117 -20 159 -80q2 -14 3 -26q0 -14 -3 -27q-4 -23 -18 -39q-18 -18 -43 -18h-8l-12 4q-43 29 -78 35q-8 2 -17 2q-23 0 -41 -11q-47 -20 -92 -286 l-2 -13q-23 -131 -22 -295q0 -82 6 -172q113 0 262 9h2q8 4 16 4h2q39 0 56 -54l2 -12v-14q0 -49 -35 -70q-45 -4 -90 -6q-78 -6 -160 -6h-39q14 -98 37 -219q27 -125 62 -273l2 -2q4 -8 4 -14q2 -6 2 -14q0 -33 -43 -54l-13 -4q-18 -4 -34 -4q-35 0 -56 25l-20 88l-27 119 q-27 123 -45 231q-25 29 -37 133zM881 1110q45 -14 47 -66q0 -12 -6 -28q-131 -129 -174 -129q-8 0 -13 4q-45 20 -47 72q0 10 6 22q123 127 176 127q7 0 11 -2zM803 760q76 -8 76 -84v-2q-8 -74 -9 -139q0 -150 37 -263q33 -109 92 -108q29 0 64 24q33 18 57 19 q23 0 43 -19q16 -20 17 -45q0 -23 -15 -51q-57 -72 -176 -96q-16 -2 -28 -2q-102 0 -173 158q-70 156 -69 448q0 41 2 88q12 68 82 72z" />
<glyph unicode="&#xf002;" horiz-adv-x="1177" d="M139 563q-51 6 -104 15q-29 6 -29 55v18q6 66 47 66l78 -8v67q0 276 29 445v6q29 174 90 289t164 114q14 0 30 -2l15 -2q117 -20 159 -80q2 -14 3 -26q0 -14 -3 -27q-4 -23 -18 -39q-18 -18 -43 -18h-8l-12 4q-43 29 -78 35q-8 2 -17 2q-23 0 -41 -11q-47 -20 -92 -286 l-2 -13q-23 -131 -22 -295q0 -82 6 -172q113 0 262 9h2q8 4 16 4h2q39 0 56 -54l2 -12v-14q0 -49 -35 -70q-45 -4 -90 -6q-78 -6 -160 -6h-39q14 -98 37 -219q27 -125 62 -273l2 -2q4 -8 4 -14q2 -6 2 -14q0 -33 -43 -54l-13 -4q-18 -4 -34 -4q-35 0 -56 25l-20 88l-27 119 q-27 123 -45 231q-25 29 -37 133zM858 559h4q20 -174 58 -287q33 -109 92 -108q29 0 63 24q35 18 58 19q23 0 43 -19q18 -20 18 -45q0 -23 -16 -51q-57 -72 -177 -96q-16 -2 -26 -2q-104 0 -172 158q-59 129 -78 352q-39 268 -39 653v234q0 59 2 120q20 57 80 58h12 q53 -14 54 -70q0 -10 -3 -22v-2q-4 -201 -4 -369q4 -338 31 -547z" />
<glyph unicode="&#xfb02;" horiz-adv-x="1177" d="M139 563q-51 6 -104 15q-29 6 -29 55v18q6 66 47 66l78 -8v67q0 276 29 445v6q29 174 90 289t164 114q14 0 30 -2l15 -2q117 -20 159 -80q2 -14 3 -26q0 -14 -3 -27q-4 -23 -18 -39q-18 -18 -43 -18h-8l-12 4q-43 29 -78 35q-8 2 -17 2q-23 0 -41 -11q-47 -20 -92 -286 l-2 -13q-23 -131 -22 -295q0 -82 6 -172q113 0 262 9h2q8 4 16 4h2q39 0 56 -54l2 -12v-14q0 -49 -35 -70q-45 -4 -90 -6q-78 -6 -160 -6h-39q14 -98 37 -219q27 -125 62 -273l2 -2q4 -8 4 -14q2 -6 2 -14q0 -33 -43 -54l-13 -4q-18 -4 -34 -4q-35 0 -56 25l-20 88l-27 119 q-27 123 -45 231q-25 29 -37 133zM858 559h4q20 -174 58 -287q33 -109 92 -108q29 0 63 24q35 18 58 19q23 0 43 -19q18 -20 18 -45q0 -23 -16 -51q-57 -72 -177 -96q-16 -2 -26 -2q-104 0 -172 158q-59 129 -78 352q-39 268 -39 653v234q0 59 2 120q20 57 80 58h12 q53 -14 54 -70q0 -10 -3 -22v-2q-4 -201 -4 -369q4 -338 31 -547z" />
<glyph unicode="&#xfb03;" horiz-adv-x="1816" d="M1518 1110q45 -14 47 -66q0 -12 -6 -28q-131 -129 -174 -129q-8 0 -13 4q-45 20 -47 72q0 10 6 22q123 127 176 127q7 0 11 -2zM1440 760q76 -8 76 -84v-2q-8 -74 -9 -139q0 -150 37 -263q33 -109 92 -108q29 0 64 24q33 18 57 19q23 0 43 -19q16 -20 17 -45 q0 -23 -15 -51q-57 -72 -176 -96q-16 -2 -28 -2q-102 0 -172 158q-70 156 -70 448q0 41 2 88q12 68 82 72zM776 563q-51 6 -104 15q-29 6 -29 55v18q6 66 47 66l78 -8v67q0 276 29 445v6q29 174 90 289t164 114q14 0 30 -2l15 -2q117 -20 159 -80q2 -14 3 -26q0 -14 -3 -27 q-4 -23 -18 -39q-18 -18 -43 -18h-8l-12 4q-43 29 -78 35q-8 2 -17 2q-23 0 -41 -11q-47 -20 -92 -286l-2 -13q-23 -131 -22 -295q0 -82 6 -172q113 0 262 9h2q8 4 16 4h2q39 0 56 -54l2 -12v-14q0 -49 -35 -70q-45 -4 -90 -6q-78 -6 -160 -6h-39q14 -98 37 -219 q27 -125 62 -273l2 -2q4 -8 4 -14q2 -6 2 -14q0 -33 -43 -54l-13 -4q-18 -4 -34 -4q-35 0 -56 25l-20 88l-27 119q-27 123 -45 231q-25 29 -37 133zM139 563q-51 6 -104 15q-29 6 -29 55v18q6 66 47 66l78 -8v67q0 276 29 445v6q29 174 90 289t164 114q14 0 30 -2l15 -2 q117 -20 159 -80q2 -14 3 -26q0 -14 -3 -27q-4 -23 -18 -39q-18 -18 -43 -18h-8l-12 4q-43 29 -78 35q-8 2 -17 2q-23 0 -41 -11q-47 -20 -92 -286l-2 -13q-23 -131 -22 -295q0 -82 6 -172q113 0 262 9h2q8 4 16 4h2q39 0 56 -54l2 -12v-14q0 -49 -35 -70q-45 -4 -90 -6 q-78 -6 -160 -6h-39q14 -98 37 -219q27 -125 62 -273l2 -2q4 -8 4 -14q2 -6 2 -14q0 -33 -43 -54l-13 -4q-18 -4 -34 -4q-35 0 -56 25l-20 88l-27 119q-27 123 -45 231q-25 29 -37 133z" />
<glyph unicode="&#xfb04;" horiz-adv-x="1814" d="M1495 559h4q20 -174 58 -287q33 -109 92 -108q29 0 63 24q35 18 58 19q23 0 43 -19q18 -20 18 -45q0 -23 -16 -51q-57 -72 -176 -96q-16 -2 -27 -2q-104 0 -172 158q-59 129 -78 352q-39 268 -39 653v234q0 59 2 120q20 57 80 58h12q53 -14 54 -70q0 -10 -2 -22v-2 q-4 -201 -5 -369q4 -338 31 -547zM776 563q-51 6 -104 15q-29 6 -29 55v18q6 66 47 66l78 -8v67q0 276 29 445v6q29 174 90 289t164 114q14 0 30 -2l15 -2q117 -20 159 -80q2 -14 3 -26q0 -14 -3 -27q-4 -23 -18 -39q-18 -18 -43 -18h-8l-12 4q-43 29 -78 35q-8 2 -17 2 q-23 0 -41 -11q-47 -20 -92 -286l-2 -13q-23 -131 -22 -295q0 -82 6 -172q113 0 262 9h2q8 4 16 4h2q39 0 56 -54l2 -12v-14q0 -49 -35 -70q-45 -4 -90 -6q-78 -6 -160 -6h-39q14 -98 37 -219q27 -125 62 -273l2 -2q4 -8 4 -14q2 -6 2 -14q0 -33 -43 -54l-13 -4 q-18 -4 -34 -4q-35 0 -56 25l-20 88l-27 119q-27 123 -45 231q-25 29 -37 133zM139 563q-51 6 -104 15q-29 6 -29 55v18q6 66 47 66l78 -8v67q0 276 29 445v6q29 174 90 289t164 114q14 0 30 -2l15 -2q117 -20 159 -80q2 -14 3 -26q0 -14 -3 -27q-4 -23 -18 -39 q-18 -18 -43 -18h-8l-12 4q-43 29 -78 35q-8 2 -17 2q-23 0 -41 -11q-47 -20 -92 -286l-2 -13q-23 -131 -22 -295q0 -82 6 -172q113 0 262 9h2q8 4 16 4h2q39 0 56 -54l2 -12v-14q0 -49 -35 -70q-45 -4 -90 -6q-78 -6 -160 -6h-39q14 -98 37 -219q27 -125 62 -273l2 -2 q4 -8 4 -14q2 -6 2 -14q0 -33 -43 -54l-13 -4q-18 -4 -34 -4q-35 0 -56 25l-20 88l-27 119q-27 123 -45 231q-25 29 -37 133z" />
</font>
</defs>
</svg>
