<?xml version="1.0" encoding="utf-8"?>
<!-- Generator: Adobe Illustrator 19.1.0, SVG Export Plug-In . SVG Version: 6.00 Build 0)  -->
<svg version="1.1" id="Layer_1" xmlns="http://www.w3.org/2000/svg" xmlns:xlink="http://www.w3.org/1999/xlink" x="0px" y="0px"
	 viewBox="-265 357 80 80" style="enable-background:new -265 357 80 80;" xml:space="preserve">
<style type="text/css">
	.st0{fill:#2D67BA;}
	.st1{fill:#218ADB;}
	.st2{fill:#FFFFFF;}
	.st3{fill:#EFEFEF;}
</style>
<g>
	<g id="Layer_1_1_">
		<g>
			<g>
				<path class="st0" d="M-185.1,397c0-22.1-17.8-40-39.9-40v80C-202.9,437-185.1,419.1-185.1,397z"/>
				<path class="st1" d="M-264.8,397c0,22.1,17.8,40,39.9,40v-80C-246.9,357-264.8,374.8-264.8,397z"/>
				<path class="st2" d="M-243.3,413.9c0-17.8,20.2-20.3,20.2-26.7c0-3.4-2.2-3.5-3.5-3.5c-3.7,0-6.6,5.1-6.6,5.1l-9.6-6.6
					c0,0,4.4-10.8,17.4-10.8c7.3,0,16.8,4,16.8,14.9c0,13.3-19,16.7-19.5,22.3h9.2v-5.4h11.1v16.3h-34.9
					C-243,417.6-243.3,415.7-243.3,413.9z"/>
			</g>
			<path class="st3" d="M-218.7,403.3h11.1v16.3h-17.2v-11.1h6.2V403.3z M-208.4,386.4c0-10.8-9.3-14.7-16.5-14.9v12.5
				c1,0.3,1.9,1.2,1.9,3.3c0,1.2-0.7,2.2-1.9,3.3v14.3C-219.4,400.9-208.4,396.5-208.4,386.4z"/>
		</g>
	</g>
	<g id="Layer_2">
	</g>
</g>
</svg>
