<?xml version="1.0" encoding="utf-8"?>
<!-- Generator: Adobe Illustrator 19.1.0, SVG Export Plug-In . SVG Version: 6.00 Build 0)  -->
<svg version="1.1" xmlns="http://www.w3.org/2000/svg" xmlns:xlink="http://www.w3.org/1999/xlink" x="0px" y="0px"
	 viewBox="0 0 80 80" style="enable-background:new 0 0 80 80;" xml:space="preserve">
<style type="text/css">
	.st0{fill:#3D9B79;}
	.st1{fill:#F37734;}
	.st2{fill:#218ADB;}
	.st3{opacity:0.5;fill:#245C9B;}
	.st4{fill:#E2E2E2;}
	.st5{fill-rule:evenodd;clip-rule:evenodd;fill:#3D9B79;}
	.st6{fill:none;stroke:#203E7A;stroke-width:2;stroke-miterlimit:10;}
	.st7{fill:#FDB82A;}
	.st8{fill:#203E7A;}
	.st9{fill:#228ADB;}
	.st10{opacity:0.4;fill:#FFFFFF;}
	.st11{fill:#E24447;}
	.st12{fill:#FFFFFF;}
	.st13{fill:#20407A;}
	.st14{opacity:0.5;fill:#218ADB;}
	.st15{fill:url(#);}
	.st16{fill:#79C143;}
	.st17{fill:#734A9B;}
	.st18{fill:#323232;}
	.st19{fill:#ECECEC;}
	.st20{fill:#F4F4F4;}
	.st21{opacity:0.25;fill:#FFFFFF;}
	.st22{fill:#1888DE;}
	.st23{fill-rule:evenodd;clip-rule:evenodd;fill:#20407A;}
	.st24{clip-path:url(#SVGID_2_);}
	.st25{fill-rule:evenodd;clip-rule:evenodd;fill:#FFFFFF;}
	.st26{fill-rule:evenodd;clip-rule:evenodd;fill:#218ADB;}
	.st27{fill-rule:evenodd;clip-rule:evenodd;fill:#FDB82A;}
	.st28{fill:#D3D3D3;}
	.st29{fill-rule:evenodd;clip-rule:evenodd;fill:#D3D3D3;}
	.st30{fill:#F7D26B;}
	.st31{fill:#D8D8D8;}
	.st32{fill:#CCCCCC;}
	.st33{fill:#245C9B;}
	.st34{fill:#F7F7F7;}
	.st35{fill:#2D67BA;}
	.st36{fill:#EFEFEF;}
	.st37{opacity:0.1;}
	.st38{fill-rule:evenodd;clip-rule:evenodd;fill:#228ADB;}
	.st39{clip-path:url(#SVGID_6_);}
	.st40{fill:#FFCA28;}
	.st41{fill:#455A64;}
	.st42{fill:#EEEEEE;}
	.st43{clip-path:url(#SVGID_10_);fill:#F37734;}
	.st44{clip-path:url(#SVGID_10_);fill:#FFFFFF;}
	.st45{clip-path:url(#SVGID_12_);fill:#F37734;}
	.st46{clip-path:url(#SVGID_12_);fill:#FFFFFF;}
	.st47{clip-path:url(#SVGID_14_);fill:#F37734;}
	.st48{clip-path:url(#SVGID_14_);fill:#FFFFFF;}
	.st49{clip-path:url(#SVGID_16_);fill:#F37734;}
	.st50{clip-path:url(#SVGID_16_);fill:#FFFFFF;}
	.st51{clip-path:url(#SVGID_18_);fill:#FDB82A;}
	.st52{clip-path:url(#SVGID_18_);fill:#FFFFFF;}
	.st53{clip-path:url(#SVGID_20_);fill:#FDB82A;}
	.st54{clip-path:url(#SVGID_20_);fill:#FFFFFF;}
</style>
<g id="Layer_1">
	<g>
		<path class="st35" d="M80,40C80,17.9,62.1,0,40,0v80C62.1,80,80,62.1,80,40z"/>
		<path class="st2" d="M0,40c0,22.1,17.9,40,40,40V0C17.9,0,0,17.9,0,40z"/>
		<g>
			<g>
				<path class="st12" d="M23.2,16.5H56v9.9l-7.7,9.8c6.5,1.9,9.5,6.9,9.5,12.2c0,8.1-5.5,16.8-18.9,16.8c-11.2,0-16.8-6.2-16.8-6.2
					l6.3-10c0,0,4.4,3.8,9.3,3.8c3.9,0,5.5-1.8,5.5-3.7c0-2.1-1.7-3.9-6.2-3.9c-0.5,0-1.1,0.1-2.1,0.1l-2.9-6.2l6.9-9.1
					c1.2-1.5,2.5-2.5,2.5-2.5v-0.1c0,0-1.7,0.2-3.3,0.2h-3.7v3.9H23.2V16.5z"/>
			</g>
			<path class="st36" d="M48.3,36.2l7.7-9.8v-9.9H40v11.1c0.8-0.1,1.4-0.1,1.4-0.1v0.1c0,0-0.6,0.5-1.4,1.3v16.7
				c2.3,0.6,3.3,2,3.3,3.5c0,1.5-1,2.9-3.3,3.5v12.6c12.6-0.5,17.8-8.9,17.8-16.8C57.8,43.1,54.8,38.1,48.3,36.2z"/>
		</g>
	</g>
</g>
<g id="Layer_2">
</g>
</svg>
