<?xml version="1.0" encoding="utf-8"?>
<!-- Generator: Adobe Illustrator 19.1.0, SVG Export Plug-In . SVG Version: 6.00 Build 0)  -->
<svg version="1.1" xmlns="http://www.w3.org/2000/svg" xmlns:xlink="http://www.w3.org/1999/xlink" x="0px" y="0px"
	 viewBox="0 0 80 80" style="enable-background:new 0 0 80 80;" xml:space="preserve">
<style type="text/css">
	.st0{fill:#3D9B79;}
	.st1{fill:#F37734;}
	.st2{fill:#218ADB;}
	.st3{opacity:0.5;fill:#245C9B;}
	.st4{fill:#E2E2E2;}
	.st5{fill-rule:evenodd;clip-rule:evenodd;fill:#3D9B79;}
	.st6{fill:none;stroke:#203E7A;stroke-width:2;stroke-miterlimit:10;}
	.st7{fill:#FDB82A;}
	.st8{fill:#203E7A;}
	.st9{fill:#228ADB;}
	.st10{opacity:0.4;fill:#FFFFFF;}
	.st11{fill:#E24447;}
	.st12{fill:#FFFFFF;}
	.st13{fill:#20407A;}
	.st14{opacity:0.5;fill:#218ADB;}
	.st15{fill:url(#);}
	.st16{fill:#79C143;}
	.st17{fill:#734A9B;}
	.st18{fill:#323232;}
	.st19{fill:#ECECEC;}
	.st20{fill:#F4F4F4;}
	.st21{opacity:0.25;fill:#FFFFFF;}
	.st22{fill:#1888DE;}
	.st23{fill-rule:evenodd;clip-rule:evenodd;fill:#20407A;}
	.st24{clip-path:url(#SVGID_2_);}
	.st25{fill-rule:evenodd;clip-rule:evenodd;fill:#FFFFFF;}
	.st26{fill-rule:evenodd;clip-rule:evenodd;fill:#218ADB;}
	.st27{fill-rule:evenodd;clip-rule:evenodd;fill:#FDB82A;}
	.st28{fill:#D3D3D3;}
	.st29{fill-rule:evenodd;clip-rule:evenodd;fill:#D3D3D3;}
	.st30{fill:#F7D26B;}
	.st31{fill:#D8D8D8;}
	.st32{fill:#CCCCCC;}
	.st33{fill:#245C9B;}
	.st34{fill:#F7F7F7;}
	.st35{fill:#2D67BA;}
	.st36{fill:#EFEFEF;}
	.st37{opacity:0.1;}
	.st38{fill-rule:evenodd;clip-rule:evenodd;fill:#228ADB;}
	.st39{clip-path:url(#SVGID_6_);}
	.st40{fill:#FFCA28;}
	.st41{fill:#455A64;}
	.st42{fill:#EEEEEE;}
	.st43{clip-path:url(#SVGID_10_);fill:#F37734;}
	.st44{clip-path:url(#SVGID_10_);fill:#FFFFFF;}
	.st45{clip-path:url(#SVGID_12_);fill:#F37734;}
	.st46{clip-path:url(#SVGID_12_);fill:#FFFFFF;}
	.st47{clip-path:url(#SVGID_14_);fill:#F37734;}
	.st48{clip-path:url(#SVGID_14_);fill:#FFFFFF;}
	.st49{clip-path:url(#SVGID_16_);fill:#F37734;}
	.st50{clip-path:url(#SVGID_16_);fill:#FFFFFF;}
	.st51{clip-path:url(#SVGID_18_);fill:#FDB82A;}
	.st52{clip-path:url(#SVGID_18_);fill:#FFFFFF;}
	.st53{clip-path:url(#SVGID_20_);fill:#FDB82A;}
	.st54{clip-path:url(#SVGID_20_);fill:#FFFFFF;}
</style>
<g id="Layer_1">
	<g>
		<path class="st35" d="M80,40C80,17.9,62.1,0,40,0v80C62.1,80,80,62.1,80,40z"/>
		<path class="st2" d="M0,40c0,22.1,17.9,40,40,40V0C17.9,0,0,17.9,0,40z"/>
		<g>
			<g>
				<g>
					<path class="st12" d="M23,52.1h9.9V36.5c0-1.9,0.1-4,0.1-4h-0.1c0,0-0.7,1.5-1.7,2.4L29,36.7l-7.9-8.5l13.5-12.5h11.9v36.4h10
						v11H23V52.1z"/>
				</g>
			</g>
		</g>
		<polygon class="st36" points="46.4,52.1 46.4,15.7 40,15.7 40,63.1 56.5,63.1 56.5,52.1 		"/>
	</g>
</g>
<g id="Layer_2">
</g>
</svg>
