<?xml version="1.0" encoding="utf-8"?>
<!-- Generator: Adobe Illustrator 19.1.0, SVG Export Plug-In . SVG Version: 6.00 Build 0)  -->
<svg version="1.1" id="Layer_1" xmlns="http://www.w3.org/2000/svg" xmlns:xlink="http://www.w3.org/1999/xlink" x="0px" y="0px"
	 viewBox="0 0 40 40" style="enable-background:new 0 0 40 40;" xml:space="preserve">
<style type="text/css">
	.st0{fill:#218ADB;}
	.st1{opacity:0.5;fill:#245C9B;}
	.st2{fill:#E2E2E2;}
	.st3{fill-rule:evenodd;clip-rule:evenodd;fill:#3D9B79;}
	.st4{fill:none;stroke:#203E7A;stroke-width:2;stroke-miterlimit:10;}
	.st5{fill:#FDB82A;}
	.st6{fill:#203E7A;}
	.st7{fill:#3D9B79;}
	.st8{fill:#228ADB;}
	.st9{opacity:0.4;fill:#FFFFFF;}
	.st10{fill:#E24447;}
	.st11{fill:#FFFFFF;}
	.st12{fill:#20407A;}
	.st13{opacity:0.5;fill:#218ADB;}
	.st14{fill:url(#);}
	.st15{fill:#F37734;}
	.st16{fill:#79C143;}
	.st17{fill:#734A9B;}
	.st18{fill:#323232;}
	.st19{fill:#ECECEC;}
	.st20{fill:#F4F4F4;}
	.st21{opacity:0.25;fill:#FFFFFF;}
	.st22{fill:#1888DE;}
	.st23{fill-rule:evenodd;clip-rule:evenodd;fill:#20407A;}
	.st24{clip-path:url(#SVGID_2_);}
	.st25{fill-rule:evenodd;clip-rule:evenodd;fill:#FFFFFF;}
	.st26{fill-rule:evenodd;clip-rule:evenodd;fill:#218ADB;}
	.st27{fill-rule:evenodd;clip-rule:evenodd;fill:#FDB82A;}
	.st28{fill:#D3D3D3;}
	.st29{fill-rule:evenodd;clip-rule:evenodd;fill:#D3D3D3;}
	.st30{fill:#F7D26B;}
	.st31{fill:#D8D8D8;}
	.st32{fill:#CCCCCC;}
	.st33{fill:#245C9B;}
	.st34{fill:#F7F7F7;}
	.st35{fill:#2D67BA;}
	.st36{fill:#EFEFEF;}
	.st37{opacity:0.1;}
	.st38{fill:#0098FF;}
	.st39{fill-rule:evenodd;clip-rule:evenodd;fill:#228ADB;}
	.st40{clip-path:url(#SVGID_6_);}
</style>
<path class="st5" d="M19.3,24.8c0.3,0.2,0.6,0.3,1,0.5c-0.6,0.8-1.5,1.5-2.6,1.8c-2.5,0.7-5.1-0.8-5.8-3.3c-0.7-2.5,0.8-5,3.2-5.7
	c0,0.5,0.1,1.1,0.3,1.7C15.9,21.9,17.3,23.7,19.3,24.8z M28.1,16.3C27.8,15,27,14,25.9,13.4c-0.7-0.4-1.5-0.6-2.4-0.6
	c-0.4,0-0.8,0.1-1.2,0.2c-1.1,0.3-2,1-2.6,1.8c0.3,0.1,0.6,0.3,0.9,0.4c2,1.1,3.5,3,4.1,5.2v0c0.1,0.6,0.2,1.1,0.3,1.7
	c1.1-0.4,2.1-1.1,2.7-2.1C28.3,18.7,28.4,17.5,28.1,16.3L28.1,16.3z M18.9,18.5c0,0.1,0,0.1,0,0.2c0.3,1.2,1.1,2.2,2.1,2.8
	c0-0.1,0-0.1,0-0.2C20.7,20.1,20,19.1,18.9,18.5z M40,20c0,11-9,20-20,20C9,40,0,31,0,20C0,9,9,0,20,0C31,0,40,9,40,20z M31.7,15.3
	c-0.6-2.2-2-4-3.9-5.1c-2-1.1-4.2-1.4-6.4-0.8c-2.6,0.7-4.6,2.5-5.6,4.8c-0.5,0-1,0.1-1.5,0.3c-4.5,1.2-7.2,5.9-6,10.4
	c1,3.8,4.4,6.3,8.2,6.3c0.7,0,1.5-0.1,2.2-0.3c2.6-0.7,4.6-2.5,5.6-4.8c0.5,0,1-0.1,1.5-0.2c2.2-0.6,4-2,5.1-3.9
	C32,19.8,32.3,17.5,31.7,15.3z"/>
</svg>
