<?xml version="1.0" encoding="utf-8"?>
<!-- Generator: Adobe Illustrator 19.1.0, SVG Export Plug-In . SVG Version: 6.00 Build 0)  -->
<svg version="1.1" id="Layer_1" xmlns="http://www.w3.org/2000/svg" xmlns:xlink="http://www.w3.org/1999/xlink" x="0px" y="0px"
	 viewBox="0 0 40 40" style="enable-background:new 0 0 40 40;" xml:space="preserve">
<style type="text/css">
	.st0{fill:#218ADB;}
	.st1{opacity:0.5;fill:#245C9B;}
	.st2{fill:#E2E2E2;}
	.st3{fill-rule:evenodd;clip-rule:evenodd;fill:#3D9B79;}
	.st4{fill:none;stroke:#203E7A;stroke-width:2;stroke-miterlimit:10;}
	.st5{fill:#FDB82A;}
	.st6{fill:#203E7A;}
	.st7{fill:#3D9B79;}
	.st8{fill:#228ADB;}
	.st9{opacity:0.4;fill:#FFFFFF;}
	.st10{fill:#E24447;}
	.st11{fill:#FFFFFF;}
	.st12{fill:#20407A;}
	.st13{opacity:0.5;fill:#218ADB;}
	.st14{fill:url(#);}
	.st15{fill:#F37734;}
	.st16{fill:#79C143;}
	.st17{fill:#734A9B;}
	.st18{fill:#323232;}
	.st19{fill:#ECECEC;}
	.st20{fill:#F4F4F4;}
	.st21{opacity:0.25;fill:#FFFFFF;}
	.st22{fill:#1888DE;}
	.st23{fill-rule:evenodd;clip-rule:evenodd;fill:#20407A;}
	.st24{clip-path:url(#SVGID_2_);}
	.st25{fill-rule:evenodd;clip-rule:evenodd;fill:#FFFFFF;}
	.st26{fill-rule:evenodd;clip-rule:evenodd;fill:#218ADB;}
	.st27{fill-rule:evenodd;clip-rule:evenodd;fill:#FDB82A;}
	.st28{fill:#D3D3D3;}
	.st29{fill-rule:evenodd;clip-rule:evenodd;fill:#D3D3D3;}
	.st30{fill:#F7D26B;}
	.st31{fill:#D8D8D8;}
	.st32{fill:#CCCCCC;}
	.st33{fill:#245C9B;}
	.st34{fill:#F7F7F7;}
	.st35{fill:#2D67BA;}
	.st36{fill:#EFEFEF;}
	.st37{opacity:0.1;}
	.st38{fill:#0098FF;}
	.st39{fill-rule:evenodd;clip-rule:evenodd;fill:#228ADB;}
	.st40{clip-path:url(#SVGID_6_);}
</style>
<path class="st5" d="M20,0C9,0,0,9,0,20s9,20,20,20s20-9,20-20S31,0,20,0z M9.8,29.6C9.8,29.5,9.8,29.5,9.8,29.6
	c0.1-4.4,2.8-8,6.5-9.5c-1.7-1.2-2.9-3.3-2.8-5.6c0.1-4,3.5-7.1,7.6-6.6c3.1,0.4,5.5,2.9,5.9,5.9c0.3,2.7-1,5.1-3,6.4
	c3.6,1.5,6.2,5.2,6.2,9.3C27.6,32.3,24,34,20,34C16,34,12.4,32.3,9.8,29.6z"/>
</svg>
