<?xml version="1.0" encoding="utf-8"?>
<!-- Generator: Adobe Illustrator 19.1.0, SVG Export Plug-In . SVG Version: 6.00 Build 0)  -->
<svg version="1.1" id="Layer_1" xmlns="http://www.w3.org/2000/svg" xmlns:xlink="http://www.w3.org/1999/xlink" x="0px" y="0px"
	 viewBox="0 0 40 40" style="enable-background:new 0 0 40 40;" xml:space="preserve">
<style type="text/css">
	.st0{fill:#218ADB;}
	.st1{opacity:0.5;fill:#245C9B;}
	.st2{fill:#E2E2E2;}
	.st3{fill-rule:evenodd;clip-rule:evenodd;fill:#3D9B79;}
	.st4{fill:none;stroke:#203E7A;stroke-width:2;stroke-miterlimit:10;}
	.st5{fill:#FDB82A;}
	.st6{fill:#203E7A;}
	.st7{fill:#3D9B79;}
	.st8{fill:#228ADB;}
	.st9{opacity:0.4;fill:#FFFFFF;}
	.st10{fill:#E24447;}
	.st11{fill:#FFFFFF;}
	.st12{fill:#20407A;}
	.st13{opacity:0.5;fill:#218ADB;}
	.st14{fill:url(#);}
	.st15{fill:#F37734;}
	.st16{fill:#79C143;}
	.st17{fill:#734A9B;}
	.st18{fill:#323232;}
	.st19{fill:#ECECEC;}
	.st20{fill:#F4F4F4;}
	.st21{opacity:0.25;fill:#FFFFFF;}
	.st22{fill:#1888DE;}
	.st23{fill-rule:evenodd;clip-rule:evenodd;fill:#20407A;}
	.st24{clip-path:url(#SVGID_2_);}
	.st25{fill-rule:evenodd;clip-rule:evenodd;fill:#FFFFFF;}
	.st26{fill-rule:evenodd;clip-rule:evenodd;fill:#218ADB;}
	.st27{fill-rule:evenodd;clip-rule:evenodd;fill:#FDB82A;}
	.st28{fill:#D3D3D3;}
	.st29{fill-rule:evenodd;clip-rule:evenodd;fill:#D3D3D3;}
	.st30{fill:#F7D26B;}
	.st31{fill:#D8D8D8;}
	.st32{fill:#CCCCCC;}
	.st33{fill:#245C9B;}
	.st34{fill:#F7F7F7;}
	.st35{fill:#2D67BA;}
	.st36{fill:#EFEFEF;}
	.st37{opacity:0.1;}
	.st38{fill:#0098FF;}
	.st39{fill-rule:evenodd;clip-rule:evenodd;fill:#228ADB;}
	.st40{clip-path:url(#SVGID_6_);}
</style>
<path class="st5" d="M20,0C9,0,0,9,0,20s9,20,20,20c11,0,20-9,20-20S31,0,20,0z M22.1,28.8c-0.4,0.1-0.6,0.4-0.6,0.8v1.3
	c0,0.4-0.4,0.8-0.8,0.8h-1.6c-0.4,0-0.8-0.4-0.8-0.8v-1.3c0-0.4-0.3-0.7-0.6-0.8c-2-0.5-3.3-1.4-4.1-1.9c-0.3-0.3-0.4-0.7-0.1-1.1
	l1.8-2.5c0.2-0.3,0.7-0.4,1.1-0.2c0.8,0.5,2.3,1.4,3.6,1.4c0.7,0,1.5-0.3,1.5-0.8c0-1.8-8-1.5-8-7c0-2.6,1.8-4.5,4.3-5.3
	c0.3-0.1,0.6-0.4,0.6-0.8V9.2c0-0.4,0.4-0.8,0.8-0.8h1.6c0.4,0,0.8,0.4,0.8,0.8v1.2c0,0.4,0.3,0.7,0.7,0.8c1.8,0.4,3,1.1,3.6,1.5
	c0.3,0.2,0.4,0.6,0.2,1l-1.4,2.7c-0.2,0.4-0.7,0.6-1.1,0.3c-0.8-0.5-2.1-1.1-3.4-1.1c-0.6,0-1.4,0.2-1.4,0.8c0,2.1,8,1.5,8,6.9
	C26.7,25.7,25.1,28,22.1,28.8z"/>
</svg>
